<?xml version="1.0" standalone="no"?>
<!DOCTYPE svg PUBLIC "-//W3C//DTD SVG 1.1//EN" "http://www.w3.org/Graphics/SVG/1.1/DTD/svg11.dtd" >
<svg xmlns="http://www.w3.org/2000/svg" xmlns:xlink="http://www.w3.org/1999/xlink" version="1.1">
<metadata></metadata>
<defs>
<font id="rasmusbold" horiz-adv-x="1492" >
<font-face units-per-em="2048" ascent="1638" descent="-410" />
<missing-glyph horiz-adv-x="614" />
<glyph horiz-adv-x="0" />
<glyph horiz-adv-x="682" />
<glyph unicode=" "  horiz-adv-x="614" />
<glyph unicode="&#x09;" horiz-adv-x="614" />
<glyph unicode="&#xa0;" horiz-adv-x="614" />
<glyph unicode="!" horiz-adv-x="604" d="M391 432l45 225v777h-266v-777l43 -225h178zM440 119q0 56 -42 97.5t-101 41.5q-51 0 -92 -42t-41 -97q0 -62 40.5 -106t92.5 -44q60 0 101.5 43.5t41.5 106.5z" />
<glyph unicode="&#x22;" horiz-adv-x="555" d="M229 1057l23 131v246h-129v-246l24 -131h82zM410 1057l22 131v246h-129v-246l25 -131h82z" />
<glyph unicode="#" horiz-adv-x="1048" d="M635 0h-123v35l84 346h-252l-92 -381h-123v35l84 346h-152l27 123h156l63 264h-164l27 123h168l131 543h119v-35l-123 -508h256l131 543h119v-35l-123 -508h139l-26 -123h-142l-63 -264h149l-26 -123h-152zM436 768l-63 -264h254l63 264h-254z" />
<glyph unicode="$" horiz-adv-x="1038" d="M563 905l86 -33q144 -58 236 -176t92 -276q0 -187 -116.5 -306.5t-297.5 -140.5v-120h-123v116q-110 4 -168.5 27.5t-128.5 77.5l-32 -64h-50v359h48q32 -81 70 -136.5t82 -84t85 -40.5t94 -14v551l-49 21q-159 68 -242 168.5t-83 242.5q0 152 104.5 256.5t269.5 126.5 v123h123v-121q93 -5 190 -27.5t160 -54.5l-73 -282h-47q-4 127 -62 181t-168 60v-434zM440 954v381q-80 -16 -129 -60.5t-49 -109.5q0 -49 12 -84t40.5 -58.5t53 -36.5t72.5 -32zM563 592v-494q95 19 160 76.5t65 144.5q0 58 -14.5 100.5t-47 74t-69 52.5t-94.5 46z" />
<glyph unicode="%" horiz-adv-x="1323" d="M352 852q67 0 131 38.5t107 111t43 159.5q0 127 -88 216t-193 89q-109 0 -200 -89t-91 -216q0 -131 90.5 -220t200.5 -89zM979 1434h125v-35l-807 -1399h-129v37zM352 1372q64 0 91.5 -50.5t27.5 -160.5q0 -115 -28 -164t-91 -49q-67 0 -98 49.5t-31 163.5 q0 106 34 158.5t95 52.5zM981 -31q105 0 193 89.5t88 220.5q0 127 -88 216t-193 89q-109 0 -200 -89t-91 -216q0 -131 90.5 -220.5t200.5 -89.5zM981 489q64 0 91.5 -50t27.5 -160q0 -115 -28 -164t-91 -49q-67 0 -98 49.5t-31 163.5q0 106 34 158t95 52z" />
<glyph unicode="&#x26;" horiz-adv-x="1454" d="M1100 0l-174 248q-83 -113 -194.5 -192t-223.5 -79q-181 0 -283 85.5t-102 244.5q0 65 25 129.5t60 114.5t91 104.5t99.5 89.5t103.5 78q-24 34 -63 86.5t-55.5 75.5t-36.5 56.5t-27 59t-7 52.5q0 152 86.5 231.5t231.5 79.5q57 0 106.5 -12.5t94 -41t70.5 -82.5t26 -128 q0 -116 -49 -194t-162 -162l268 -342l164 225q-11 27 -30 48t-33 29l-13 7v33h277v-37q-5 -1 -13.5 -5t-30.5 -24.5t-38 -50.5l-224 -301l222 -301q68 -61 127 -86v-39h-293zM602 995l60 -63q70 48 102.5 109t32.5 153q0 71 -38 120t-128 48q-51 -1 -89 -17t-59.5 -42.5 t-32 -57t-10.5 -65.5q0 -47 8 -72t31 -51q22 -24 65.5 -35t57.5 -27zM854 342l-295 391q-131 -105 -177.5 -183.5t-27.5 -152.5q23 -91 89.5 -145.5t146.5 -54.5q154 0 264 145z" />
<glyph unicode="'" horiz-adv-x="374" d="M229 1057l23 131v246h-129v-246l24 -131h82z" />
<glyph unicode="(" horiz-adv-x="714" d="M621 1518l32 -66q-113 -102 -188 -261t-106 -328t-31 -355q0 -135 14.5 -252.5t49 -238t100.5 -229.5t161 -198l-30 -67q-164 88 -294 251t-199 355.5t-69 378.5q0 194 64 386t193 359t303 265z" />
<glyph unicode=")" horiz-adv-x="673" d="M51 -477l-31 67q95 89 161 198t101 229.5t49.5 238t14.5 252.5q0 288 -79.5 540.5t-246.5 403.5l33 66q174 -97 302.5 -264.5t192.5 -359.5t64 -386q0 -186 -68.5 -378.5t-198.5 -355.5t-294 -251z" />
<glyph unicode="*" horiz-adv-x="581" d="M500 1305l-17 24l-133 -51l-41 156h-33l-38 -156l-142 51l-14 -24l98 -111l-98 -96l10 -41l146 41l38 -144h33l41 144l133 -41l17 41l-113 96z" />
<glyph unicode="+" horiz-adv-x="716" d="M63 530v123h242v240h123v-240h227v-123h-229v-247h-123v247h-240z" />
<glyph unicode="," horiz-adv-x="450" d="M123 -150l72 109q-45 6 -79 46t-34 95q0 53 40 95.5t87 42.5q58 0 98.5 -41.5t40.5 -96.5q0 -46 -22 -82l-203 -309v141z" />
<glyph unicode="-" horiz-adv-x="907" d="M846 596h-758l-27 -123h758z" />
<glyph unicode="." horiz-adv-x="538" d="M457 117q0 56 -42.5 97.5t-101.5 41.5q-50 0 -89.5 -42t-39.5 -97q0 -63 39 -105.5t90 -42.5q61 0 102.5 42t41.5 106z" />
<glyph unicode="/" horiz-adv-x="671" d="M571 1434h121v-37l-588 -1397h-124v41z" />
<glyph unicode="0" horiz-adv-x="1341" d="M676 -29q121 0 231.5 56t193 154t131 239.5t48.5 304.5q0 158 -48.5 297.5t-131 236t-193 152t-231.5 55.5q-124 0 -237 -55.5t-196 -152.5t-132.5 -236t-49.5 -297q0 -163 49.5 -304.5t133 -239.5t196 -154t236.5 -56zM676 1343q77 0 133.5 -31.5t91.5 -84t56 -133.5 t28.5 -168.5t7.5 -200.5q0 -118 -7.5 -207.5t-28.5 -172t-56 -135.5t-91.5 -84.5t-133.5 -31.5q-93 0 -158 46t-101.5 133t-52.5 197t-16 255q0 139 16 246t52.5 193.5t102 132.5t157.5 46z" />
<glyph unicode="1" horiz-adv-x="659" d="M463 1434v-1278q26 -46 60 -75.5t55 -35.5l20 -6v-39h-537v39q3 1 8.5 2.5t22 9t32.5 19t36 34.5t37 52v917q-26 46 -60 75.5t-55 35.5l-21 6v39q13 0 68.5 20.5t143 71.5t145.5 113h45z" />
<glyph unicode="2" horiz-adv-x="1161" d="M61 0v39q49 44 97.5 89t119.5 118.5t131 144t124 160.5t108.5 173.5t73 177t28.5 177.5q0 143 -46.5 203.5t-166.5 60.5q-88 0 -150 -23.5t-94 -57t-57 -84.5h-51q6 26 11.5 45t19.5 51t32 55.5t50 51t71.5 45t97.5 29t128 11.5q184 0 290.5 -104t106.5 -285 q0 -70 -29 -148.5t-70 -145t-106 -148t-117.5 -137.5t-124.5 -133.5t-108 -118.5h481l142 98h47l-185 -344h-854z" />
<glyph unicode="3" horiz-adv-x="1034" d="M932 1391l-438 -543q200 -11 335 -118.5t144 -289.5q11 -216 -132.5 -340.5t-402.5 -124.5q-141 0 -233 66t-144 195h70q49 -87 119 -122.5t188 -35.5q139 0 204 91.5t65 270.5q0 322 -254 322q-62 0 -101 -5t-47 -9l-8 -5v62l311 381h-477v26q8 12 21 32t36.5 78 t28.5 110h715v-41z" />
<glyph unicode="4" horiz-adv-x="1110" d="M868 346v-190q26 -46 60 -75.5t55 -35.5l21 -6v-39h-537v39q3 1 8.5 2.5t22 9t32 19t35.5 34.5t37 52v190h-541v29l756 1059h51v-985h181l-29 -103h-152zM602 449v507l-360 -507h360z" />
<glyph unicode="5" horiz-adv-x="1017" d="M362 1188l-79 -311q97 39 195 41t181.5 -31t149.5 -92.5t104.5 -147t42.5 -190.5q8 -219 -135 -342.5t-393 -114.5q-139 0 -224 51.5t-143 188.5h64q50 -76 117.5 -107t185.5 -31q139 0 204 86t56 267q0 72 -18.5 134.5t-61 112t-104 74t-155 15.5t-206.5 -58v41l162 660 h627l-53 -209v-37h-517z" />
<glyph unicode="6" horiz-adv-x="1077" d="M803 1434v-60q-128 -70 -239.5 -204t-170.5 -293q75 38 158 38q204 0 334.5 -127.5t130.5 -347.5q0 -218 -129.5 -341.5t-335.5 -123.5q-243 0 -366.5 133.5t-123.5 397.5q0 98 23 196.5t78 204t138 199t212 180t291 148.5zM547 78q87 0 155 106t68 256 q0 101 -23.5 183.5t-74 136t-121.5 53.5q-79 0 -129.5 -47.5t-71 -122.5t-20.5 -178q0 -81 11 -147.5t35.5 -122t68 -86.5t102.5 -31z" />
<glyph unicode="7" horiz-adv-x="946" d="M885 1434h-758q-12 -46 -28.5 -98t-26.5 -80l-11 -29v-39h623l-504 -1149v-39h101l604 1393v41z" />
<glyph unicode="8" horiz-adv-x="1089" d="M553 -27q78 0 147 12.5t132 42.5t107 76t68.5 116t20.5 159q0 65 -27 128.5t-73.5 118t-99.5 98.5t-115 83q84 40 146.5 138.5t62.5 189.5q0 106 -49 182.5t-125 111.5t-170 35q-59 0 -118 -11.5t-117 -38t-102.5 -65t-72 -97.5t-27.5 -130q0 -58 18.5 -108.5t56 -94 t73.5 -74.5t92 -71q-70 -34 -123 -69.5t-100 -84t-72 -111t-25 -136.5q0 -108 37.5 -187t106 -124.5t154.5 -67t194 -21.5zM629 864q-194 115 -258 271q-8 25 -8 55t16 60.5t40.5 55.5t66 40.5t92.5 15.5q123 0 182 -60.5t59 -166.5q0 -81 -60.5 -158.5t-129.5 -112.5z M328 371q-1 66 8.5 119.5t23 86.5t36 61t39.5 41t40 28q59 -37 102 -69.5t89 -78.5t71 -100.5t25 -112.5q0 -55 -11 -102t-34.5 -85.5t-65.5 -60.5t-98 -22q-54 0 -95.5 18.5t-65.5 47.5t-39 69.5t-20 78.5t-5 81z" />
<glyph unicode="9" horiz-adv-x="1032" d="M672 580l16 49q-47 -19 -79.5 -26t-88.5 -7q-125 0 -228 49.5t-167 149.5t-64 233q0 136 62.5 236.5t164 150t226.5 49.5q226 6 341.5 -117t115.5 -356q0 -114 -24 -223.5t-80 -222t-140.5 -210t-213 -185t-290.5 -148.5v68q138 72 269 215.5t180 294.5zM520 698 q47 0 81 16.5t53.5 43t30 71t14 89.5t3.5 110q0 61 -4 106t-16 90t-32 74t-54.5 46.5t-81.5 17.5q-89 0 -137.5 -94.5t-48.5 -239.5q0 -96 17.5 -167t61.5 -117t113 -46z" />
<glyph unicode=":" horiz-adv-x="518" d="M395 774q0 56 -42 97.5t-101 41.5q-50 0 -89.5 -42t-39.5 -97q0 -63 39 -105t90 -42q61 0 102 41.5t41 105.5zM395 117q0 56 -42 97.5t-101 41.5q-50 0 -89.5 -42t-39.5 -97q0 -63 39 -105.5t90 -42.5q61 0 102 42t41 106z" />
<glyph unicode=";" horiz-adv-x="518" d="M252 627q-51 0 -90 42t-39 105q0 55 39.5 97t89.5 42q59 0 101 -41.5t42 -97.5q0 -64 -41 -105.5t-102 -41.5zM166 -150l72 109q-45 6 -79 46t-34 95q0 53 40 95.5t87 42.5q58 0 98.5 -41.5t40.5 -96.5q0 -46 -22 -82l-203 -309v141z" />
<glyph unicode="&#x3c;" horiz-adv-x="757" d="M61 487v58l594 407v-145l-419 -289l419 -293v-143z" />
<glyph unicode="=" horiz-adv-x="940" d="M817 768h-610l-27 -123h611zM760 510h-610l-27 -123h610z" />
<glyph unicode="&#x3e;" horiz-adv-x="757" d="M102 807v145l594 -407v-58l-594 -405v143l420 293z" />
<glyph unicode="?" horiz-adv-x="882" d="M438 393v68q2 68 24.5 131t56.5 113t74.5 98t81 92.5t73.5 88.5t53 95t20 103q-1 73 -34 128.5t-90.5 88.5t-129.5 49t-157 16q-161 0 -244.5 -72t-83.5 -210v-25h65q4 52 21 90t40.5 60t58 35t67.5 17t74 3q31 0 55 -6.5t39.5 -14t26 -24t16 -27.5t8 -33.5t2.5 -33 v-35.5q0 -70 -21.5 -137.5t-52.5 -126.5t-62 -122.5t-52.5 -151.5t-22.5 -187v-70h94zM535 119q0 56 -42.5 97.5t-101.5 41.5q-51 0 -92 -42t-41 -97q0 -62 40.5 -106t92.5 -44q60 0 102 43.5t42 106.5z" />
<glyph unicode="@" horiz-adv-x="1570" d="M1174 -92v-123q-164 -76 -404 -76q-195 0 -359 102t-257 270.5t-93 362.5q0 149 55.5 285t152 237.5t234.5 161.5t294 60q113 0 218.5 -28.5t195 -85t156.5 -133.5t104.5 -181t37.5 -221q0 -230 -75 -356t-207 -126q-206 0 -234 150q-40 -73 -105.5 -113.5t-131.5 -40.5 q-164 0 -272.5 116t-108.5 286q0 166 107 273.5t274 107.5q147 0 227 -95q0 -2 15.5 4t43 24.5t52.5 43.5h45v-561q3 -43 22.5 -66.5t69.5 -23.5q74 0 114.5 103.5t40.5 271.5q0 156 -81.5 278t-215 186t-292.5 64q-136 0 -252.5 -50.5t-194.5 -136t-122 -198t-44 -236.5 q0 -163 76 -303t211.5 -224.5t298.5 -84.5q89 0 209 22t195 54zM756 135q81 0 127.5 96.5t46.5 223.5q0 123 -45.5 212t-128.5 89q-56 0 -95.5 -44.5t-57 -111t-17.5 -145.5q0 -82 17.5 -152.5t57 -119t95.5 -48.5z" />
<glyph unicode="A" horiz-adv-x="1583" d="M870 1434l525 -1284q26 -44 58 -71.5t51 -33.5l18 -6v-39h-570v39q2 1 6.5 2.5t18 9t27 19t32 34.5t35.5 52l-110 252h-533l-106 -252q26 -46 55.5 -75.5t46.5 -35.5l16 -6v-39h-379v39q2 1 6.5 2t17.5 9t26.5 19t31.5 33t35 50l473 1159q5 2 14 5.5t34 16t46 26t43 34 t33 41.5h49zM467 532h459l-226 582z" />
<glyph unicode="B" horiz-adv-x="1345" d="M61 1434h693q218 0 343.5 -87.5t125.5 -250.5q0 -133 -77 -218.5t-173 -95.5q55 -10 107.5 -37.5t99.5 -72t75.5 -113.5t28.5 -151q0 -207 -110.5 -307.5t-315.5 -100.5h-797v39q2 1 6.5 2.5t18 9t27 19t32 34.5t35.5 52v1122q-26 46 -56 75.5t-46 35.5l-17 6v39z M694 1311h-188q-29 -13 -60 -60v-372q10 -15 23.5 -28.5t22.5 -19.5l8 -6h221q97 9 160 76.5t63 171.5q0 111 -70 174.5t-180 63.5zM506 123h268q112 0 167.5 82.5t55.5 214.5q0 120 -68.5 196t-207.5 86h-215q-29 -12 -60 -59v-461q14 -21 29 -35.5t23 -18.5z" />
<glyph unicode="C" horiz-adv-x="1304" d="M1151 1028h-47q-6 91 -22 146.5t-52 95t-95 55.5t-153 16q-209 -10 -321.5 -173t-112.5 -439q0 -300 117.5 -466.5t329.5 -166.5q138 0 210 31t177 137h61q-47 -86 -100 -144.5t-113.5 -90t-121.5 -44t-138 -12.5q-172 0 -307.5 56.5t-223 157.5t-133 239t-45.5 303 q0 153 53.5 288.5t148.5 234t233 155.5t299 57q104 0 226.5 -32.5t215.5 -90.5z" />
<glyph unicode="D" horiz-adv-x="1402" d="M61 1434h641q194 0 340.5 -93.5t222.5 -256t76 -369.5q0 -157 -44.5 -289t-126 -226t-201.5 -147t-267 -53h-641v39q2 1 6.5 2t17.5 9t26.5 19t31.5 33t35 50v1130q-26 44 -55.5 72.5t-45.5 34.5l-16 6v39zM500 123h202q92 0 161 43.5t110.5 123.5t61.5 186t20 239 t-20 239.5t-61.5 187.5t-110.5 125t-161 44h-198q-29 -13 -60 -60v-1071q11 -16 25 -30.5t23 -20.5z" />
<glyph unicode="E" horiz-adv-x="1280" d="M61 0v39q2 1 6.5 2t17.5 9t26.5 19t31.5 33t35 50v1130q-26 44 -55.5 72.5t-45.5 34.5l-16 6v39h934l117 -228h-51l-117 105h-440q-29 -13 -60 -60v-362q14 -21 29 -36t23 -19l8 -5h266q48 26 78.5 56t36.5 47l6 16h37v-360h-37q0 2 -1.5 6.5t-9.5 18t-20 27t-35.5 32 t-54.5 35.5h-270q-33 -15 -56 -58v-467q14 -21 29 -35.5t23 -18.5l8 -5h543l122 127h50l-111 -250h-1047z" />
<glyph unicode="F" horiz-adv-x="1153" d="M924 1311h-420q-33 -13 -60 -60v-362q14 -21 29 -36t23 -19l8 -5h246q48 26 78 56t36 47l6 16h37v-360h-37q0 2 -1.5 6.5t-9.5 18t-19.5 27t-35 32t-54.5 35.5h-250q-31 -21 -58 -58v-495q26 -46 55.5 -75t45.5 -35l16 -5v-39h-498v39q2 1 6.5 2t17.5 9t26.5 19t31.5 33 t35 50v1130q-26 44 -55.5 72.5t-45.5 34.5l-16 6v39h914l117 -228h-52z" />
<glyph unicode="G" horiz-adv-x="1413" d="M1352 823v-28q-5 -1 -13 -4.5t-31 -24.5t-42 -55v-518q-21 -36 -45 -65t-46.5 -51t-52.5 -38.5t-53.5 -27.5t-59 -18.5t-59.5 -11t-65 -5.5t-65 -2.5t-70 -0.5q-169 0 -301.5 57t-216.5 158t-127.5 236t-43.5 295q0 158 52.5 296.5t145.5 238t228 157t293 57.5 q104 0 236.5 -31t222.5 -85l-88 -326h-41q-5 90 -23 148.5t-56.5 98t-98.5 56.5t-152 17q-211 0 -321.5 -169.5t-110.5 -457.5q0 -297 107.5 -460t320.5 -163q155 0 223 23v592q-18 34 -40 55t-32 25t-14 4v28h439z" />
<glyph unicode="H" d="M1432 1434v-39q-2 -1 -6.5 -2.5t-18 -9t-27 -19t-32 -34.5t-35.5 -52v-1122q26 -46 56 -75.5t47 -35.5l16 -6v-39h-504v39q2 1 6.5 2.5t18 9t27 19t32 34.5t35.5 52v485q-14 21 -29 35.5t-23 19.5l-8 4h-481q-29 -12 -60 -59v-485q26 -46 56 -75.5t46 -35.5l17 -6v-39 h-504v39q2 1 6.5 2.5t18 9t27 19t32 34.5t35.5 52v1122q-26 46 -56 75.5t-46 35.5l-17 6v39h504v-39q-2 -1 -6.5 -2.5t-18 -9t-27 -19t-32 -34.5t-35.5 -52v-395q14 -21 29 -36t23 -19l8 -5h483q27 13 58 56v399q-26 46 -56 75.5t-47 35.5l-16 6v39h504z" />
<glyph unicode="I" horiz-adv-x="616" d="M442 1286v-1141q24 -44 52.5 -71.5t44.5 -33.5l16 -5v-35h-494v39q2 1 6.5 2t17.5 9t26 19t31 33t34 50v1138q-24 43 -51.5 69.5t-42.5 32.5l-16 5v37h485v-39q-6 -1 -16.5 -5.5t-39.5 -32t-53 -71.5z" />
<glyph unicode="J" horiz-adv-x="729" d="M668 1434v-39q-2 -1 -6.5 -2.5t-18 -9t-27 -19t-32 -34.5t-35.5 -52v-1225q0 -91 -24 -165t-64 -121t-91.5 -77t-105.5 -37.5t-107 3t-96 39.5v51q117 -56 169.5 8t52.5 258v1266q-26 46 -56 75.5t-47 35.5l-16 6v39h504z" />
<glyph unicode="K" horiz-adv-x="1488" d="M659 893l572 -725q9 -10 25 -26t67 -51t104 -52v-39h-684v39q2 1 6.5 2.5t18 9t27 19t32 34.5t35.5 52l-391 534l-25 -22v-512q26 -46 56 -75.5t46 -35.5l17 -6v-39h-504v39q2 1 6.5 2.5t18 9t27 19t32 34.5t35.5 52v1122q-26 46 -56 75.5t-46 35.5l-17 6v39h504v-39 q-2 -1 -6.5 -2.5t-18 -9t-27 -19t-32 -34.5t-35.5 -52v-426l437 426q-26 46 -56 75.5t-47 35.5l-16 6v39h489v-43q-56 -17 -102.5 -44t-64.5 -45l-19 -18z" />
<glyph unicode="L" horiz-adv-x="1253" d="M61 0v39q2 1 6.5 2.5t18 9t27 19t32 34.5t35.5 52v1122q-26 46 -56 75.5t-46 35.5l-17 6v39h504v-39q-2 -1 -6.5 -2.5t-18 -9t-27 -19t-32 -34.5t-35.5 -52v-1096q14 -21 29 -35.5t23 -18.5l8 -5h485l142 129h59l-143 -252h-988z" />
<glyph unicode="M" horiz-adv-x="1742" d="M1681 1434v-39q-2 -1 -6.5 -2.5t-18 -9t-26.5 -19t-31.5 -34.5t-35.5 -52v-1126q26 -46 55.5 -74.5t45.5 -33.5l17 -5v-39h-501v39q6 1 17.5 5.5t42 33t56.5 72.5v1099l-383 -1102q-35 -21 -66 -57.5t-45 -63.5l-14 -26h-53l-422 1249v-1097q26 -46 56 -74.5t47 -33.5 l16 -5v-39h-356v37q2 1 6.5 2t18 9t27 19.5t32 33.5t35.5 51l-15 1126q-26 46 -56 75.5t-46 35.5l-17 6v39h486l338 -971l348 971h448z" />
<glyph unicode="N" horiz-adv-x="1441" d="M1380 1436v-39q-2 -1 -6.5 -2.5t-18 -9t-26.5 -19t-31.5 -34.5t-35.5 -52v-1280h-97l-862 1139v-983q26 -46 56 -75.5t47 -35.5l16 -6v-39h-361v39q2 1 6.5 2.5t18 9t27 19t32 34.5t35.5 52v1128l-78 98v52h328l709 -912v758q-26 46 -56 75.5t-47 35.5l-16 6v39h360z" />
<glyph unicode="O" d="M754 -27q147 0 273 55.5t215 153t139.5 234.5t50.5 295q0 216 -86 387.5t-241 267.5t-351 96q-201 0 -359.5 -96t-246 -267t-87.5 -388q0 -158 51.5 -295t142 -234.5t219.5 -153t280 -55.5zM754 1339q188 0 289.5 -172t101.5 -456q0 -177 -43 -314t-133 -219t-215 -82 q-128 0 -221.5 82t-139 219.5t-45.5 313.5q0 283 106.5 455.5t299.5 172.5z" />
<glyph unicode="P" horiz-adv-x="1212" d="M61 1434h631q210 0 334.5 -112t124.5 -296q0 -216 -139.5 -330t-399.5 -114h-110q-31 -21 -56 -58v-368q26 -46 56 -75.5t46 -35.5l17 -6v-39h-504v39q2 1 6.5 2.5t18 9t27 19t32 34.5t35.5 52v1122q-26 46 -56 75.5t-46 35.5l-17 6v39zM506 705h55q68 0 115.5 6t82 23 t54.5 39t32 61t15.5 82.5t3.5 109.5q0 164 -54 224.5t-206 60.5h-98q-29 -13 -60 -60v-487q14 -21 29 -35.5t23 -18.5z" />
<glyph unicode="Q" d="M1038 -283l-321 224q-2 1 -14.5 11t-27.5 17.5t-38 12.5q-258 41 -417 241.5t-159 487.5q0 217 87.5 388t246 267t359.5 96q196 0 351 -96t241 -267.5t86 -387.5q0 -204 -80 -368t-225.5 -261t-331.5 -107l24 -2l223 -36l295 -187v-33h-299zM348 711q0 -176 45.5 -313.5 t139 -219.5t221.5 -82q125 0 215 82t133 219t43 314q0 284 -101.5 456t-289.5 172q-193 0 -299.5 -172.5t-106.5 -455.5z" />
<glyph unicode="R" horiz-adv-x="1423" d="M942 557l213 -367q45 -52 97 -90t81 -50l29 -11v-39h-418l-358 631h-84q-31 -21 -56 -58v-417q26 -46 56 -75.5t46 -35.5l17 -6v-39h-504v39q2 1 6.5 2.5t18 9t27 19t32 34.5t35.5 52v1122q-26 46 -56 75.5t-46 35.5l-17 6v39h666q204 0 307 -109t103 -289 q0 -167 -83.5 -270t-244.5 -123zM506 754h106q75 0 122.5 16.5t72.5 54.5t34 86t9 125q0 84 -8.5 132t-34.5 83t-72 47.5t-123 12.5h-110q-31 -21 -56 -58v-440q14 -21 29 -35.5t23 -19.5z" />
<glyph unicode="S" horiz-adv-x="1038" d="M451 950l198 -78q144 -58 236 -176t92 -276q0 -206 -138.5 -328.5t-346.5 -122.5q-140 0 -208.5 21.5t-140.5 77.5l-32 -68h-50v369h48q29 -74 65 -127t70.5 -81.5t79.5 -44.5t81 -20t87 -4q72 0 138.5 25t112 78.5t45.5 123.5q0 60 -15.5 103.5t-51 76t-74 53.5 t-102.5 48l-154 66q-159 68 -242 168.5t-83 242.5q0 170 129 278.5t323 108.5q99 0 212 -24t183 -60l-73 -282h-47q-4 139 -73 191t-202 52q-109 0 -182.5 -47.5t-73.5 -128.5q0 -26 3 -47.5t12 -39.5t16 -31t24.5 -26.5t26.5 -20.5t33 -18t34.5 -15.5t39.5 -16.5z" />
<glyph unicode="T" horiz-adv-x="1447" d="M1204 1313h-286q-29 -13 -60 -60v-1097q26 -46 56 -75.5t46 -35.5l17 -6v-39h-504v39q2 1 6.5 2.5t18 9t27 19t32 34.5t35.5 52v1097q-14 21 -29 36t-23 19l-8 5h-286l-125 -121h-60l134 244h1062l129 -244h-59z" />
<glyph unicode="U" horiz-adv-x="1445" d="M1384 1434v-39q-2 -1 -6.5 -2.5t-18 -9t-26.5 -19t-31.5 -34.5t-35.5 -52v-715q0 -81 -4.5 -143.5t-17.5 -126t-34.5 -109.5t-57.5 -87t-85 -66t-118 -39.5t-156 -14.5q-145 0 -251.5 25t-175.5 71.5t-111 120.5t-58.5 162t-16.5 207v715q-26 46 -56 75.5t-46 35.5l-17 6 v39h502v-39q-2 -1 -6.5 -2t-17.5 -9t-26.5 -19t-31.5 -33t-35 -50v-719q0 -54 3 -98t12 -95.5t24 -91.5t41.5 -78.5t62.5 -63.5t88 -40.5t116 -15.5q55 0 100.5 8.5t79.5 22.5t60 38t44 48t30.5 60.5t19.5 67t10.5 75.5t4.5 79t1 84v715q-26 46 -56 75.5t-47 35.5l-16 6v39 h360z" />
<glyph unicode="V" horiz-adv-x="1480" d="M1419 1434v-39q-2 -1 -6.5 -2.5t-18 -9t-27 -19t-32 -34.5t-35.5 -52l-434 -1131q-3 -2 -9.5 -5t-24 -15.5t-33.5 -27.5t-35 -41.5t-33 -57.5h-55l-496 1278q-26 46 -56 75.5t-46 35.5l-17 6v39h514v-39q-2 -1 -6.5 -2.5t-18 -9t-26.5 -19t-31.5 -34.5t-35.5 -52 l368 -891l349 891l-9 14q-25 41 -52.5 66.5t-42.5 31.5l-15 5v39h364z" />
<glyph unicode="W" horiz-adv-x="2179" d="M2118 1434v-39q-6 0 -20 -6t-44 -34.5t-55 -74.5l-348 -1133q-4 0 -28 -16t-59.5 -52.5t-56.5 -78.5h-67l-336 1008l-279 -865q-4 -2 -10 -6t-24 -18t-33.5 -29.5t-34 -40t-29.5 -49.5h-71l-443 1278q-25 46 -55 75.5t-44 35.5t-20 6v39h543v-39q-6 0 -20 -6t-44 -35.5 t-55 -75.5l295 -866l295 909q9 5 23 13.5t47 38t53 61.5h64l342 -1018l270 862q-25 46 -55 75.5t-44 35.5t-20 6v39h363z" />
<glyph unicode="X" horiz-adv-x="1460" d="M852 786l432 -636q25 -35 54 -62.5t45 -37.5l16 -11v-39h-594v39q2 1 6.5 2.5t18 9t27 19t32 34.5t35.5 52l-267 419l-303 -425q25 -44 55 -71.5t47 -33.5l17 -6v-39h-395v39q64 37 115 111l393 528l-408 600q-21 35 -50 64t-48 41l-19 12v39h586v-39q-2 -1 -6.5 -2.5 t-18 -9t-27 -19t-32 -34.5t-35.5 -52l256 -383l275 385q-26 45 -56 74t-47 35l-16 6v39h389v-39q-7 -4 -19.5 -11.5t-44.5 -38t-57 -67.5z" />
<glyph unicode="Y" horiz-adv-x="1292" d="M1231 1434v-39q-2 -1 -6.5 -2.5t-18 -9t-27 -19t-32 -34.5t-35.5 -52l-328 -672v-450q26 -46 56 -75.5t46 -35.5l17 -6v-39h-504v39q2 1 6.5 2.5t18 9t27 19t32 34.5t35.5 52v450l-338 672q-26 46 -56 75.5t-46 35.5l-17 6v39h560v-39q-2 -1 -6.5 -2.5t-18 -9t-27 -19 t-32 -34.5t-35.5 -52l233 -467l246 467q-26 46 -56 75.5t-47 35.5l-16 6v39h369z" />
<glyph unicode="Z" horiz-adv-x="1241" d="M217 1208h-67l114 226h916v-50l-731 -1261h528l123 131h67l-145 -254h-961v45l754 1266h-489z" />
<glyph unicode="[" horiz-adv-x="745" d="M705 1470h-256q-29 -12 -60 -59v-1382q14 -21 29 -36t23 -19l8 -5h256v-102h-521v1706h521v-103z" />
<glyph unicode="\" horiz-adv-x="671" d="M100 1434l592 -1393v-41h-123l-589 1399v35h120z" />
<glyph unicode="]" horiz-adv-x="745" d="M41 -31h256q28 13 59 60v1382q-14 21 -28.5 35.5t-22.5 19.5l-8 4h-256v103h520v-1706h-520v102z" />
<glyph unicode="^" horiz-adv-x="845" d="M348 1427h148l288 -469h-143l-217 355l-221 -355h-142z" />
<glyph unicode="_" horiz-adv-x="1501" d="M1378 -150h-1228l-27 -122h1229z" />
<glyph unicode="`" horiz-adv-x="284" d="M-41 1518l367 -175v-63l-367 59v179z" />
<glyph unicode="a" horiz-adv-x="1212" d="M1032 940v-784q26 -46 56 -75.5t46 -35.5l17 -6v-39h-313l-52 109q-35 -67 -97.5 -101.5t-143.5 -34.5q-209 0 -346.5 146.5t-137.5 363.5q0 212 136 349t348 137q95 0 165.5 -28t125.5 -93q0 -2 19 6t54 31t66 55h57zM545 76q70 0 122 61.5t75.5 152t23.5 193.5 q0 101 -23 186t-74.5 141t-123.5 56q-70 0 -120.5 -56t-73.5 -141t-23 -186q0 -103 22.5 -193t73.5 -152t121 -62z" />
<glyph unicode="b" horiz-adv-x="1239" d="M434 1599v-759q39 56 119.5 90.5t165.5 34.5q233 0 346 -121t113 -346q0 -113 -26 -206t-79.5 -165.5t-143.5 -113t-210 -40.5q-82 0 -159.5 37.5t-125.5 98.5l-45 -109h-328v39q3 1 8 2.5t20.5 9t30 19t34 34.5t36.5 52v1185q-26 46 -55.5 75.5t-46.5 35.5l-16 6v39 q23 3 59.5 10t120 33.5t131.5 58.5h51zM715 76q57 0 99.5 37t66.5 100t35.5 134.5t11.5 150.5q0 103 -21 181t-71.5 127.5t-126.5 49.5q-118 0 -188 -102.5t-70 -255.5q0 -182 72.5 -302t191.5 -120z" />
<glyph unicode="c" horiz-adv-x="989" d="M928 180h-70q-56 -50 -105 -74.5t-75 -28t-72 -3.5q-136 0 -207 106.5t-71 286.5q0 183 68 292t210 109q49 0 87.5 -16.5t62 -42t39.5 -61t23.5 -67.5t10.5 -69h37l47 265q-176 94 -307 94q-108 0 -198.5 -26.5t-154 -73.5t-107.5 -111t-64.5 -137.5t-20.5 -155.5 q0 -102 32 -189t95 -156.5t167 -109t239 -39.5q217 0 334 207z" />
<glyph unicode="d" horiz-adv-x="1251" d="M1073 1599v-1447q26 -44 55.5 -72.5t45.5 -34.5l16 -6v-39h-322l-41 113q-37 -69 -106.5 -104.5t-155.5 -35.5q-165 0 -280 66.5t-169.5 180t-54.5 265.5q0 233 128 355.5t374 122.5q189 0 264 -115v493q-26 46 -55.5 75.5t-45.5 35.5l-17 6v41q22 3 58.5 9.5t120.5 32.5 t134 58h51zM559 76q72 0 129.5 63.5t86 155.5t28.5 190q0 156 -67 265.5t-177 109.5q-78 0 -131.5 -53.5t-76.5 -135.5t-23 -186q0 -101 23 -191t77 -154t131 -64z" />
<glyph unicode="e" horiz-adv-x="989" d="M928 516l-617 -121q14 -152 84.5 -237.5t192.5 -81.5q3 2 14.5 -0.5t40.5 3t59.5 14t73 32t80.5 57.5h62q-63 -111 -141.5 -160t-182.5 -49q-80 0 -149.5 13t-119 35t-91.5 52t-67.5 64t-47.5 70.5t-31 72t-17.5 68t-8 59t-2 44.5t0.5 25v2v1v4q0 220 125.5 354 t327.5 134q101 0 182.5 -36t130.5 -95.5t75 -131.5t26 -149v-43zM307 502l391 71q-6 68 -17.5 119.5t-32.5 92t-54 62t-78 21.5q-209 0 -209 -366z" />
<glyph unicode="f" horiz-adv-x="856" d="M180 891v254q3 186 141 297.5t398 111.5h76l-43 -233h-35q-12 75 -42 107t-106 18q-16 -3 -31.5 -10t-37 -26.5t-37 -49t-26.5 -82.5t-11 -121v-237l211 26l-10 -102l-201 -29v-659q26 -46 56 -75.5t46 -35.5l17 -6v-39h-477v39q6 1 17 6t40.5 31.5t54.5 68.5v576 q-26 46 -56 75.5t-46 35.5l-17 6v39z" />
<glyph unicode="g" horiz-adv-x="1165" d="M1065 938l-88 -217q20 -30 26.5 -68t6.5 -100q0 -103 -43 -191t-129.5 -146.5t-200.5 -65.5q-36 -7 -95 -40.5t-100 -63.5l-41 -30q27 -22 62 -37.5t125 -41.5q216 -63 276 -86q166 -64 215 -159q25 -48 25 -110q0 -66 -20.5 -115.5t-63.5 -78t-83 -46t-105.5 -24.5 t-102.5 -8.5t-102 -1.5q-210 0 -334 36t-178 108.5t-54 193.5q0 40 13 71t41 55t49.5 37.5t58.5 32.5q-11 5 -28 14.5t-57 49t-64 88.5l125 94l196 62q-158 28 -234.5 136.5t-76.5 266.5q0 191 116 305.5t351 114.5q67 0 125 -11t93 -26.5t60 -31.5t35 -27l10 -11l134 72h57 zM350 553q0 -62 10.5 -116t33 -100t63 -72.5t94.5 -26.5q55 0 95.5 26.5t62.5 72.5t32.5 99.5t10.5 116.5t-10.5 117.5t-32.5 100.5t-62.5 72.5t-95.5 26.5q-54 0 -94.5 -26.5t-63 -72.5t-33 -100.5t-10.5 -117.5zM635 -590q59 0 99 3.5t79 13.5t58.5 31.5t19.5 54.5 q0 16 -7 31t-23.5 29t-31 25t-43.5 24t-46.5 20.5t-54 20t-52 17.5t-53.5 17q-41 13 -114.5 34t-109.5 33q-32 -30 -44.5 -54t-12.5 -64q0 -58 19.5 -101.5t50 -68.5t76 -40.5t90.5 -20.5t100 -5z" />
<glyph unicode="h" horiz-adv-x="1284" d="M1104 627v-471q26 -46 56 -75.5t46 -35.5l17 -6v-39h-482v39q2 1 6.5 2t17.5 9t26.5 19t31.5 33t35 50v477q0 50 -14.5 99t-51 86.5t-87.5 37.5q-56 0 -109 -24t-88 -58.5t-55 -59t-27 -38.5v-516q26 -46 56 -75.5t46 -35.5l17 -6v-39h-484v39q2 1 6.5 2.5t18 9t27 19 t32 34.5t35.5 52v1185q-26 46 -56 75.5t-46 35.5l-17 6v39q24 3 62 9t124.5 30.5t135.5 56.5h47l-8 -786q7 14 27.5 35.5t60 51.5t106 50.5t144.5 20.5q152 0 248 -97.5t96 -240.5z" />
<glyph unicode="i" horiz-adv-x="606" d="M305 1120q-58 0 -99.5 43t-41.5 103t41.5 102.5t99.5 42.5q57 0 98 -42.5t41 -102.5t-41 -103t-98 -43zM426 938v-782q26 -46 56 -75.5t46 -35.5l17 -6v-39h-484v39q2 1 6.5 2.5t18 9t27 19t32 34.5t35.5 52v530q-26 46 -56 75.5t-46 35.5l-17 6v39h2q9 1 23.5 2t56 8 t78.5 16.5t80 28t70 41.5h55z" />
<glyph unicode="j" horiz-adv-x="651" d="M432 1120q-58 0 -99.5 43t-41.5 103t41.5 102.5t99.5 42.5q57 0 98 -42.5t41 -102.5t-41 -103t-98 -43zM207 803v39q66 10 163.5 36.5t145.5 59.5h55v-1047q0 -101 -29.5 -182t-81 -128.5t-116 -67.5t-138.5 -5.5t-145 62.5v51q115 -51 190 23t75 243v799 q-26 46 -56 75.5t-46 35.5z" />
<glyph unicode="k" horiz-adv-x="1318" d="M633 614l463 -495q37 -34 77.5 -51.5t62.5 -17.5l21 -1v-49h-399l-41 51l-358 393l-33 -32v-256q26 -46 56 -75.5t46 -35.5l17 -6v-39h-484v39q2 1 6.5 2.5t18 9t27 19t32 34.5t35.5 52v1187q-26 46 -56 75.5t-46 35.5l-17 6v39q20 2 53.5 7.5t117 32t143.5 63.5h51 v-1027l246 205q-26 46 -56 75.5t-46 35.5l-17 6v39h510v-43q-6 -1 -16 -2t-39 -8.5t-55.5 -18t-59.5 -31.5t-57 -47z" />
<glyph unicode="l" horiz-adv-x="606" d="M426 1593v-1437q26 -46 56 -75.5t46 -35.5l17 -6v-39h-484v39q2 1 6.5 2.5t18 9t27 19t32 34.5t35.5 52v1185q-26 46 -56 75.5t-46 35.5l-17 6v39q24 3 62 9t124.5 30.5t135.5 56.5h43z" />
<glyph unicode="m" horiz-adv-x="1908" d="M1729 627v-471q26 -46 55.5 -75.5t45.5 -35.5l17 -6v-39h-483v39q2 1 6.5 2.5t18 9t27 19t32 34.5t35.5 52v473q0 50 -15 99t-51.5 86.5t-87.5 37.5q-45 0 -87 -18.5t-70.5 -44.5t-50.5 -52t-32 -45l-10 -18v-518q26 -46 56 -75.5t47 -35.5l16 -6v-39h-483v39 q2 1 6.5 2.5t18 9t27 19t32 34.5t35.5 52v473q0 50 -15 99t-51.5 86.5t-87.5 37.5q-46 0 -88 -17.5t-68 -38.5t-50.5 -51.5t-32 -44t-15.5 -28.5v-516q26 -46 56 -75.5t46 -35.5l17 -6v-39h-484v39q2 1 6.5 2.5t18 9t27 19t32 34.5t35.5 52v528q-26 46 -56 75.5t-46 35.5 l-17 6v39q15 3 40.5 9.5t91 31.5t114.5 57h55l60 -131q7 12 15.5 25.5t35 39.5t58.5 44.5t86.5 33.5t117.5 15q98 0 177 -48t124 -126q7 12 21.5 29.5t45.5 44t68.5 48t94 37t118.5 15.5q152 0 248.5 -97.5t96.5 -240.5z" />
<glyph unicode="n" horiz-adv-x="1284" d="M1104 627v-471q26 -46 56 -75.5t46 -35.5l17 -6v-39h-482v39q2 1 6.5 2t17.5 9t26.5 19t31.5 33t35 50v477q0 50 -14.5 99t-51 86.5t-87.5 37.5q-56 0 -109 -24t-88 -58.5t-55 -59t-27 -38.5v-516q26 -46 56 -75.5t46 -35.5l17 -6v-39h-484v39q2 1 6.5 2.5t18 9t27 19 t32 34.5t35.5 52v530q-26 46 -56 75.5t-46 35.5l-17 6v39q16 3 43 9t94.5 30.5t116.5 56.5h47l60 -131q7 14 27.5 35.5t60 51.5t106 50.5t144.5 20.5q152 0 248 -97.5t96 -240.5z" />
<glyph unicode="o" horiz-adv-x="1060" d="M537 -25q128 0 238.5 65t177.5 182t67 259q0 140 -67 253t-177 175t-239 62q-137 0 -250 -62t-179.5 -174.5t-66.5 -253.5q0 -107 39 -201.5t105.5 -161t158 -105t193.5 -38.5zM535 868q74 0 124.5 -56t72.5 -141t22 -190q0 -76 -12 -145t-36.5 -128t-67 -94.5 t-97.5 -35.5q-74 0 -129 61.5t-80 151t-25 190.5q0 104 23.5 189.5t76.5 141.5t128 56z" />
<glyph unicode="p" horiz-adv-x="1261" d="M365 940l47 -115q39 71 112 109.5t166 38.5q255 0 382.5 -134.5t127.5 -365.5q0 -232 -133 -366t-377 -134q-87 0 -148 35t-116 105v-691q26 -44 55.5 -72t45.5 -34l16 -6v-39h-482v39q2 1 6.5 2.5t18 9t27 19t32 34.5t35.5 52v1259q-26 46 -56 75.5t-46 35.5l-17 6v39 q17 3 44 9.5t94.5 31.5t113.5 57h52zM700 76q74 0 131 58t85 147t28 192q0 98 -28 187t-85 149.5t-131 60.5q-78 0 -140 -60t-93 -150t-31 -187q0 -102 31 -191.5t92.5 -147.5t140.5 -58z" />
<glyph unicode="q" horiz-adv-x="1249" d="M1069 934v-1507q26 -46 56 -75.5t47 -35.5l16 -6v-39h-483v39q2 1 6.5 2.5t18 9t26.5 19t31.5 34.5t35.5 52v673q-41 -56 -110.5 -91.5t-149.5 -35.5q-134 0 -248.5 60.5t-184 174t-69.5 255.5q0 130 40 228t111 156t159 86t192 28q96 0 174.5 -38t112.5 -108 q5 1 12.5 3.5t29.5 13t42 22.5t43.5 33.5t38.5 46.5h53zM559 76q80 0 137.5 55.5t84 141.5t26.5 190q0 108 -27 196t-85 143.5t-138 55.5q-69 0 -122 -55t-80 -144t-27 -196q0 -158 64 -272.5t167 -114.5z" />
<glyph unicode="r" horiz-adv-x="755" d="M377 946l47 -162q2 1 26.5 23.5t51 43.5t79.5 47t113 42l-43 -172q-33 6 -66.5 -2.5t-60 -28t-46 -38t-36 -37.5t-18.5 -21v-485q26 -46 56 -75.5t46 -35.5l17 -6v-39h-482v39q2 1 6.5 2t17.5 9t26.5 19t31.5 33t35 50v538q-26 44 -55.5 72.5t-45.5 34.5l-16 6v39 q21 4 53.5 11.5t105 34.5t110.5 58h47z" />
<glyph unicode="s" horiz-adv-x="827" d="M393 627l129 -39q123 -36 183.5 -109.5t60.5 -218.5q0 -138 -96 -213.5t-252 -75.5q-45 0 -82.5 3.5t-58.5 6.5t-49.5 14t-35 14t-35.5 19.5t-32 18.5l-23 -47h-41v311h37q14 -65 48 -112.5t79.5 -74t93.5 -38.5t99 -12q44 0 84.5 11.5t70 38.5t29.5 66q0 22 -6.5 40.5 t-22.5 33.5t-27.5 24.5t-36 20t-33 13.5t-32.5 12l-116 41q-112 39 -184 121.5t-72 179.5q0 58 20 109.5t61 94t110.5 67t160.5 24.5q68 0 141.5 -21t128.5 -53l-39 -186h-34q-15 55 -30.5 86t-40.5 47t-51.5 20t-74.5 4q-89 0 -134.5 -35.5t-45.5 -80.5q0 -77 149 -125z " />
<glyph unicode="t" horiz-adv-x="800" d="M682 160h57q-65 -189 -258 -189q-301 0 -301 275v504q-26 46 -56 75t-46 35l-17 6v39q2 3 19.5 31t45.5 72.5t64 104t85 142t98 168.5h53v-493l160 12l-8 -102l-152 -15v-577q0 -77 33.5 -122.5t91.5 -45.5q36 0 74.5 20t56.5 60z" />
<glyph unicode="u" horiz-adv-x="1290" d="M1110 942v-786q26 -46 56 -75.5t46 -35.5l17 -6v-39h-320l-41 115q-12 -13 -35 -31.5t-67.5 -47t-109 -47t-134.5 -18.5q-42 0 -87.5 11t-91 34.5t-82 55.5t-59 79.5t-22.5 102.5v434q-26 46 -56 75.5t-46 35.5l-17 6v39q24 3 61.5 10t121 33t127.5 57h55v-700 q0 -70 48 -105t120 -35q39 0 77.5 12t70 32t54 37.5t44 37.5t24.5 23v442q-26 46 -56 75.5t-46 35.5l-17 6v39q14 0 63.5 7t128.5 31.5t120 59.5h53z" />
<glyph unicode="v" horiz-adv-x="1116" d="M1055 936v-39q-7 -1 -18 -6t-41.5 -32.5t-55.5 -70.5l-311 -788h-154l-305 799q-24 39 -51.5 63.5t-42.5 29.5l-15 5v39h500v-39q-6 -1 -17 -6t-40.5 -31.5t-54.5 -68.5l-7 -11l181 -495l204 495q-26 46 -55.5 75.5t-45.5 35.5l-17 6v39h346z" />
<glyph unicode="w" horiz-adv-x="1660" d="M1602 940v-39q-2 -1 -6.5 -2t-18 -9t-27 -19.5t-32 -33.5t-35.5 -51l-260 -786h-195l-199 567l-190 -567h-201l-258 784q-26 46 -56 75.5t-46 35.5l-17 6v39h496v-39q-2 -1 -6.5 -2.5t-18 -9t-27 -19t-32 -34.5t-35.5 -52l174 -528l193 553q59 55 100 131h49l244 -682 l176 526q-26 46 -56 75.5t-46 35.5l-17 6v39h347z" />
<glyph unicode="x" horiz-adv-x="1259" d="M731 545l346 -400q23 -28 53 -55t49 -40l19 -13v-37h-586v39q2 1 6.5 2.5t18 9t27 19t32 34.5t35.5 52l-172 213l-188 -213q26 -46 55.5 -75.5t45.5 -35.5l17 -6v-39h-401v39q10 5 25.5 15t52 40.5t59.5 61.5l260 286l-297 340q-24 36 -55.5 65t-51.5 41l-20 11v39h568 v-39q-2 -1 -6.5 -2.5t-18 -9t-27 -19t-32 -34.5t-35.5 -52l156 -166l170 168q-24 41 -54 69.5t-48 36.5l-17 9v39h420v-39q-11 -4 -28.5 -12.5t-59.5 -38.5t-70 -66z" />
<glyph unicode="y" horiz-adv-x="1198" d="M1137 940v-39q-2 -1 -6.5 -2.5t-18 -9t-27 -19t-32 -34.5t-35.5 -52l-488 -1110q-36 -82 -96.5 -138.5t-136 -72.5t-154.5 31v55q95 -31 172.5 18.5t112.5 133.5l137 299l-385 784q-26 46 -56 75.5t-46 35.5l-17 6v39h510v-39q-2 -1 -6.5 -2.5t-18 -9t-26.5 -19 t-31.5 -34.5t-35.5 -52l237 -473l219 473v2q-26 45 -55 74t-45 35l-16 6v39h344z" />
<glyph unicode="z" horiz-adv-x="1024" d="M150 764h-44l121 174h684v-45l-497 -791h389l119 131h41l-111 -233h-791v43l525 793h-318z" />
<glyph unicode="{" horiz-adv-x="704" d="M684 1561v-56q-35 0 -68 -5.5t-68.5 -21t-61.5 -39.5t-43 -66t-17 -97v-342q0 -4 1.5 -36.5t0 -53t-5.5 -49t-16 -46t-31 -22.5l-82 -12l82 -13q16 -4 27 -13t16.5 -19t7.5 -29t2 -32t-1 -38.5t-1 -40.5v-366q0 -68 24.5 -115.5t66 -70t81.5 -31t86 -8.5v-62 q-60 0 -109.5 3.5t-105 13t-97.5 29t-77 47.5t-53.5 71.5t-18.5 99.5v342q0 91 -46 150t-116 59v58q70 0 116 54.5t46 141.5v352q0 66 28 115t71.5 76.5t107.5 44.5t122.5 22t131.5 5z" />
<glyph unicode="|" horiz-adv-x="491" d="M307 0h-123v1434h123v-1434z" />
<glyph unicode="}" horiz-adv-x="665" d="M20 1505v56q50 0 91.5 -2.5t86 -9.5t79 -19t66.5 -32.5t53 -47.5t33.5 -65.5t12.5 -86.5v-352q0 -87 46 -141.5t116 -54.5v-58q-70 0 -116 -59t-46 -150v-342q0 -67 -24 -116t-61.5 -77t-95.5 -44.5t-113.5 -21.5t-127.5 -5v62q46 0 86 8.5t82 31t66.5 70t24.5 115.5v366 q0 15 -1 40.5t-1 38.5t2 32t7.5 29t16.5 19t27 13l43 13l-43 12q-19 5 -31 22.5t-16 46t-5.5 49t0 53t1.5 36.5v342q0 55 -17 97t-43 66t-62 39.5t-69 21t-68 5.5z" />
<glyph unicode="~" horiz-adv-x="997" d="M823 662h51q-1 -5 -2.5 -14t-9 -35t-17.5 -49t-29.5 -52t-43.5 -49.5t-61 -34.5t-80 -14q-47 0 -89.5 19t-69 41.5t-62.5 41.5t-70 19q-37 0 -68 -13.5t-48.5 -32t-29.5 -37.5t-16 -32l-4 -14h-51q1 10 4.5 26.5t21 58.5t41.5 74.5t71.5 59t107.5 26.5q44 0 84 -18.5 t66 -41t63 -41t75 -18.5q37 0 68 13.5t48.5 32.5t29.5 38t16 32z" />
<glyph unicode="&#xa1;" horiz-adv-x="604" d="M440 1284q0 63 -41.5 106.5t-101.5 43.5q-52 0 -92.5 -44t-40.5 -106q0 -55 41 -97t92 -42q59 0 101 41.5t42 97.5zM391 971h-178l-43 -226v-776h266v776z" />
<glyph unicode="&#xa2;" horiz-adv-x="921" d="M819 160h41q-54 -102 -121.5 -145t-158.5 -48v-180h-123v184q-190 26 -293 161.5t-103 338.5q0 187 108.5 323.5t287.5 170.5v133h123v-125q67 -3 142 -25.5t134 -58.5l-55 -215h-33q-9 116 -47 163.5t-141 51.5v-842q82 1 126.5 22.5t112.5 90.5zM457 66v802 q-96 -38 -147.5 -141t-51.5 -256q0 -159 52 -264.5t147 -140.5z" />
<glyph unicode="&#xa3;" horiz-adv-x="1183" d="M61 -2v39q2 1 6.5 2.5t18 9t27 19t32 34.5t35.5 52q70 252 80 473h-117l27 123h90q3 125 20 227.5t55 195t96 155t148 99.5t207 37q81 0 170.5 -29.5t161.5 -93.5l-80 -264h-39q0 70 -13 120t-32 77.5t-50 43t-57 19.5t-63 4q-59 0 -105 -15.5t-78.5 -41.5t-56 -69 t-37.5 -88.5t-22 -110.5t-11 -125t-3 -141h307l-26 -123h-279q0 -186 -47 -379h514l135 135h47l-157 -383h-785v-2h-119z" />
<glyph unicode="&#xa4;" horiz-adv-x="720" d="M61 555l89 86q-54 65 -54 162q0 51 12.5 87t41.5 73l-89 90l52 49l88 -90q64 53 161 53q93 0 160 -53l88 90l47 -51l-86 -88q52 -66 52 -162q0 -91 -52 -160l88 -88l-51 -49l-88 86q-60 -49 -160 -49q-96 0 -161 49l-88 -88zM199 801q0 -67 46.5 -112.5t114.5 -45.5 t114 45.5t46 112.5q0 69 -46 115.5t-114 46.5t-114.5 -46.5t-46.5 -115.5z" />
<glyph unicode="&#xa5;" horiz-adv-x="1282" d="M1221 1434v-39q-2 -1 -6.5 -2.5t-18 -9t-27 -19t-32 -34.5t-35.5 -52l-242 -496h191l-27 -123h-223l-27 -53v-53h227l-26 -123h-201v-274q26 -46 56 -75.5t46 -35.5l17 -6v-39h-504v39q2 1 6.5 2.5t18 9t27 19t32 34.5t35.5 52v274h-291l27 123h264v53l-27 53h-215 l27 123h129l-244 502q-26 44 -55.5 71.5t-45.5 33.5l-16 6v39h529v-39q-2 -1 -6.5 -2.5t-18 -9t-27 -19t-32 -34.5t-35.5 -52l244 -492l256 492q-26 46 -56 75.5t-47 35.5l-16 6v39h369z" />
<glyph unicode="&#xa6;" horiz-adv-x="491" d="M307 874h-123v560h123v-560zM307 0h-123v559h123v-559z" />
<glyph unicode="&#xa7;" horiz-adv-x="1163" d="M483 948l228 -78q162 -64 264 -195t102 -298q0 -139 -45 -203q70 -99 70 -219q0 -78 -28.5 -142t-78.5 -109t-119.5 -76t-151 -45.5t-173.5 -14.5q-157 0 -240.5 27t-167.5 92l-43 -78h-39v366h39q36 -77 77.5 -130t80.5 -82.5t91.5 -45.5t95 -20t106.5 -4 q143 0 235.5 46t92.5 132q0 33 -6.5 60.5t-14.5 47t-27.5 37t-34 28.5t-46 24t-51.5 20t-61 21q-16 5 -24 8l-182 61q-91 38 -155 75t-115 82.5t-76 101t-25 122.5q0 156 123 240q-123 110 -123 256q0 118 68 212.5t183 145.5t255 51q98 0 213.5 -27t206.5 -63l-82 -280h-41 q-12 136 -83 190.5t-214 54.5q-58 0 -106 -9.5t-88.5 -30t-63 -58.5t-22.5 -90q0 -49 13 -83t45 -56.5t53 -32t68 -25.5q11 -4 17 -6zM510 461l223 -80q78 -25 144 -68q-5 50 -25.5 91t-57.5 74t-79 58t-101 52l-182 80q-61 20 -133 55q-12 -35 -12 -59q0 -26 5.5 -47.5 t12 -37t22.5 -30.5t26 -23t35 -19t36.5 -15.5t42.5 -15.5t43 -15z" />
<glyph unicode="&#xa8;" horiz-adv-x="462" d="M12 1200q-47 0 -80.5 34t-33.5 83q0 48 33.5 82.5t80.5 34.5q49 0 83 -34.5t34 -82.5q0 -49 -33.5 -83t-83.5 -34zM449 1200q-48 0 -82.5 34t-34.5 83q0 47 35 82t82 35t81.5 -35t34.5 -82q0 -49 -34 -83t-82 -34z" />
<glyph unicode="&#xa9;" horiz-adv-x="1658" d="M82 721q0 153 59 292.5t159 240t238 160t291 59.5t291.5 -59.5t238.5 -160t159 -240t59 -292.5q0 -202 -100 -373.5t-272.5 -272t-375.5 -100.5t-375.5 100.5t-272 272t-99.5 373.5zM205 721q0 -180 79.5 -322.5t222 -221.5t322.5 -79q135 0 251.5 46.5t198.5 128 t128.5 197.5t46.5 251q0 274 -176 451.5t-449 177.5t-448.5 -177.5t-175.5 -451.5zM1053 903h-29q-8 110 -47.5 150.5t-151.5 40.5q-129 -6 -198.5 -105.5t-69.5 -269.5q0 -186 72.5 -288.5t201.5 -102.5q88 0 132.5 19t107.5 85h37q-55 -102 -124.5 -141t-166.5 -39 q-209 0 -321.5 128.5t-112.5 338.5q0 193 125.5 321.5t322.5 128.5q67 0 142.5 -19.5t132.5 -55.5z" />
<glyph unicode="&#xab;" horiz-adv-x="757" d="M338 180l-256 301v43l258 297h55l-112 -319l112 -322h-57zM598 180l-256 301v43l258 297h55l-112 -319l112 -322h-57z" />
<glyph unicode="&#xac;" horiz-adv-x="817" d="M571 397v80q-31 46 -55 58h-393v122h571v-260h-123z" />
<glyph unicode="&#xad;" horiz-adv-x="907" d="M846 596h-758l-27 -123h758z" />
<glyph unicode="&#xae;" horiz-adv-x="1658" d="M829 1473q153 0 291.5 -59.5t238.5 -160t159 -240t59 -292.5q0 -202 -100 -373.5t-272.5 -272t-375.5 -100.5t-375.5 100.5t-272 272t-99.5 373.5q0 153 59 292.5t159 240t238 160t291 59.5zM829 98q135 0 251.5 46.5t198.5 128t128.5 197.5t46.5 251q0 274 -176 451.5 t-449 177.5t-448.5 -177.5t-175.5 -451.5q0 -180 79.5 -322.5t222 -221.5t322.5 -79zM983 629l129 -217q26 -31 57 -54.5t49 -31.5l17 -7v-24h-250l-213 379h-51q-17 -11 -31 -35v-248q16 -28 33.5 -46t26.5 -22l10 -4v-24h-301v24q4 1 11 4t25.5 21.5t34.5 46.5v668 q-16 28 -33.5 45.5t-27.5 20.5l-10 3v23h397q123 0 184.5 -65t61.5 -173q0 -99 -50.5 -160t-148.5 -73zM725 745h63q85 0 114.5 39t29.5 129q0 97 -28 130.5t-116 33.5h-67q-19 -12 -31 -33v-264q7 -12 16 -21t14 -11z" />
<glyph unicode="&#xaf;" horiz-adv-x="497" d="M498 676h-471l-27 -123h471z" />
<glyph unicode="&#xb0;" horiz-adv-x="712" d="M82 1192q0 104 85 189t189 85t189.5 -85t85.5 -189t-85.5 -189t-189.5 -85t-189 85t-85 189zM205 1192q0 -62 43 -107t108 -45q66 0 109 45t43 107q0 64 -43.5 107.5t-108.5 43.5q-62 0 -106.5 -44t-44.5 -107z" />
<glyph unicode="&#xb1;" horiz-adv-x="745" d="M332 623h-240v122h242v240h123v-240h227v-122h-229v-248h-123v248zM684 272l-27 -122h-596l27 122h596z" />
<glyph unicode="&#xb2;" horiz-adv-x="473" d="M61 1028v12q31 26 64 59t73.5 81.5t66.5 103.5t26 102q0 50 -15.5 70.5t-56.5 20.5q-76 0 -100 -56h-19q5 18 10 29.5t19 29.5t42.5 28t68.5 10q59 0 96 -35.5t37 -96.5q0 -27 -11.5 -56.5t-36.5 -62t-43.5 -54t-53 -57t-44.5 -46.5h164l47 31h17l-64 -113h-287z" />
<glyph unicode="&#xb3;" horiz-adv-x="432" d="M358 1503l-149 -186q68 -3 113.5 -39t48.5 -98q3 -72 -45.5 -114t-137.5 -42q-88 0 -127 86h25q29 -53 102 -53q95 0 95 123q0 50 -21.5 80t-66.5 30q-21 0 -34.5 -1.5t-16.5 -2.5l-3 -2v19l107 131h-162v8q25 35 29 74h243v-13z" />
<glyph unicode="&#xb4;" horiz-adv-x="284" d="M326 1518v-179l-367 -59v63z" />
<glyph unicode="&#xb6;" horiz-adv-x="1085" d="M1044 1356h-122q-27 -13 -58 -56v-1300h-125v1300q-14 19 -28 33t-21 19l-8 4h-100q-29 -13 -60 -60v-1296h-123v686h-20q-169 0 -284 103t-115 266q0 164 115.5 271.5t283.5 107.5h665v-78z" />
<glyph unicode="&#xb7;" horiz-adv-x="456" d="M354 618q0 -52 -37 -89t-90 -37q-52 0 -88.5 36.5t-36.5 89.5q0 51 36.5 88t88.5 37t89.5 -37t37.5 -88z" />
<glyph unicode="&#xb8;" horiz-adv-x="1228" d="M207 -147h26q43 0 75 -35.5t32 -96.5q0 -145 -160 -145q-34 0 -71.5 12t-58.5 24l-21 11l34 80q60 -45 119 -45q27 0 44 6.5t22.5 19.5t6.5 18t1 15v11t-3.5 15t-9.5 18.5t-20.5 13t-34.5 6.5h-61l-25 39l68 160h86z" />
<glyph unicode="&#xb9;" horiz-adv-x="307" d="M199 1520v-430q8 -16 20 -25t19 -11l8 -1v-13h-185v13q29 2 52 37v305q-10 19 -23 31t-21 14l-8 2v8q3 0 22.5 8t50 25.5t48.5 36.5h17z" />
<glyph unicode="&#xbb;" horiz-adv-x="757" d="M416 524v-43l-256 -301h-58l113 322l-113 319h56zM676 524v-43l-256 -301h-58l113 322l-113 319h56z" />
<glyph unicode="&#xbc;" horiz-adv-x="1341" d="M61 553v25q5 1 13.5 4t31 20.5t39.5 44.5v563q-17 29 -38 47t-33 21l-13 4v25q8 0 42 12.5t87.5 44t88.5 70.5h28v-787q16 -27 37 -44.5t34 -20.5l13 -4v-25h-330zM1206 1434v-35l-913 -1399h-121v39l918 1395h116zM1169 213v-115q16 -30 37 -48.5t34 -21.5l13 -3v-25 h-329v25q5 1 14 3.5t30.5 21t37.5 48.5v115h-330v18l463 650h30v-602h111l-16 -66h-95zM1006 279v311l-222 -311h222z" />
<glyph unicode="&#xbd;" horiz-adv-x="1523" d="M61 553v25q5 1 13.5 4t31 20.5t39.5 44.5v563q-17 29 -38 47t-33 21l-13 4v25q8 0 42 12.5t87.5 44t88.5 70.5h28v-787q16 -27 37 -44.5t34 -20.5l13 -4v-25h-330zM1206 1434v-35l-913 -1399h-121v39l918 1395h116zM840 0v20q43 36 87.5 79t105 112t106 136t78 147.5 t32.5 150.5q0 85 -28.5 121.5t-100.5 36.5q-76 0 -115.5 -24.5t-66.5 -71.5h-29q34 174 244 174q110 0 176 -65t66 -173q0 -42 -17.5 -89t-42 -86.5t-64 -89t-70.5 -82.5t-76 -80t-66 -71h291l84 58h28l-110 -203h-512z" />
<glyph unicode="&#xbe;" d="M588 1411l-264 -330q122 -8 203 -72t85 -175q6 -129 -79 -205t-242 -76q-171 0 -230 160h41q28 -55 72 -77t117 -22q164 0 164 220q0 196 -156 196q-37 0 -60.5 -2.5t-28.5 -5.5l-5 -2v37l188 229h-291v14q48 68 54 136h432v-25zM1358 1434v-35l-914 -1399h-120v39 l917 1395h117zM1321 213v-115q16 -30 37 -48.5t34 -21.5l13 -3v-25h-330v25q5 1 14 3.5t30.5 21t37.5 48.5v115h-330v18l463 650h31v-602h111l-17 -66h-94zM1157 279v311l-221 -311h221z" />
<glyph unicode="&#xbf;" horiz-adv-x="862" d="M348 1315q0 -56 42.5 -97.5t101.5 -41.5q51 0 92 42t41 97q0 62 -40.5 105.5t-92.5 43.5q-60 0 -102 -43t-42 -106zM444 1040v-67q-2 -68 -24.5 -131t-56.5 -113t-74.5 -98t-81 -92.5t-73.5 -88.5t-53 -95t-20 -103q1 -73 34 -128.5t91 -88.5t130 -49.5t157 -16.5 q161 0 244.5 72.5t83.5 210.5v24h-66q-4 -52 -21 -90t-40.5 -59.5t-57.5 -34.5t-67 -17t-74 -3q-31 0 -55 6.5t-39.5 14t-26 24t-16 27.5t-8 33.5t-2.5 33v35.5q0 70 21.5 137.5t52.5 126.5t62 122.5t52.5 151.5t22.5 187v69h-95z" />
<glyph unicode="&#xc0;" horiz-adv-x="1583" d="M596 1561v178l367 -174v-64zM870 1438l525 -1288q26 -44 58 -71.5t51 -33.5l18 -6v-39h-570v39q2 1 6.5 2.5t18 9t27 19t32 34.5t35.5 52l-110 252h-533l-106 -252q26 -46 55.5 -75.5t46.5 -35.5l16 -6v-39h-379v39q2 1 6.5 2t17.5 9t26.5 19t31.5 33t35 50l473 1159 q5 2 14 6t34 17t46 27t43 35t33 42h49zM467 532h459l-226 582z" />
<glyph unicode="&#xc1;" horiz-adv-x="1583" d="M582 1501v64l366 174v-178zM870 1438l525 -1288q26 -44 58 -71.5t51 -33.5l18 -6v-39h-570v39q2 1 6.5 2.5t18 9t27 19t32 34.5t35.5 52l-110 252h-533l-106 -252q26 -46 55.5 -75.5t46.5 -35.5l16 -6v-39h-379v39q2 1 6.5 2t17.5 9t26.5 19t31.5 33t35 50l473 1159 q5 2 14 6t34 17t46 27t43 35t33 42h49zM467 532h459l-226 582z" />
<glyph unicode="&#xc2;" horiz-adv-x="1583" d="M1030 1505l-242 78l-243 -78v56l243 194l242 -194v-56zM870 1438l525 -1288q26 -44 58 -71.5t51 -33.5l18 -6v-39h-570v39q2 1 6.5 2.5t18 9t27 19t32 34.5t35.5 52l-110 252h-533l-106 -252q26 -46 55.5 -75.5t46.5 -35.5l16 -6v-39h-379v39q2 1 6.5 2t17.5 9t26.5 19 t31.5 33t35 50l473 1159q5 2 14 6t34 17t46 27t43 35t33 42h49zM467 532h459l-226 582z" />
<glyph unicode="&#xc3;" horiz-adv-x="1583" d="M954 1669l47 -67q-85 -82 -155 -82q-32 0 -77 26.5t-75 26.5q-27 0 -46 -12t-52 -43l-49 65q46 44 82 64t78 20q35 0 82.5 -25.5t68.5 -25.5q43 0 96 53zM870 1438l525 -1288q26 -44 58 -71.5t51 -33.5l18 -6v-39h-570v39q2 1 6.5 2.5t18 9t27 19t32 34.5t35.5 52 l-110 252h-533l-106 -252q26 -46 55.5 -75.5t46.5 -35.5l16 -6v-39h-379v39q2 1 6.5 2t17.5 9t26.5 19t31.5 33t35 50l473 1159q5 2 14 6t34 17t46 27t43 35t33 42h49zM467 532h459l-226 582z" />
<glyph unicode="&#xc4;" horiz-adv-x="1583" d="M563 1518q-48 0 -81 33.5t-33 82.5q0 48 33.5 82.5t80.5 34.5q49 0 83 -34.5t34 -82.5q0 -49 -33.5 -82.5t-83.5 -33.5zM999 1518q-48 0 -82 33.5t-34 82.5q0 47 34.5 82t81.5 35t82 -35t35 -82q0 -49 -34.5 -82.5t-82.5 -33.5zM870 1438l525 -1288q26 -44 58 -71.5 t51 -33.5l18 -6v-39h-570v39q2 1 6.5 2.5t18 9t27 19t32 34.5t35.5 52l-110 252h-533l-106 -252q26 -46 55.5 -75.5t46.5 -35.5l16 -6v-39h-379v39q2 1 6.5 2t17.5 9t26.5 19t31.5 33t35 50l473 1159q5 2 14 6t34 17t46 27t43 35t33 42h49zM467 532h459l-226 582z" />
<glyph unicode="&#xc5;" horiz-adv-x="1583" d="M774 1483q-69 0 -110 44t-41 107q0 56 43.5 103t107.5 47q73 0 112.5 -45.5t39.5 -104.5q0 -63 -40.5 -107t-111.5 -44zM774 1712q-32 0 -55 -23.5t-23 -54.5q0 -33 22.5 -56.5t55.5 -23.5t55.5 23.5t22.5 56.5q0 32 -23 55t-55 23zM870 1438l525 -1288q26 -44 58 -71.5 t51 -33.5l18 -6v-39h-570v39q2 1 6.5 2.5t18 9t27 19t32 34.5t35.5 52l-110 252h-533l-106 -252q26 -46 55.5 -75.5t46.5 -35.5l16 -6v-39h-379v39q2 1 6.5 2t17.5 9t26.5 19t31.5 33t35 50l473 1159q5 2 14 6t34 17t46 27t43 35t33 42h49zM467 532h459l-226 582z" />
<glyph unicode="&#xc6;" horiz-adv-x="2048" d="M829 0v39q2 1 6.5 2t17.5 9t26.5 19t31.5 33t35 50v309h-414l-204 -305q26 -46 55.5 -75.5t46.5 -35.5l16 -6v-39h-385v39q42 9 89 70l2 4l788 1177q-24 42 -52 68t-44 32l-15 5v39h934l117 -228h-51l-117 105h-440q-29 -13 -58 -60v-364q14 -20 28.5 -34.5t21.5 -18.5 l8 -5h266q48 26 78.5 56t36.5 47l6 16h37v-360h-37q0 2 -1.5 6.5t-9.5 18t-20 27t-35.5 32t-54.5 35.5h-270q-23 -11 -51 -52l6 -487q12 -16 24.5 -27t18.5 -15l6 -3h543l122 127h50l-111 -250h-1047zM1235 1311h16q-6 2 -16 0zM944 584v483l-332 -483h332z" />
<glyph unicode="&#xc7;" horiz-adv-x="1304" d="M1182 264h61q-86 -157 -190.5 -221t-247.5 -70l-47 -120h26q43 0 75 -35.5t32 -96.5q0 -145 -160 -145q-34 0 -71.5 12t-58.5 24l-21 11l34 80q60 -45 119 -45q27 0 44 6.5t22.5 19.5t6.5 18t1 15v11t-3.5 15t-9.5 18.5t-20.5 13t-34.5 6.5h-61l-25 39l66 155 q-212 11 -362 111.5t-223 264.5t-73 378q0 153 53.5 288.5t148.5 234t233 155.5t299 57q104 0 226.5 -32.5t215.5 -90.5l-86 -313h-47q-6 91 -22 146.5t-52 95t-95 55.5t-153 16q-209 -10 -321.5 -173t-112.5 -439q0 -300 117.5 -466.5t329.5 -166.5q138 0 210 31t177 137z " />
<glyph unicode="&#xc8;" horiz-adv-x="1280" d="M424 1561v178l367 -174v-64zM61 0v39q2 1 6.5 2t17.5 9t26.5 19t31.5 33t35 50v1130q-26 44 -55.5 72.5t-45.5 34.5l-16 6v39h934l117 -228h-51l-117 105h-440q-29 -13 -60 -60v-362q14 -21 29 -36t23 -19l8 -5h266q48 26 78.5 56t36.5 47l6 16h37v-360h-37q0 2 -1.5 6.5 t-9.5 18t-20 27t-35.5 32t-54.5 35.5h-270q-25 -13 -56 -58v-467q14 -21 29 -35.5t23 -18.5l8 -5h543l122 127h50l-111 -250h-1047zM467 1311h16q-6 2 -16 0z" />
<glyph unicode="&#xc9;" horiz-adv-x="1280" d="M438 1501v64l367 174v-178zM61 0v39q2 1 6.5 2t17.5 9t26.5 19t31.5 33t35 50v1130q-26 44 -55.5 72.5t-45.5 34.5l-16 6v39h934l117 -228h-51l-117 105h-440q-29 -13 -60 -60v-362q14 -21 29 -36t23 -19l8 -5h266q48 26 78.5 56t36.5 47l6 16h37v-360h-37q0 2 -1.5 6.5 t-9.5 18t-20 27t-35.5 32t-54.5 35.5h-270q-25 -13 -56 -58v-467q14 -21 29 -35.5t23 -18.5l8 -5h543l122 127h50l-111 -250h-1047zM467 1311h16q-6 2 -16 0z" />
<glyph unicode="&#xca;" horiz-adv-x="1280" d="M834 1505l-242 78l-244 -78v56l244 194l242 -194v-56zM61 0v39q2 1 6.5 2t17.5 9t26.5 19t31.5 33t35 50v1130q-26 44 -55.5 72.5t-45.5 34.5l-16 6v39h934l117 -228h-51l-117 105h-440q-29 -13 -60 -60v-362q14 -21 29 -36t23 -19l8 -5h266q48 26 78.5 56t36.5 47l6 16 h37v-360h-37q0 2 -1.5 6.5t-9.5 18t-20 27t-35.5 32t-54.5 35.5h-270q-25 -13 -56 -58v-467q14 -21 29 -35.5t23 -18.5l8 -5h543l122 127h50l-111 -250h-1047zM467 1311h16q-6 2 -16 0z" />
<glyph unicode="&#xcb;" horiz-adv-x="1280" d="M369 1518q-48 0 -81.5 33.5t-33.5 82.5q0 47 34 82t81 35q49 0 82.5 -34.5t33.5 -82.5q0 -50 -33.5 -83t-82.5 -33zM805 1518q-48 0 -82.5 33.5t-34.5 82.5q0 47 35 82t82 35t82 -35t35 -82q0 -49 -34.5 -82.5t-82.5 -33.5zM61 0v39q2 1 6.5 2t17.5 9t26.5 19t31.5 33 t35 50v1130q-26 44 -55.5 72.5t-45.5 34.5l-16 6v39h934l117 -228h-51l-117 105h-440q-29 -13 -60 -60v-362q14 -21 29 -36t23 -19l8 -5h266q48 26 78.5 56t36.5 47l6 16h37v-360h-37q0 2 -1.5 6.5t-9.5 18t-20 27t-35.5 32t-54.5 35.5h-270q-25 -13 -56 -58v-467 q14 -21 29 -35.5t23 -18.5l8 -5h543l122 127h50l-111 -250h-1047zM467 1311h16q-6 2 -16 0z" />
<glyph unicode="&#xcc;" horiz-adv-x="616" d="M135 1561v178l367 -174v-64zM442 1286v-1141q24 -44 52.5 -71.5t44.5 -33.5l16 -5v-35h-494v39q2 1 6.5 2t17.5 9t26 19t31 33t34 50v1138q-24 43 -51.5 69.5t-42.5 32.5l-16 5v37h485v-39q-6 -1 -16.5 -5.5t-39.5 -32t-53 -71.5z" />
<glyph unicode="&#xcd;" horiz-adv-x="616" d="M119 1501v64l366 174v-178zM442 1286v-1141q24 -44 52.5 -71.5t44.5 -33.5l16 -5v-35h-494v39q2 1 6.5 2t17.5 9t26 19t31 33t34 50v1138q-24 43 -51.5 69.5t-42.5 32.5l-16 5v37h485v-39q-6 -1 -16.5 -5.5t-39.5 -32t-53 -71.5z" />
<glyph unicode="&#xce;" horiz-adv-x="616" d="M551 1505l-242 78l-243 -78v56l243 194l242 -194v-56zM442 1286v-1141q24 -44 52.5 -71.5t44.5 -33.5l16 -5v-35h-494v39q2 1 6.5 2t17.5 9t26 19t31 33t34 50v1138q-24 43 -51.5 69.5t-42.5 32.5l-16 5v37h485v-39q-6 -1 -16.5 -5.5t-39.5 -32t-53 -71.5z" />
<glyph unicode="&#xcf;" horiz-adv-x="790" d="M293 1634q0 -49 -33.5 -82.5t-83.5 -33.5q-48 0 -81.5 33.5t-33.5 82.5q0 47 34 82t81 35q49 0 83 -34.5t34 -82.5zM612 1751q47 0 82 -35t35 -82q0 -49 -34.5 -82.5t-82.5 -33.5t-82 33.5t-34 82.5q0 47 34.5 82t81.5 35zM528 1286v-1141q24 -44 52.5 -71.5t44.5 -33.5 l16 -5v-35h-494v39q2 1 6.5 2t17.5 9t26 19t31 33t34 50v1138q-24 43 -51.5 69.5t-42.5 32.5l-16 5v37h485v-39q-6 -1 -16.5 -5.5t-39.5 -32t-53 -71.5z" />
<glyph unicode="&#xd0;" horiz-adv-x="1402" d="M61 1434h641q194 0 340.5 -93.5t222.5 -256t76 -369.5q0 -157 -44.5 -289t-126 -226t-201.5 -147t-267 -53h-641v39q2 1 6.5 2t17.5 9t26.5 19t31.5 33t35 50v479h-117l27 123h90v528q-26 44 -55.5 72.5t-45.5 34.5l-16 6v39zM500 123h202q92 0 161 43.5t110.5 123.5 t61.5 186t20 239t-20 239.5t-61.5 187.5t-110.5 125t-161 44h-198q-29 -13 -60 -60v-497h115l-27 -123h-88v-451q30 -44 56 -57z" />
<glyph unicode="&#xd1;" horiz-adv-x="1441" d="M946 1669l47 -67q-85 -82 -155 -82q-32 0 -77 26.5t-75 26.5q-27 0 -46 -12t-52 -43l-49 65q46 44 81.5 64t77.5 20q35 0 83 -25.5t69 -25.5q43 0 96 53zM1380 1436v-39q-2 -1 -6.5 -2.5t-18 -9t-26.5 -19t-31.5 -34.5t-35.5 -52v-1280h-97l-862 1139v-983 q26 -46 56 -75.5t47 -35.5l16 -6v-39h-361v39q2 1 6.5 2.5t18 9t27 19t32 34.5t35.5 52v1128l-78 98v52h328l709 -912v758q-26 46 -56 75.5t-47 35.5l-16 6v39h360z" />
<glyph unicode="&#xd2;" d="M569 1739l367 -174v-64l-367 60v178zM754 -27q147 0 273 55.5t215 153t139.5 234.5t50.5 295q0 216 -86 387.5t-241 267.5t-351 96q-201 0 -359.5 -96t-246 -267t-87.5 -388q0 -158 51.5 -295t142 -234.5t219.5 -153t280 -55.5zM754 1339q188 0 289.5 -172t101.5 -456 q0 -177 -43 -314t-133 -219t-215 -82q-128 0 -221.5 82t-139 219.5t-45.5 313.5q0 283 106.5 455.5t299.5 172.5z" />
<glyph unicode="&#xd3;" d="M934 1739v-178l-367 -60v64zM754 -27q147 0 273 55.5t215 153t139.5 234.5t50.5 295q0 216 -86 387.5t-241 267.5t-351 96q-201 0 -359.5 -96t-246 -267t-87.5 -388q0 -158 51.5 -295t142 -234.5t219.5 -153t280 -55.5zM754 1339q188 0 289.5 -172t101.5 -456 q0 -177 -43 -314t-133 -219t-215 -82q-128 0 -221.5 82t-139 219.5t-45.5 313.5q0 283 106.5 455.5t299.5 172.5z" />
<glyph unicode="&#xd4;" d="M756 1583l-244 -78v56l244 194l241 -194v-56zM754 -27q147 0 273 55.5t215 153t139.5 234.5t50.5 295q0 216 -86 387.5t-241 267.5t-351 96q-201 0 -359.5 -96t-246 -267t-87.5 -388q0 -158 51.5 -295t142 -234.5t219.5 -153t280 -55.5zM754 1339q188 0 289.5 -172 t101.5 -456q0 -177 -43 -314t-133 -219t-215 -82q-128 0 -221.5 82t-139 219.5t-45.5 313.5q0 283 106.5 455.5t299.5 172.5z" />
<glyph unicode="&#xd5;" d="M930 1669l47 -67q-85 -82 -156 -82q-32 0 -76.5 26.5t-74.5 26.5q-27 0 -47 -12.5t-52 -42.5l-49 65q46 44 82 64t78 20q35 0 83 -25.5t69 -25.5q43 0 96 53zM754 -27q147 0 273 55.5t215 153t139.5 234.5t50.5 295q0 216 -86 387.5t-241 267.5t-351 96 q-201 0 -359.5 -96t-246 -267t-87.5 -388q0 -158 51.5 -295t142 -234.5t219.5 -153t280 -55.5zM754 1339q188 0 289.5 -172t101.5 -456q0 -177 -43 -314t-133 -219t-215 -82q-128 0 -221.5 82t-139 219.5t-45.5 313.5q0 283 106.5 455.5t299.5 172.5z" />
<glyph unicode="&#xd6;" d="M516 1518q-48 0 -81.5 33.5t-33.5 82.5q0 47 34 82t81 35q49 0 83 -34.5t34 -82.5q0 -49 -33.5 -82.5t-83.5 -33.5zM952 1518q-48 0 -82 33.5t-34 82.5q0 47 34.5 82t81.5 35t82 -35t35 -82q0 -49 -34.5 -82.5t-82.5 -33.5zM754 -27q147 0 273 55.5t215 153t139.5 234.5 t50.5 295q0 216 -86 387.5t-241 267.5t-351 96q-201 0 -359.5 -96t-246 -267t-87.5 -388q0 -158 51.5 -295t142 -234.5t219.5 -153t280 -55.5zM754 1339q188 0 289.5 -172t101.5 -456q0 -177 -43 -314t-133 -219t-215 -82q-128 0 -221.5 82t-139 219.5t-45.5 313.5 q0 283 106.5 455.5t299.5 172.5z" />
<glyph unicode="&#xd7;" horiz-adv-x="841" d="M737 823l-231 -241l233 -248l-86 -86l-233 246l-232 -244l-86 84l232 246l-232 243l91 92l227 -245l231 241z" />
<glyph unicode="&#xd8;" d="M1352 1397l-115 -146q93 -102 144 -240.5t51 -299.5q0 -158 -50.5 -295t-139.5 -234.5t-215 -153t-273 -55.5q-239 0 -418 136l-86 -109h-131v39l125 156q-183 208 -183 516q0 217 87.5 388t246 267t359.5 96q217 0 393 -127l78 99h127v-37zM397 389l633 799 q-104 151 -276 151q-193 0 -299.5 -172.5t-106.5 -455.5q0 -185 49 -322zM1092 1067l-633 -803q110 -168 295 -168q125 0 215 82t133 219t43 314q0 205 -53 356z" />
<glyph unicode="&#xd9;" horiz-adv-x="1445" d="M596 1561v178l367 -174v-64zM1384 1434v-39q-2 -1 -6.5 -2.5t-18 -9t-26.5 -19t-31.5 -34.5t-35.5 -52v-715q0 -81 -4.5 -143.5t-17.5 -126t-34.5 -109.5t-57.5 -87t-85 -66t-118 -39.5t-156 -14.5q-145 0 -251.5 25t-175.5 71.5t-111 120.5t-58.5 162t-16.5 207v715 q-26 46 -56 75.5t-46 35.5l-17 6v39h502v-39q-2 -1 -6.5 -2t-17.5 -9t-26.5 -19t-31.5 -33t-35 -50v-719q0 -54 3 -98t12 -95.5t24 -91.5t41.5 -78.5t62.5 -63.5t88 -40.5t116 -15.5q55 0 100.5 8.5t79.5 22.5t60 38t44 48t30.5 60.5t19.5 67t10.5 75.5t4.5 79t1 84v715 q-26 46 -56 75.5t-47 35.5l-16 6v39h360z" />
<glyph unicode="&#xda;" horiz-adv-x="1445" d="M627 1501v64l366 174v-178zM1384 1434v-39q-2 -1 -6.5 -2.5t-18 -9t-26.5 -19t-31.5 -34.5t-35.5 -52v-715q0 -81 -4.5 -143.5t-17.5 -126t-34.5 -109.5t-57.5 -87t-85 -66t-118 -39.5t-156 -14.5q-145 0 -251.5 25t-175.5 71.5t-111 120.5t-58.5 162t-16.5 207v715 q-26 46 -56 75.5t-46 35.5l-17 6v39h502v-39q-2 -1 -6.5 -2t-17.5 -9t-26.5 -19t-31.5 -33t-35 -50v-719q0 -54 3 -98t12 -95.5t24 -91.5t41.5 -78.5t62.5 -63.5t88 -40.5t116 -15.5q55 0 100.5 8.5t79.5 22.5t60 38t44 48t30.5 60.5t19.5 67t10.5 75.5t4.5 79t1 84v715 q-26 46 -56 75.5t-47 35.5l-16 6v39h360z" />
<glyph unicode="&#xdb;" horiz-adv-x="1445" d="M1040 1505l-241 78l-244 -78v56l244 194l241 -194v-56zM1384 1434v-39q-2 -1 -6.5 -2.5t-18 -9t-26.5 -19t-31.5 -34.5t-35.5 -52v-715q0 -81 -4.5 -143.5t-17.5 -126t-34.5 -109.5t-57.5 -87t-85 -66t-118 -39.5t-156 -14.5q-145 0 -251.5 25t-175.5 71.5t-111 120.5 t-58.5 162t-16.5 207v715q-26 46 -56 75.5t-46 35.5l-17 6v39h502v-39q-2 -1 -6.5 -2t-17.5 -9t-26.5 -19t-31.5 -33t-35 -50v-719q0 -54 3 -98t12 -95.5t24 -91.5t41.5 -78.5t62.5 -63.5t88 -40.5t116 -15.5q55 0 100.5 8.5t79.5 22.5t60 38t44 48t30.5 60.5t19.5 67 t10.5 75.5t4.5 79t1 84v715q-26 46 -56 75.5t-47 35.5l-16 6v39h360z" />
<glyph unicode="&#xdc;" horiz-adv-x="1445" d="M565 1518q-48 0 -81 33.5t-33 82.5q0 48 33.5 82.5t80.5 34.5q49 0 83 -34.5t34 -82.5q0 -49 -33.5 -82.5t-83.5 -33.5zM1001 1518q-48 0 -82 33.5t-34 82.5q0 47 34.5 82t81.5 35t82 -35t35 -82q0 -49 -34.5 -82.5t-82.5 -33.5zM1384 1434v-39q-2 -1 -6.5 -2.5t-18 -9 t-26.5 -19t-31.5 -34.5t-35.5 -52v-715q0 -81 -4.5 -143.5t-17.5 -126t-34.5 -109.5t-57.5 -87t-85 -66t-118 -39.5t-156 -14.5q-145 0 -251.5 25t-175.5 71.5t-111 120.5t-58.5 162t-16.5 207v715q-26 46 -56 75.5t-46 35.5l-17 6v39h502v-39q-2 -1 -6.5 -2t-17.5 -9 t-26.5 -19t-31.5 -33t-35 -50v-719q0 -54 3 -98t12 -95.5t24 -91.5t41.5 -78.5t62.5 -63.5t88 -40.5t116 -15.5q55 0 100.5 8.5t79.5 22.5t60 38t44 48t30.5 60.5t19.5 67t10.5 75.5t4.5 79t1 84v715q-26 46 -56 75.5t-47 35.5l-16 6v39h360z" />
<glyph unicode="&#xdd;" horiz-adv-x="1292" d="M559 1501v64l367 174v-178zM1231 1434v-39q-2 -1 -6.5 -2.5t-18 -9t-27 -19t-32 -34.5t-35.5 -52l-328 -672v-450q26 -46 56 -75.5t46 -35.5l17 -6v-39h-504v39q2 1 6.5 2.5t18 9t27 19t32 34.5t35.5 52v450l-338 672q-26 46 -56 75.5t-46 35.5l-17 6v39h560v-39 q-2 -1 -6.5 -2.5t-18 -9t-27 -19t-32 -34.5t-35.5 -52l233 -467l246 467q-26 46 -56 75.5t-47 35.5l-16 6v39h369z" />
<glyph unicode="&#xde;" horiz-adv-x="1136" d="M446 1174h134q143 0 238.5 -23t152.5 -73.5t80.5 -122.5t23.5 -179q0 -76 -13.5 -136t-47.5 -111.5t-88.5 -85.5t-139 -53t-196.5 -19h-72v102h55q120 0 167.5 69.5t47.5 235.5q0 152 -45.5 212.5t-164.5 60.5h-132v-895q26 -46 56 -75.5t46 -35.5l17 -6v-39h-504v39 q2 1 6.5 2.5t18 9t27 19t32 34.5t35.5 52v1122q-26 46 -56 75.5t-46 35.5l-17 6v39h504v-39q-2 -1 -6.5 -2.5t-18 -9t-27 -19t-32 -34.5t-35.5 -52v-104z" />
<glyph unicode="&#xdf;" horiz-adv-x="1241" d="M180 156v749q0 156 21 259t72 173t136.5 100.5t215.5 30.5q82 0 151.5 -21.5t116.5 -56.5t80 -80t48 -90.5t15 -89.5q0 -77 -26 -134.5t-63.5 -90.5t-100.5 -69q148 -35 241 -150.5t93 -267.5q0 -199 -122 -321t-319 -122q-144 0 -250 58v221h52q8 -84 57.5 -130.5 t140.5 -45.5q47 1 79 15.5t50.5 38t28.5 69t13 93t3 124.5q0 78 -9 136.5t-31 107.5t-64 76t-102 28h-123v102h28q121 0 160 57.5t39 204.5q0 133 -50.5 184.5t-135.5 51.5q-35 0 -63 -6t-48.5 -21t-35 -32t-24 -47.5t-15.5 -57.5t-8.5 -72t-3.5 -82t-1 -96v-952h-365v39 q2 1 6.5 2.5t18 9t27 19t32 34.5t35.5 52z" />
<glyph unicode="&#xe0;" horiz-adv-x="1212" d="M356 1112v178l367 -174v-63zM1032 940v-784q26 -46 56 -75.5t46 -35.5l17 -6v-39h-313l-52 109q-35 -67 -97.5 -101.5t-143.5 -34.5q-209 0 -346.5 146.5t-137.5 363.5q0 212 136 349t348 137q95 0 165.5 -28t125.5 -93q0 -2 19 6t54 31t66 55h57zM545 76q70 0 122 61.5 t75.5 152t23.5 193.5q0 101 -23 186t-74.5 141t-123.5 56q-70 0 -120.5 -56t-73.5 -141t-23 -186q0 -103 22.5 -193t73.5 -152t121 -62z" />
<glyph unicode="&#xe1;" horiz-adv-x="1212" d="M356 1053v63l367 174v-178zM1032 940v-784q26 -46 56 -75.5t46 -35.5l17 -6v-39h-313l-52 109q-35 -67 -97.5 -101.5t-143.5 -34.5q-209 0 -346.5 146.5t-137.5 363.5q0 212 136 349t348 137q95 0 165.5 -28t125.5 -93q0 -2 19 6t54 31t66 55h57zM545 76q70 0 122 61.5 t75.5 152t23.5 193.5q0 101 -23 186t-74.5 141t-123.5 56q-70 0 -120.5 -56t-73.5 -141t-23 -186q0 -103 22.5 -193t73.5 -152t121 -62z" />
<glyph unicode="&#xe2;" horiz-adv-x="1212" d="M793 1032l-242 78l-244 -78v55l244 195l242 -195v-55zM1032 940v-784q26 -46 56 -75.5t46 -35.5l17 -6v-39h-313l-52 109q-35 -67 -97.5 -101.5t-143.5 -34.5q-209 0 -346.5 146.5t-137.5 363.5q0 212 136 349t348 137q95 0 165.5 -28t125.5 -93q0 -2 19 6t54 31t66 55 h57zM545 76q70 0 122 61.5t75.5 152t23.5 193.5q0 101 -23 186t-74.5 141t-123.5 56q-70 0 -120.5 -56t-73.5 -141t-23 -186q0 -103 22.5 -193t73.5 -152t121 -62z" />
<glyph unicode="&#xe3;" horiz-adv-x="1212" d="M727 1194l47 -68q-85 -82 -156 -82q-32 0 -76.5 27t-74.5 27q-27 0 -46 -12t-52 -44l-50 66q46 44 82 64t78 20q35 0 83 -25.5t69 -25.5q43 0 96 53zM1032 940v-784q26 -46 56 -75.5t46 -35.5l17 -6v-39h-313l-52 109q-35 -67 -97.5 -101.5t-143.5 -34.5 q-209 0 -346.5 146.5t-137.5 363.5q0 212 136 349t348 137q95 0 165.5 -28t125.5 -93q0 -2 19 6t54 31t66 55h57zM545 76q70 0 122 61.5t75.5 152t23.5 193.5q0 101 -23 186t-74.5 141t-123.5 56q-70 0 -120.5 -56t-73.5 -141t-23 -186q0 -103 22.5 -193t73.5 -152t121 -62z " />
<glyph unicode="&#xe4;" horiz-adv-x="1212" d="M328 1036q-48 0 -81.5 34t-33.5 83q0 47 34 82t81 35q49 0 82.5 -34.5t33.5 -82.5q0 -50 -33.5 -83.5t-82.5 -33.5zM764 1036q-48 0 -82.5 34t-34.5 83q0 47 35 82t82 35t82 -35t35 -82q0 -49 -34.5 -83t-82.5 -34zM1032 940v-784q26 -46 56 -75.5t46 -35.5l17 -6v-39 h-313l-52 109q-35 -67 -97.5 -101.5t-143.5 -34.5q-209 0 -346.5 146.5t-137.5 363.5q0 212 136 349t348 137q95 0 165.5 -28t125.5 -93q0 -2 19 6t54 31t66 55h57zM545 76q70 0 122 61.5t75.5 152t23.5 193.5q0 101 -23 186t-74.5 141t-123.5 56q-70 0 -120.5 -56 t-73.5 -141t-23 -186q0 -103 22.5 -193t73.5 -152t121 -62z" />
<glyph unicode="&#xe5;" horiz-adv-x="1212" d="M582 1038q-69 0 -110.5 44.5t-41.5 107.5q0 56 44 102.5t108 46.5q73 0 112 -45t39 -104q0 -63 -40.5 -107.5t-110.5 -44.5zM582 1268q-32 0 -55 -23.5t-23 -54.5q0 -33 22.5 -56.5t55.5 -23.5t55 23.5t22 56.5q0 32 -22.5 55t-54.5 23zM1032 940v-784q26 -46 56 -75.5 t46 -35.5l17 -6v-39h-313l-52 109q-35 -67 -97.5 -101.5t-143.5 -34.5q-209 0 -346.5 146.5t-137.5 363.5q0 212 136 349t348 137q95 0 165.5 -28t125.5 -93q0 -2 19 6t54 31t66 55h57zM545 76q70 0 122 61.5t75.5 152t23.5 193.5q0 101 -23 186t-74.5 141t-123.5 56 q-70 0 -120.5 -56t-73.5 -141t-23 -186q0 -103 22.5 -193t73.5 -152t121 -62z" />
<glyph unicode="&#xe6;" horiz-adv-x="1538" d="M1477 516l-607 -119q0 1 -10 -2q14 -153 84 -238t193 -81q3 2 14.5 -0.5t40.5 3t59.5 14t73 32t80.5 57.5h61q-63 -111 -141 -160t-182 -49q-268 0 -408 144l-4 -6q-58 -69 -173 -104.5t-208 -35.5q-41 0 -88.5 15.5t-93.5 45t-76.5 82t-30.5 117.5q0 60 12.5 108 t47.5 96t93.5 80t156 53.5t227.5 23.5l12 2v135q0 70 -55 104.5t-127 34.5q-81 0 -132.5 -36.5t-51.5 -92.5v-16h-103v2q0 77 45.5 135t109.5 84.5t134 26.5q130 0 208 -29t128 -86q125 115 297 115q101 0 182.5 -36t130.5 -95.5t75 -131.5t26 -149v-43zM856 502l391 71 q-6 68 -17.5 119.5t-32.5 92t-54 62t-78 21.5q-209 0 -209 -366zM608 492l-94 -7q-43 -3 -77 -13.5t-55.5 -24t-37 -35.5t-23.5 -40t-12.5 -45t-5 -44t-0.5 -43q0 -58 32.5 -108t92.5 -50q46 0 95.5 18t84.5 58v334z" />
<glyph unicode="&#xe7;" horiz-adv-x="989" d="M858 180h70q-106 -186 -287 -205l-39 -102h27q43 0 74.5 -35t31.5 -96q0 -145 -160 -145q-34 0 -71.5 11.5t-58.5 23.5l-21 12l35 80q60 -46 119 -46q22 0 37.5 6t22 11t10 17t3.5 14.5v11.5v2q-8 57 -67 61h-62l-24 39l57 133q-125 6 -221.5 48t-155 110.5t-88 153 t-29.5 182.5q0 82 20.5 155.5t64.5 137.5t107.5 111t154 73.5t198.5 26.5q131 0 307 -94l-47 -265h-37q-3 37 -10.5 69t-23.5 67.5t-39.5 61t-62 42t-87.5 16.5q-142 0 -210 -109t-68 -292q0 -180 71 -286.5t207 -106.5q46 0 72 3.5t75 28t105 74.5z" />
<glyph unicode="&#xe8;" horiz-adv-x="989" d="M330 1112v178l366 -174v-63zM928 516l-606 -119q-2 1 -3 0.5t-8 -2.5q14 -152 84.5 -237.5t192.5 -81.5q3 2 14.5 -0.5t40.5 3t59.5 14t73 32t80.5 57.5h62q-63 -111 -141.5 -160t-182.5 -49q-81 0 -150.5 13.5t-119.5 36t-92 53.5t-67.5 65.5t-47 71.5t-30.5 73 t-17 68.5t-7.5 58.5t-2 43t0.5 21v1v1v2q0 220 125.5 355t327.5 135q101 0 182.5 -36t130.5 -95.5t75 -131.5t26 -149v-43zM307 502l391 71q-6 68 -17.5 119.5t-32.5 92t-54 62t-78 21.5q-209 0 -209 -366z" />
<glyph unicode="&#xe9;" horiz-adv-x="989" d="M330 1053v63l366 174v-178zM928 516l-606 -119q-2 1 -3 0.5t-8 -2.5q14 -152 84.5 -237.5t192.5 -81.5q3 2 14.5 -0.5t40.5 3t59.5 14t73 32t80.5 57.5h62q-63 -111 -141.5 -160t-182.5 -49q-81 0 -150.5 13.5t-119.5 36t-92 53.5t-67.5 65.5t-47 71.5t-30.5 73t-17 68.5 t-7.5 58.5t-2 43t0.5 21v1v1v2q0 220 125.5 355t327.5 135q101 0 182.5 -36t130.5 -95.5t75 -131.5t26 -149v-43zM307 502l391 71q-6 68 -17.5 119.5t-32.5 92t-54 62t-78 21.5q-209 0 -209 -366z" />
<glyph unicode="&#xea;" horiz-adv-x="989" d="M760 1032l-242 78l-244 -78v55l244 195l242 -195v-55zM928 516l-606 -119q-2 1 -3 0.5t-8 -2.5q14 -152 84.5 -237.5t192.5 -81.5q3 2 14.5 -0.5t40.5 3t59.5 14t73 32t80.5 57.5h62q-63 -111 -141.5 -160t-182.5 -49q-81 0 -150.5 13.5t-119.5 36t-92 53.5t-67.5 65.5 t-47 71.5t-30.5 73t-17 68.5t-7.5 58.5t-2 43t0.5 21v1v1v2q0 220 125.5 355t327.5 135q101 0 182.5 -36t130.5 -95.5t75 -131.5t26 -149v-43zM307 502l391 71q-6 68 -17.5 119.5t-32.5 92t-54 62t-78 21.5q-209 0 -209 -366z" />
<glyph unicode="&#xeb;" horiz-adv-x="989" d="M295 1036q-48 0 -81.5 34t-33.5 83q0 47 34 82t81 35q49 0 83 -34.5t34 -82.5q0 -49 -34 -83t-83 -34zM731 1036q-48 0 -82.5 34t-34.5 83q0 47 35 82t82 35t82 -35t35 -82q0 -49 -34.5 -83t-82.5 -34zM928 516l-606 -119q-2 1 -3 0.5t-8 -2.5q14 -152 84.5 -237.5 t192.5 -81.5q3 2 14.5 -0.5t40.5 3t59.5 14t73 32t80.5 57.5h62q-63 -111 -141.5 -160t-182.5 -49q-81 0 -150.5 13.5t-119.5 36t-92 53.5t-67.5 65.5t-47 71.5t-30.5 73t-17 68.5t-7.5 58.5t-2 43t0.5 21v1v1v2q0 220 125.5 355t327.5 135q101 0 182.5 -36t130.5 -95.5 t75 -131.5t26 -149v-43zM307 502l391 71q-6 68 -17.5 119.5t-32.5 92t-54 62t-78 21.5q-209 0 -209 -366z" />
<glyph unicode="&#xec;" horiz-adv-x="606" d="M76 1112v178l366 -174v-63zM426 938v-782q26 -46 56 -75.5t46 -35.5l17 -6v-39h-484v39q2 1 6.5 2.5t18 9t27 19t32 34.5t35.5 52v530q-26 46 -56 75.5t-46 35.5l-17 6v39h2q9 1 23.5 2t56 8t78.5 16.5t80 28t70 41.5h55z" />
<glyph unicode="&#xed;" horiz-adv-x="606" d="M76 1053v63l366 174v-178zM426 938v-782q26 -46 56 -75.5t46 -35.5l17 -6v-39h-484v39q2 1 6.5 2.5t18 9t27 19t32 34.5t35.5 52v530q-26 46 -56 75.5t-46 35.5l-17 6v39h2q9 1 23.5 2t56 8t78.5 16.5t80 28t70 41.5h55z" />
<glyph unicode="&#xee;" horiz-adv-x="645" d="M547 1032l-242 78l-244 -78v55l244 195l242 -195v-55zM465 938v-782q26 -46 56 -75.5t47 -35.5l16 -6v-39h-484v39q2 1 6.5 2.5t18 9t27 19t32 34.5t35.5 52v530q-26 46 -56 75.5t-47 35.5l-16 6v39h2q9 1 23.5 2t56 8t78.5 16.5t80 28t70 41.5h55z" />
<glyph unicode="&#xef;" horiz-adv-x="790" d="M293 1153q0 -49 -33.5 -83t-83.5 -34q-48 0 -81.5 34t-33.5 83q0 47 34 82t81 35q49 0 83 -34.5t34 -82.5zM612 1270q47 0 82 -35t35 -82q0 -49 -34.5 -83t-82.5 -34t-82 34t-34 83q0 47 34.5 82t81.5 35zM545 938v-782q26 -46 56 -75.5t47 -35.5l16 -6v-39h-484v39 q2 1 6.5 2.5t18 9t27 19t32 34.5t35.5 52v530q-26 46 -56 75.5t-47 35.5l-16 6v39h2q9 1 23.5 2t56 8t78 16.5t79.5 28t70 41.5h56z" />
<glyph unicode="&#xf0;" horiz-adv-x="1077" d="M891 1108l-94 -25q113 -133 166 -283t53 -296q0 -262 -123.5 -395.5t-366.5 -133.5q-206 0 -335.5 123.5t-129.5 341.5q0 220 130.5 347.5t334.5 127.5q83 0 158 -38q-26 70 -76 159l-174 -45v125l103 27q-124 155 -263 231v60q250 -96 424 -250l193 49v-125zM530 78 q59 0 102.5 31t68 86.5t36 122t11.5 147.5q0 103 -20.5 178t-71.5 122.5t-130 47.5q-71 0 -121.5 -53.5t-74 -136t-23.5 -183.5q0 -150 68 -256t155 -106z" />
<glyph unicode="&#xf1;" horiz-adv-x="1284" d="M799 1194l47 -68q-85 -82 -156 -82q-32 0 -76.5 27t-74.5 27q-27 0 -46.5 -12.5t-52.5 -43.5l-49 66q46 44 82 64t78 20q35 0 82.5 -25.5t68.5 -25.5q44 0 97 53zM1104 627v-471q26 -46 56 -75.5t46 -35.5l17 -6v-39h-482v39q2 1 6.5 2t17.5 9t26.5 19t31.5 33t35 50v477 q0 50 -14.5 99t-51 86.5t-87.5 37.5q-56 0 -109 -24t-88 -58.5t-55 -59t-27 -38.5v-516q26 -46 56 -75.5t46 -35.5l17 -6v-39h-484v39q2 1 6.5 2.5t18 9t27 19t32 34.5t35.5 52v530q-26 46 -56 75.5t-46 35.5l-17 6v39q16 3 43 9t94.5 30.5t116.5 56.5h47l60 -131 q7 14 27.5 35.5t60 51.5t106 50.5t144.5 20.5q152 0 248 -97.5t96 -240.5z" />
<glyph unicode="&#xf2;" horiz-adv-x="1101" d="M365 1290l366 -174v-63l-366 59v178zM557 -25q128 0 238.5 65t177.5 182t67 259q0 140 -67 253t-177 175t-239 62q-137 0 -250 -62t-179.5 -174.5t-66.5 -253.5q0 -107 39 -201.5t105.5 -161t158 -105t193.5 -38.5zM555 868q74 0 124.5 -56t72.5 -141t22 -190 q0 -76 -12 -145t-36.5 -128t-67 -94.5t-97.5 -35.5q-74 0 -128.5 61.5t-79.5 151t-25 190.5q0 105 23.5 190t76 141t127.5 56z" />
<glyph unicode="&#xf3;" horiz-adv-x="1101" d="M731 1290v-178l-366 -59v63zM557 -25q128 0 238.5 65t177.5 182t67 259q0 140 -67 253t-177 175t-239 62q-137 0 -250 -62t-179.5 -174.5t-66.5 -253.5q0 -107 39 -201.5t105.5 -161t158 -105t193.5 -38.5zM555 868q74 0 124.5 -56t72.5 -141t22 -190q0 -76 -12 -145 t-36.5 -128t-67 -94.5t-97.5 -35.5q-74 0 -128.5 61.5t-79.5 151t-25 190.5q0 105 23.5 190t76 141t127.5 56z" />
<glyph unicode="&#xf4;" horiz-adv-x="1101" d="M557 1110l-244 -78v55l244 195l242 -195v-55zM557 -25q128 0 238.5 65t177.5 182t67 259q0 140 -67 253t-177 175t-239 62q-137 0 -250 -62t-179.5 -174.5t-66.5 -253.5q0 -107 39 -201.5t105.5 -161t158 -105t193.5 -38.5zM555 868q74 0 124.5 -56t72.5 -141t22 -190 q0 -76 -12 -145t-36.5 -128t-67 -94.5t-97.5 -35.5q-74 0 -128.5 61.5t-79.5 151t-25 190.5q0 105 23.5 190t76 141t127.5 56z" />
<glyph unicode="&#xf5;" horiz-adv-x="1101" d="M748 1194l47 -68q-85 -82 -156 -82q-32 0 -77 27t-75 27q-27 0 -46 -12t-52 -44l-49 66q46 44 82 64t78 20q35 0 82.5 -25.5t68.5 -25.5q44 0 97 53zM557 -25q128 0 238.5 65t177.5 182t67 259q0 140 -67 253t-177 175t-239 62q-137 0 -250 -62t-179.5 -174.5 t-66.5 -253.5q0 -107 39 -201.5t105.5 -161t158 -105t193.5 -38.5zM555 868q74 0 124.5 -56t72.5 -141t22 -190q0 -76 -12 -145t-36.5 -128t-67 -94.5t-97.5 -35.5q-74 0 -128.5 61.5t-79.5 151t-25 190.5q0 105 23.5 190t76 141t127.5 56z" />
<glyph unicode="&#xf6;" horiz-adv-x="1101" d="M338 1036q-48 0 -81.5 34t-33.5 83q0 47 34 82t81 35q49 0 83 -34.5t34 -82.5q0 -49 -33.5 -83t-83.5 -34zM774 1036q-48 0 -82.5 34t-34.5 83q0 47 35 82t82 35t82 -35t35 -82q0 -49 -34.5 -83t-82.5 -34zM557 -25q128 0 238.5 65t177.5 182t67 259q0 140 -67 253 t-177 175t-239 62q-137 0 -250 -62t-179.5 -174.5t-66.5 -253.5q0 -107 39 -201.5t105.5 -161t158 -105t193.5 -38.5zM555 868q74 0 124.5 -56t72.5 -141t22 -190q0 -76 -12 -145t-36.5 -128t-67 -94.5t-97.5 -35.5q-74 0 -128.5 61.5t-79.5 151t-25 190.5q0 105 23.5 190 t76 141t127.5 56z" />
<glyph unicode="&#xf7;" horiz-adv-x="1148" d="M698 846q0 50 -37 86.5t-90 36.5q-43 0 -77.5 -37t-34.5 -86q0 -55 34 -92t78 -37q55 0 91 36.5t36 92.5zM1026 532h-876l-27 -122h876zM698 106q0 50 -37 86.5t-90 36.5q-43 0 -77.5 -37t-34.5 -86q0 -55 34 -92t78 -37q55 0 91 36.5t36 92.5z" />
<glyph unicode="&#xf8;" horiz-adv-x="1101" d="M1036 840l-78 -82q82 -122 82 -277q0 -142 -67 -259t-177.5 -182t-238.5 -65q-146 0 -270 78l-51 -53h-132v43l89 90q-132 145 -132 348q0 141 66.5 253.5t179.5 174.5t250 62q185 0 322 -121l30 31h127v-41zM350 299l391 406q-59 163 -186 163q-75 0 -127.5 -56 t-76 -141t-23.5 -190q0 -92 22 -182zM770 561l-367 -385q65 -98 158 -98q55 0 97.5 35.5t67 94.5t36.5 128t12 145q0 26 -4 80z" />
<glyph unicode="&#xf9;" horiz-adv-x="1228" d="M475 1112v178l367 -174v-63zM1110 942v-786q26 -46 56 -75.5t46 -35.5l17 -6v-39h-320l-41 115q-12 -13 -35 -31.5t-67.5 -47t-109 -47t-134.5 -18.5q-42 0 -87.5 11t-91 34.5t-82 55.5t-59 79.5t-22.5 102.5v434q-26 46 -56 75.5t-46 35.5l-17 6v39q24 3 61.5 10t121 33 t127.5 57h55v-700q0 -70 48 -105t120 -35q39 0 77.5 12t70 32t54 37.5t44 37.5t24.5 23v442q-26 46 -56 75.5t-46 35.5l-17 6v39q14 0 63.5 7t128.5 31.5t120 59.5h53z" />
<glyph unicode="&#xfa;" horiz-adv-x="1290" d="M475 1053v63l367 174v-178zM1110 942v-786q26 -46 56 -75.5t46 -35.5l17 -6v-39h-320l-41 115q-12 -13 -35 -31.5t-67.5 -47t-109 -47t-134.5 -18.5q-42 0 -87.5 11t-91 34.5t-82 55.5t-59 79.5t-22.5 102.5v434q-26 46 -56 75.5t-46 35.5l-17 6v39q24 3 61.5 10t121 33 t127.5 57h55v-700q0 -70 48 -105t120 -35q39 0 77.5 12t70 32t54 37.5t44 37.5t24.5 23v442q-26 46 -56 75.5t-46 35.5l-17 6v39q14 0 63.5 7t128.5 31.5t120 59.5h53z" />
<glyph unicode="&#xfb;" horiz-adv-x="1290" d="M866 1032l-241 78l-244 -78v55l244 195l241 -195v-55zM1110 942v-786q26 -46 56 -75.5t46 -35.5l17 -6v-39h-320l-41 115q-12 -13 -35 -31.5t-67.5 -47t-109 -47t-134.5 -18.5q-42 0 -87.5 11t-91 34.5t-82 55.5t-59 79.5t-22.5 102.5v434q-26 46 -56 75.5t-46 35.5 l-17 6v39q24 3 61.5 10t121 33t127.5 57h55v-700q0 -70 48 -105t120 -35q39 0 77.5 12t70 32t54 37.5t44 37.5t24.5 23v442q-26 46 -56 75.5t-46 35.5l-17 6v39q14 0 63.5 7t128.5 31.5t120 59.5h53z" />
<glyph unicode="&#xfc;" horiz-adv-x="1290" d="M446 1036q-47 0 -80.5 34t-33.5 83q0 48 33.5 82.5t80.5 34.5q49 0 83 -34.5t34 -82.5q0 -49 -33.5 -83t-83.5 -34zM883 1036q-48 0 -82.5 34t-34.5 83q0 47 35 82t82 35t81.5 -35t34.5 -82q0 -49 -34 -83t-82 -34zM1110 942v-786q26 -46 56 -75.5t46 -35.5l17 -6v-39 h-320l-41 115q-12 -13 -35 -31.5t-67.5 -47t-109 -47t-134.5 -18.5q-42 0 -87.5 11t-91 34.5t-82 55.5t-59 79.5t-22.5 102.5v434q-26 46 -56 75.5t-46 35.5l-17 6v39q24 3 61.5 10t121 33t127.5 57h55v-700q0 -70 48 -105t120 -35q39 0 77.5 12t70 32t54 37.5t44 37.5 t24.5 23v442q-26 46 -56 75.5t-46 35.5l-17 6v39q14 0 63.5 7t128.5 31.5t120 59.5h53z" />
<glyph unicode="&#xfd;" horiz-adv-x="1198" d="M508 1053v63l366 174v-178zM1137 940v-39q-2 -1 -6.5 -2.5t-18 -9t-27 -19t-32 -34.5t-35.5 -52l-488 -1110q-36 -82 -96.5 -138.5t-136 -72.5t-154.5 31v55q95 -31 172.5 18.5t112.5 133.5l137 299l-385 784q-26 46 -56 75.5t-46 35.5l-17 6v39h510v-39q-2 -1 -6.5 -2.5 t-18 -9t-26.5 -19t-31.5 -34.5t-35.5 -52l237 -473l219 473v2q-26 45 -55 74t-45 35l-16 6v39h344z" />
<glyph unicode="&#xfe;" horiz-adv-x="1202" d="M428 1278v-360q101 53 229 53q96 0 184.5 -36.5t154.5 -100.5t105.5 -156t39.5 -197q0 -142 -67 -259t-178 -182t-239 -65q-125 0 -231 56v-604q26 -46 56 -75.5t46 -35.5l17 -6v-39h-484v39q2 0 6.5 1.5t18 9t26.5 18.5t32 33t36 50v1856q-26 46 -56 75.5t-46 35.5 l-17 6v39h486v-39q-2 -1 -6.5 -2.5t-18 -9t-27 -19t-32 -34.5t-35.5 -52zM662 78q55 0 97.5 35t66.5 94.5t36 128.5t12 145q0 105 -22 190t-72.5 141t-124.5 56q-75 0 -127.5 -56t-76 -141t-23.5 -190q0 -101 25 -190.5t80 -151t129 -61.5z" />
<glyph unicode="&#xff;" horiz-adv-x="1198" d="M469 1036q-48 0 -81.5 34t-33.5 83q0 47 34 82t81 35q49 0 83 -34.5t34 -82.5q0 -49 -34 -83t-83 -34zM905 1036q-48 0 -82.5 34t-34.5 83q0 47 35 82t82 35t82 -35t35 -82q0 -49 -34.5 -83t-82.5 -34zM1137 940v-39q-2 -1 -6.5 -2.5t-18 -9t-27 -19t-32 -34.5t-35.5 -52 l-488 -1110q-36 -82 -96.5 -138.5t-136 -72.5t-154.5 31v55q95 -31 172.5 18.5t112.5 133.5l137 299l-385 784q-26 46 -56 75.5t-46 35.5l-17 6v39h510v-39q-2 -1 -6.5 -2.5t-18 -9t-26.5 -19t-31.5 -34.5t-35.5 -52l237 -473l219 473v2q-26 45 -55 74t-45 35l-16 6v39h344z " />
<glyph unicode="&#x152;" horiz-adv-x="2152" d="M1980 0h-1009q-98 -29 -201 -29q-151 0 -282.5 56t-225 153t-147.5 234.5t-54 294.5q0 162 53.5 302t147.5 238.5t225.5 154.5t282.5 56q108 0 193 -26h905l117 -228h-52l-116 105h-441q-28 -13 -59 -60v-362q14 -21 28.5 -36t22.5 -19l8 -5h266q48 26 78.5 56t36.5 47 l6 16h37v-360h-37q0 2 -1.5 6.5t-9.5 18t-20 27t-35.5 32t-54.5 35.5h-270q-24 -12 -55 -58v-467q14 -21 28.5 -35.5t22.5 -18.5l8 -5h543l123 127h49zM1051 211v1010q-100 116 -281 116q-130 0 -226 -80.5t-146 -222t-50 -325.5q0 -175 49.5 -313.5t146.5 -220t226 -81.5 q180 0 281 117zM1339 1311h17q-7 2 -17 0z" />
<glyph unicode="&#x153;" horiz-adv-x="1718" d="M1657 516l-606 -119q-2 1 -3 0.5t-8 -2.5q14 -152 84.5 -237.5t192.5 -81.5q3 2 14.5 -0.5t40.5 3t59.5 14t73 32t80.5 57.5h62q-63 -111 -141.5 -160t-182.5 -49q-280 0 -418 156q-68 -73 -158.5 -113.5t-189.5 -40.5q-102 0 -193.5 38.5t-158 105t-105.5 161t-39 201.5 q0 141 66.5 253.5t179.5 174.5t250 62q99 0 189.5 -39t158.5 -109q126 148 338 148q101 0 182.5 -36t130.5 -95.5t75 -131.5t26 -149v-43zM561 78q55 0 97.5 35.5t67 94.5t36.5 128t12 145q0 105 -22 190t-72.5 141t-124.5 56q-75 0 -127.5 -56t-76 -141t-23.5 -190 q0 -101 25 -190.5t79.5 -151t128.5 -61.5zM1040 502l387 71q-6 68 -17.5 119.5t-32.5 92t-54 62t-78 21.5q-198 0 -209 -325z" />
<glyph unicode="&#x178;" horiz-adv-x="1292" d="M528 1518q-48 0 -81 33.5t-33 82.5q0 48 33.5 82.5t80.5 34.5q49 0 83 -34.5t34 -82.5q0 -49 -33.5 -82.5t-83.5 -33.5zM965 1518q-48 0 -82.5 33.5t-34.5 82.5q0 47 35 82t82 35t81.5 -35t34.5 -82q0 -49 -34 -82.5t-82 -33.5zM1231 1434v-39q-2 -1 -6.5 -2.5t-18 -9 t-27 -19t-32 -34.5t-35.5 -52l-328 -672v-450q26 -46 56 -75.5t46 -35.5l17 -6v-39h-504v39q2 1 6.5 2.5t18 9t27 19t32 34.5t35.5 52v450l-338 672q-26 46 -56 75.5t-46 35.5l-17 6v39h560v-39q-2 -1 -6.5 -2.5t-18 -9t-27 -19t-32 -34.5t-35.5 -52l233 -467l246 467 q-26 46 -56 75.5t-47 35.5l-16 6v39h369z" />
<glyph unicode="&#x2c6;" horiz-adv-x="280" d="M141 1303l-243 -78v55l243 195l242 -195v-55z" />
<glyph unicode="&#x2dc;" horiz-adv-x="249" d="M305 1499l47 -67q-85 -82 -155 -82q-32 0 -77 26.5t-75 26.5q-27 0 -46 -12t-52 -43l-49 65q46 44 81.5 64t77.5 20q35 0 83 -25.5t69 -25.5q43 0 96 53z" />
<glyph unicode="&#x2000;" horiz-adv-x="892" />
<glyph unicode="&#x2001;" horiz-adv-x="1784" />
<glyph unicode="&#x2002;" horiz-adv-x="892" />
<glyph unicode="&#x2003;" horiz-adv-x="1784" />
<glyph unicode="&#x2004;" horiz-adv-x="594" />
<glyph unicode="&#x2005;" horiz-adv-x="446" />
<glyph unicode="&#x2006;" horiz-adv-x="297" />
<glyph unicode="&#x2007;" horiz-adv-x="297" />
<glyph unicode="&#x2008;" horiz-adv-x="223" />
<glyph unicode="&#x2009;" horiz-adv-x="356" />
<glyph unicode="&#x200a;" horiz-adv-x="99" />
<glyph unicode="&#x2010;" horiz-adv-x="907" d="M846 596h-758l-27 -123h758z" />
<glyph unicode="&#x2011;" horiz-adv-x="907" d="M846 596h-758l-27 -123h758z" />
<glyph unicode="&#x2012;" horiz-adv-x="907" d="M846 596h-758l-27 -123h758z" />
<glyph unicode="&#x2013;" horiz-adv-x="1255" d="M1255 594h-1228l-27 -123h1229z" />
<glyph unicode="&#x2014;" horiz-adv-x="1869" d="M1870 594h-1843l-27 -123h1843z" />
<glyph unicode="&#x2018;" horiz-adv-x="436" d="M297 1542l-64 -94q41 -6 71 -40t30 -83q0 -46 -35 -82.5t-76 -36.5q-50 0 -85.5 35.5t-35.5 83.5q0 37 21 72h-2l176 268v-123z" />
<glyph unicode="&#x2019;" horiz-adv-x="436" d="M139 1329l64 94q-41 6 -71 40t-30 83q0 46 35 82.5t76 36.5q50 0 85.5 -35.5t35.5 -83.5q0 -36 -21 -71h2l-176 -269v123z" />
<glyph unicode="&#x201a;" horiz-adv-x="436" d="M139 -125l64 94q-41 6 -71 40t-30 83q0 46 35 82.5t76 36.5q50 0 85.5 -35.5t35.5 -83.5q0 -37 -21 -72h2l-176 -268v123z" />
<glyph unicode="&#x201c;" horiz-adv-x="710" d="M297 1542l-64 -94q41 -6 71 -40t30 -83q0 -46 -35 -82.5t-76 -36.5q-50 0 -85.5 35.5t-35.5 83.5q0 37 21 72h-2l176 268v-123zM571 1542l-63 -94q41 -6 70.5 -40t29.5 -83q0 -46 -34.5 -82.5t-75.5 -36.5q-50 0 -85.5 35.5t-35.5 83.5q0 39 20 72h-2l176 268v-123z" />
<glyph unicode="&#x201d;" horiz-adv-x="710" d="M139 1329l64 94q-41 6 -71 40t-30 83q0 46 35 82.5t76 36.5q50 0 85.5 -35.5t35.5 -83.5q0 -36 -21 -71h2l-176 -269v123zM414 1329l63 94q-41 6 -70.5 40t-29.5 83q0 46 34.5 82.5t75.5 36.5q50 0 85.5 -35.5t35.5 -83.5q0 -38 -20 -71h2l-176 -269v123z" />
<glyph unicode="&#x201e;" horiz-adv-x="710" d="M139 -125l64 94q-41 6 -71 40t-30 83q0 46 35 82.5t76 36.5q50 0 85.5 -35.5t35.5 -83.5q0 -37 -21 -72h2l-176 -268v123zM414 -125l63 94q-41 6 -70.5 40t-29.5 83q0 46 34.5 82.5t75.5 36.5q50 0 85.5 -35.5t35.5 -83.5q0 -39 -20 -72h2l-176 -268v123z" />
<glyph unicode="&#x2022;" horiz-adv-x="759" d="M596 627q0 -88 -64 -150.5t-153 -62.5q-88 0 -151.5 62.5t-63.5 150.5q0 87 64 152t151 65q89 0 153 -65t64 -152z" />
<glyph unicode="&#x2026;" horiz-adv-x="1234" d="M375 117q0 56 -42.5 97.5t-101.5 41.5q-50 0 -89.5 -42t-39.5 -97q0 -63 39 -105.5t90 -42.5q61 0 102.5 42t41.5 106zM750 117q0 56 -42.5 97.5t-101.5 41.5q-50 0 -89.5 -42t-39.5 -97q0 -63 39 -105.5t90 -42.5q61 0 102.5 42t41.5 106zM1133 117q0 56 -42.5 97.5 t-101.5 41.5q-50 0 -89.5 -42t-39.5 -97q0 -63 39 -105.5t90 -42.5q61 0 102.5 42t41.5 106z" />
<glyph unicode="&#x202f;" horiz-adv-x="356" />
<glyph unicode="&#x2039;" horiz-adv-x="497" d="M338 180l-256 301v43l258 297h55l-112 -319l112 -322h-57z" />
<glyph unicode="&#x203a;" horiz-adv-x="497" d="M416 524v-43l-256 -301h-58l113 322l-113 319h56z" />
<glyph unicode="&#x205f;" horiz-adv-x="446" />
<glyph unicode="&#x20ac;" horiz-adv-x="1513" d="M1391 264h61q-47 -86 -100 -144.5t-113.5 -90t-121.5 -44t-138 -12.5q-281 0 -457 145t-229 394h-232l27 123h186q-4 62 -4 94v39h-149l26 123h140q51 254 244.5 413.5t472.5 159.5q104 0 226.5 -32.5t215.5 -90.5l-86 -313h-47q-6 91 -22 146.5t-52 95t-95 55.5t-153 16 q-176 -9 -284.5 -126.5t-139.5 -323.5h363l-27 -123h-346v-39q0 -32 4 -94h309l-26 -123h-269q38 -200 148.5 -308t280.5 -108q138 0 210 31t177 137z" />
<glyph unicode="&#x2122;" horiz-adv-x="1335" d="M537 1391h-101q-12 -5 -24 -21v-397q11 -17 22.5 -28.5t17.5 -14.5l5 -2v-13h-185v13q20 6 43 45v397q-4 7 -9.5 12.5t-9.5 7.5l-3 1h-105l-43 -43h-22l47 86h387l47 -86h-20zM1212 1434v-13q-3 0 -7.5 -1.5t-16 -12.5t-19.5 -29v-407q8 -18 18.5 -29t17.5 -12l7 -2v-15 h-184v15q20 2 43 43v401l-141 -403q-12 -7 -23.5 -21t-16.5 -24l-5 -11h-19l-157 459v-401q10 -18 22 -29t19 -12l6 -2v-15h-131v15q19 2 37 43v407q-9 18 -20 29t-18 13l-6 1v13h173l127 -357l131 357h163z" />
<glyph unicode="&#x25fc;" horiz-adv-x="942" d="M0 942h942v-942h-942v942z" />
</font>
</defs>
</svg>
