<?xml version="1.0" standalone="no"?>
<!DOCTYPE svg PUBLIC "-//W3C//DTD SVG 1.1//EN" "http://www.w3.org/Graphics/SVG/1.1/DTD/svg11.dtd" >
<svg xmlns="http://www.w3.org/2000/svg" xmlns:xlink="http://www.w3.org/1999/xlink" version="1.1">
<metadata></metadata>
<defs>
<font id="rasmusbold_italic" horiz-adv-x="1632" >
<font-face units-per-em="2048" ascent="1638" descent="-410" />
<missing-glyph horiz-adv-x="614" />
<glyph horiz-adv-x="0" />
<glyph horiz-adv-x="682" />
<glyph unicode=" "  horiz-adv-x="614" />
<glyph unicode="&#x09;" horiz-adv-x="614" />
<glyph unicode="&#xa0;" horiz-adv-x="614" />
<glyph unicode="!" horiz-adv-x="835" d="M438 389l80 225l154 820h-273l-153 -820l8 -225h184zM440 119q0 56 -42 97.5t-101 41.5q-51 0 -92 -42t-41 -97q0 -62 40.5 -106t92.5 -44q60 0 101.5 43.5t41.5 106.5z" />
<glyph unicode="&#x22;" horiz-adv-x="624" d="M209 1057l49 131l57 246h-133l-59 -246v-131h86zM395 1057l49 131l58 246h-133l-60 -246v-131h86z" />
<glyph unicode="#" horiz-adv-x="1224" d="M891 758l-109 -254h146l-47 -123h-152l-162 -381h-121v37l148 344h-248l-162 -381h-121v37l148 344h-150l66 123h137l109 254h-150l66 123h137l238 553h116v-37l-221 -516h250l238 553h116v-37l-221 -516h125l-47 -123h-129zM756 758h-248l-109 -254h248z" />
<glyph unicode="$" horiz-adv-x="1146" d="M672 852l71 -57q275 -223 267 -428q-4 -115 -43 -194.5t-110 -122.5t-157 -61.5t-202 -19.5l-23 -112h-121l23 118q-65 11 -113.5 35t-111.5 68l-39 -68h-52v359h52q120 -232 288 -269l103 521l-72 67q-123 114 -169.5 201.5t-49.5 204.5q-3 107 60.5 191t167.5 129 t229 50l22 119h125l-24 -127q154 -23 292 -94l-92 -264h-45q-4 121 -47.5 174.5t-132.5 64.5zM567 940l78 397q-87 -12 -137.5 -62.5t-50.5 -129.5q0 -104 110 -205zM608 528l-86 -436q116 2 181 41.5t65 134.5q0 23 -1.5 42t-8 37t-10 30t-15.5 28.5t-17 24t-23.5 24.5 t-24.5 22.5t-29.5 25.5t-30.5 26z" />
<glyph unicode="%" horiz-adv-x="1277" d="M309 854q76 0 146.5 40.5t118.5 102.5t77 136.5t29 142.5q0 87 -53.5 138.5t-149.5 51.5q-62 0 -120 -25.5t-101.5 -68t-76.5 -94.5t-50.5 -107.5t-17.5 -105.5q0 -88 56 -149.5t142 -61.5zM1092 1434h125v-39l-1033 -1395h-123v39zM463 1417q78 0 78 -123 q0 -80 -34 -171.5t-87 -153.5t-101 -62q-17 0 -29.5 5.5t-19.5 17.5t-11.5 22t-6 30t-2 30t-0.5 32q0 78 31 165.5t81.5 147.5t100.5 60zM803 -27q76 0 146.5 40.5t118.5 102.5t77 136.5t29 142.5q0 87 -53.5 139t-149.5 52q-76 0 -146.5 -39.5t-117.5 -99.5t-75 -130 t-28 -133q0 -88 56.5 -149.5t142.5 -61.5zM956 537q78 0 78 -123q0 -80 -34 -171.5t-86.5 -153.5t-100.5 -62q-20 0 -34 9t-21 20.5t-10.5 33.5t-4 35.5t-0.5 38.5q0 78 31 165.5t81.5 147.5t100.5 60z" />
<glyph unicode="&#x26;" horiz-adv-x="1443" d="M1083 422l152 -266q26 -46 61.5 -75.5t57.5 -35.5l22 -6v-39h-307l-117 236q-79 -108 -197 -183.5t-233 -75.5q-213 0 -306 72t-93 234q0 61 27 121t65.5 106t98.5 96.5t106.5 82.5t111.5 75t93 63q-73 120 -95.5 186.5t-17.5 139.5q9 159 101 235.5t282 75.5 q116 -1 184 -74t68 -190q0 -46 -18 -88t-54.5 -80t-68.5 -65t-83 -65t-75 -58l174 -336l125 182q-25 44 -54 71.5t-45 33.5l-16 6v39h350v-39q-8 -4 -20 -12.5t-42.5 -37.5t-51.5 -61zM754 993l43 -63q29 23 73.5 55t66 49t46 42.5t34 53.5t9.5 64q0 82 -36.5 125t-135.5 43 q-64 0 -107 -13.5t-66 -41t-33 -59.5t-13 -79q-1 -22 5 -39.5t13 -26t22.5 -23.5t22.5 -23q13 -14 22 -23l11.5 -11.5t7.5 -9t15 -20.5zM893 348l-215 383q-64 -51 -100 -82t-77 -72.5t-61.5 -74.5t-33.5 -74.5t-11 -85.5q3 -73 56 -120.5t129 -47.5q77 0 168.5 52 t144.5 122z" />
<glyph unicode="'" horiz-adv-x="438" d="M209 1057l49 131l57 246h-133l-59 -246v-131h86z" />
<glyph unicode="(" horiz-adv-x="915" d="M854 1518v-113q-120 -108 -234 -276.5t-195.5 -369t-92.5 -370.5q-13 -153 -4 -302t37.5 -276.5t92 -239.5t158.5 -192v-102q-166 88 -298 268.5t-200 404.5t-55 437q9 139 84 309.5t186.5 325t250 288.5t270.5 208z" />
<glyph unicode=")" horiz-adv-x="872" d="M20 -723v113q120 108 234.5 276.5t196 369t92.5 370.5q13 153 3.5 301.5t-38 276t-92 239.5t-158.5 192v103q166 -88 297.5 -269t199 -404.5t54.5 -436.5q-9 -139 -83.5 -309.5t-185.5 -325t-249.5 -288.5t-270.5 -208z" />
<glyph unicode="*" horiz-adv-x="540" d="M463 1329l-133 -51l-41 156h-33l-39 -156l-141 51l-15 -24l99 -111l-99 -96l11 -41l145 41l39 -144h33l41 144l133 -41l16 41l-112 96l112 111z" />
<glyph unicode="+" horiz-adv-x="673" d="M61 653h242v240h123v-240h227v-123h-229v-247h-123v247h-240v123z" />
<glyph unicode="," horiz-adv-x="483" d="M82 -190l137 141q-108 20 -108 143q0 61 41.5 101.5t99.5 40.5q60 0 94.5 -41.5t34.5 -100.5q0 -93 -45 -143l-254 -252v111z" />
<glyph unicode="-" horiz-adv-x="907" d="M846 596h-758l-27 -123h758z" />
<glyph unicode="." horiz-adv-x="538" d="M457 117q0 56 -42.5 97.5t-101.5 41.5q-50 0 -89.5 -42t-39.5 -97q0 -63 39 -105.5t90 -42.5q61 0 102.5 42t41.5 106z" />
<glyph unicode="/" horiz-adv-x="737" d="M-23 0v39l664 1395h117v-39l-660 -1395h-121z" />
<glyph unicode="0" horiz-adv-x="1404" d="M494 -29q123 0 250.5 63.5t232.5 170.5t188.5 238.5t130.5 277t47 276.5q0 101 -38 190.5t-99.5 149.5t-140.5 94.5t-160 34.5q-122 0 -248.5 -62.5t-231 -166.5t-188 -231t-130 -265t-46.5 -258q0 -106 28.5 -198.5t81.5 -162.5t136.5 -110.5t186.5 -40.5zM872 1343 q45 0 78.5 -17t53.5 -44.5t32 -68t16.5 -80.5t4.5 -89q0 -146 -50 -316t-125.5 -308.5t-173.5 -231t-186 -92.5q-36 0 -63.5 12t-45.5 28.5t-30.5 47t-19 54.5t-9.5 65.5t-3.5 64.5t-0.5 66q0 190 76.5 402.5t200 359.5t245.5 147z" />
<glyph unicode="1" horiz-adv-x="780" d="M719 1434l-264 -1278q26 -46 55.5 -75.5t45.5 -35.5l17 -6v-39h-512v39q3 1 7.5 2t18 9t27.5 19.5t32.5 33.5t35.5 51l191 915q-26 46 -56 75.5t-47 35.5l-16 6v39q11 3 31 8.5t75.5 25t104.5 42t106 58.5t93 75h55z" />
<glyph unicode="2" horiz-adv-x="1226" d="M61 0v39q29 25 127 105t180.5 149t189.5 175t181 199t126.5 204t52.5 208q0 145 -42 204.5t-161 59.5q-179 0 -277 -143h-82q23 35 40.5 59t58.5 67t82 70t104 48.5t131 21.5q186 0 289.5 -93.5t103.5 -272.5q0 -85 -29 -164t-73 -141t-117 -134.5t-139.5 -127.5 t-162 -137.5t-165.5 -149.5h420l133 143h66l-166 -389h-871z" />
<glyph unicode="3" horiz-adv-x="1204" d="M1143 1378l-527 -483q193 -3 295 -92t101 -262q-1 -103 -46 -204.5t-121.5 -182t-189 -130t-237.5 -49.5q-100 0 -169 31.5t-110.5 85.5t-77.5 144h76q54 -88 116.5 -123t176.5 -35q91 0 165.5 66.5t113.5 165.5t39 202q0 92 -9.5 146t-36.5 88t-70 46.5t-116 14.5 q-50 0 -86.5 -7.5t-47.5 -15.5l-11 -8v55l389 355h-420v51q6 9 15.5 25t27.5 67t23 103h737v-54z" />
<glyph unicode="4" horiz-adv-x="1079" d="M811 346l-33 -192q26 -45 56 -74t46 -35l17 -6v-39h-514v39q3 1 7.5 2t18 9t27.5 19.5t32.5 33.5t35.5 51l33 192h-476v47l904 1041h53l-193 -985h166l-51 -103h-129zM248 451h303l92 462z" />
<glyph unicode="5" horiz-adv-x="1126" d="M504 1188l-103 -301q112 44 221.5 35.5t195.5 -49.5t139.5 -117.5t54.5 -167.5q1 -81 -20.5 -162.5t-70.5 -160t-119 -138.5t-175 -95t-230 -32q-116 0 -197.5 52.5t-138.5 187.5h64q51 -77 112 -107.5t177 -30.5q72 0 130 30t95 78.5t62 113t35 130.5t9 134 q-1 49 -17.5 88.5t-54.5 69t-93 41t-139.5 -1t-188.5 -52.5v45l211 656h602l-53 -203v-43h-508z" />
<glyph unicode="6" horiz-adv-x="1175" d="M1114 1434v-56q-538 -294 -620 -516q42 23 112.5 38t145.5 15q149 0 250.5 -80.5t101.5 -220.5q0 -131 -57 -251t-148.5 -204t-207 -134t-230.5 -50q-57 0 -112.5 13t-108 42t-92 71t-63.5 105.5t-24 139.5q0 178 86 352t231 314.5t335.5 250.5t400.5 171zM485 78 q57 0 121 40.5t117.5 106.5t89 160t35.5 190q0 238 -143 238q-79 0 -151.5 -52t-120.5 -129.5t-76.5 -165t-28.5 -161.5q0 -121 33.5 -174t123.5 -53z" />
<glyph unicode="7" horiz-adv-x="1009" d="M948 1434h-719q-12 -64 -28.5 -115.5t-26.5 -70.5l-10 -19v-41h551l-654 -1149v-39h99l788 1389v45z" />
<glyph unicode="8" horiz-adv-x="1171" d="M512 -27q102 0 203.5 32.5t183 88.5t132 138.5t50.5 175.5q0 68 -19 127t-56.5 108t-75.5 84.5t-94 79.5q45 21 91 55.5t88 81t68.5 107t26.5 123.5q0 131 -72.5 207t-210.5 83q-237 12 -373.5 -74.5t-136.5 -267.5q0 -47 11.5 -90t25 -72t43.5 -66t47 -54.5t56 -55.5 q-58 -28 -112 -60t-115.5 -80.5t-106.5 -100t-75 -118t-30 -134.5q0 -87 40 -151.5t107.5 -99.5t143 -51t160.5 -16zM731 885q-91 74 -130.5 125t-53.5 125q-7 25 -4.5 52t8.5 54t25 50.5t46 40.5t71.5 25.5t101.5 4.5q108 -7 148 -62.5t38 -148.5q-1 -41 -28 -84t-69 -78.5 t-79.5 -60.5t-73.5 -43zM322 324q0 44 11.5 86.5t27 74t43 63.5t47 51.5t52 43.5t45.5 32l39 24q9 6 13 8q211 -132 211 -361q0 -102 -80.5 -186t-193.5 -84q-108 0 -161.5 73.5t-53.5 174.5z" />
<glyph unicode="9" horiz-adv-x="1198" d="M725 575l37 64q-130 -53 -230 -53q-151 0 -266.5 83t-115.5 210q0 103 32.5 195.5t89 162.5t130 122t158.5 78.5t171 26.5q179 0 292.5 -102t113.5 -285q0 -139 -59 -274.5t-159.5 -249.5t-239 -218.5t-293 -186t-325.5 -146.5v80q543 284 664 493zM569 696 q127 0 214 113.5t87 308.5q0 35 -0.5 54t-3.5 49.5t-9 47t-18 37t-29 31t-43 18t-60 7.5q-112 0 -202.5 -126.5t-90.5 -311.5q0 -43 6.5 -80t23 -72t48.5 -55.5t77 -20.5z" />
<glyph unicode=":" horiz-adv-x="649" d="M526 766q0 56 -42 97.5t-101 41.5q-50 0 -89.5 -42t-39.5 -97q0 -63 39 -105.5t90 -42.5q61 0 102 42t41 106zM395 117q0 56 -42 97.5t-101 41.5q-50 0 -89.5 -42t-39.5 -97q0 -63 39 -105.5t90 -42.5q61 0 102 42t41 106z" />
<glyph unicode=";" horiz-adv-x="641" d="M537 766q0 56 -42.5 97.5t-101.5 41.5q-50 0 -89.5 -42t-39.5 -97q0 -63 39 -105.5t90 -42.5q61 0 102.5 42t41.5 106zM98 -190l138 141q-109 21 -109 143q0 61 41.5 101.5t99.5 40.5q60 0 94.5 -41.5t34.5 -100.5q0 -93 -45 -143l-254 -252v111z" />
<glyph unicode="&#x3c;" horiz-adv-x="874" d="M655 233v-151l-594 407v58l711 405v-145l-524 -291z" />
<glyph unicode="=" horiz-adv-x="995" d="M233 655l58 123h581l-57 -123h-582zM123 377l57 123h582l-57 -123h-582z" />
<glyph unicode="&#x3e;" horiz-adv-x="874" d="M219 801v151l594 -407v-58l-711 -405v145l525 291z" />
<glyph unicode="?" horiz-adv-x="995" d="M264 393v68q2 72 40 138t97.5 116.5t131 97.5t142 90.5t129 86t94.5 92.5t36 102q-1 96 -61 161t-151 92t-206 27q-160 0 -247 -75t-87 -213v-25h66q10 123 75.5 169t172.5 44q54 -1 89.5 -14t52 -37.5t22.5 -49.5t6 -59q0 -52 -27.5 -101t-71 -91.5t-96.5 -85.5 t-106 -91.5t-96.5 -101t-71 -122.5t-27.5 -148v-70h94zM358 119q0 56 -42 97.5t-101 41.5q-51 0 -92 -42t-41 -97q0 -62 40.5 -106t92.5 -44q60 0 101.5 43.5t41.5 106.5z" />
<glyph unicode="@" horiz-adv-x="1572" d="M1208 850l-123 -565q-5 -30 -16 -74q-5 -26 2 -44.5t25 -19.5l18 -2q119 0 197 113.5t78 278.5q0 118 -47.5 218t-128.5 167.5t-188 105t-226 37.5q-136 0 -252.5 -50.5t-194.5 -136t-122 -198t-44 -236.5q0 -163 76 -303t211.5 -224.5t298.5 -84.5q89 0 209 22t195 54 v-125q-164 -76 -404 -76q-195 0 -359.5 102.5t-258 271.5t-93.5 363q0 149 56 285t152.5 236.5t235 160.5t294.5 60q142 0 270.5 -45.5t227 -127t156.5 -205t58 -269.5q0 -226 -109 -355.5t-286 -132.5h-8q-84 0 -143.5 26t-67.5 81l-14 -17q-35 -44 -102.5 -69t-139.5 -25 q-140 0 -237.5 81.5t-96.5 215.5q1 95 36 179.5t91.5 144.5t128 104.5t145.5 66.5t144 23q49 0 103.5 -20.5t88.5 -59.5q71 28 113 68h51zM666 131q57 0 105 30.5t79 79.5t53 113t31.5 129t9.5 129q0 32 -1.5 52t-7.5 44t-17 37.5t-31.5 22.5t-50.5 8q-119 -3 -213.5 -138.5 t-94.5 -338.5q0 -84 33 -126t105 -42z" />
<glyph unicode="A" d="M1331 1434l123 -1282q26 -44 55.5 -72.5t45.5 -34.5l16 -6v-39h-527v39q2 1 6.5 2t17.5 9t26.5 19.5t31.5 33.5t35 51l-22 252h-590l-176 -250q26 -46 56 -75.5t47 -35.5l16 -6v-39h-431v39q3 1 8.5 2.5t22.5 9t33.5 19t38.5 34.5t41 52l850 1165q62 17 116.5 45.5 t78.5 47.5l24 20h57zM1071 1145l-434 -617h489z" />
<glyph unicode="B" horiz-adv-x="1423" d="M274 1434h576q148 0 260 -31t182 -102.5t70 -178.5q0 -68 -32 -131t-79.5 -106t-100.5 -70.5t-97 -32.5q122 -20 189.5 -100.5t64.5 -228.5q-2 -103 -58 -191t-143 -144t-190.5 -87t-204.5 -31h-650v39q2 1 6.5 2t18 9t27 19.5t32 33.5t35.5 51l213 1124q-26 46 -56 75.5 t-47 35.5l-16 6v39zM811 1311h-92q-33 -13 -60 -60l-71 -370q11 -16 24 -30t20 -20l7 -6h170q100 9 186 91t86 184q0 111 -68 162t-202 49zM510 123h137q70 0 135.5 22t119 63.5t86 107t32.5 145.5q0 119 -53 174.5t-193 64.5h-174q-2 0 -9.5 -5t-21.5 -20t-26 -34l-88 -461 q10 -16 24 -30.5t23 -20.5z" />
<glyph unicode="C" horiz-adv-x="1372" d="M1198 1028h-47q-4 63 -10 103t-18.5 79t-32 61t-51.5 39.5t-76.5 24t-106.5 6.5q-104 -4 -190 -50t-144 -119.5t-98 -169t-58 -197t-18 -205.5q0 -264 94.5 -384t282.5 -120q141 0 220.5 32t182.5 136h58q-47 -86 -102 -144.5t-118 -90t-126 -44t-140 -12.5 q-317 0 -478 162t-161 465q0 180 54.5 337t155.5 274.5t255 185t342 67.5q108 0 230 -29.5t213 -86.5z" />
<glyph unicode="D" horiz-adv-x="1544" d="M272 1434h541q200 0 350 -68.5t235 -205t85 -326.5q0 -162 -52.5 -300t-141.5 -235t-206.5 -165.5t-247.5 -101t-264 -32.5h-510v39q2 1 6.5 2t17.5 9t26.5 19t31.5 33t35 50l213 1126q-26 46 -56 75.5t-47 35.5l-16 6v39zM504 123h88q102 -1 192.5 30t166 93t130 150 t85 209t30.5 263q0 239 -87.5 341t-291.5 102h-100q-29 -13 -60 -60l-204 -1073q9 -16 21.5 -29.5t21.5 -19.5z" />
<glyph unicode="E" horiz-adv-x="1396" d="M61 0v39q2 1 6.5 2t18 9t27 19.5t32 33.5t35.5 51l213 1128q-26 44 -55.5 72.5t-45.5 34.5l-16 6v39h924l135 -252h-59l-152 129h-405q-26 -13 -57 -56l-72 -374q14 -20 28.5 -34.5t22.5 -18.5l8 -5h277q29 1 70 27.5t68 53.5l26 26h28l-63 -336h-29q-1 4 -3.5 10.5 t-11.5 23t-19.5 30t-28 26.5t-37.5 16h-322q-28 -12 -59 -59l-88 -459q14 -21 28.5 -35.5t22.5 -18.5l8 -5h535l186 129h55l-170 -252h-1061z" />
<glyph unicode="F" horiz-adv-x="1335" d="M1063 1311h-344q-29 -13 -60 -60l-71 -370q14 -20 28.5 -34.5t22.5 -18.5l8 -5h219q29 1 70 27.5t68 53.5l26 26h29l-64 -336h-28q-1 4 -3.5 10.5t-12 23t-20 30t-28 26.5t-37.5 16h-264q-28 -12 -59 -59l-94 -487q26 -45 55.5 -74t45.5 -35l17 -6v-39h-506v39q2 1 6.5 2 t18 9t27 19.5t32 33.5t35.5 51l213 1124q-26 49 -56 78t-46.5 36t-16.5 3v39h863v-2l2 2l135 -252h-60z" />
<glyph unicode="G" horiz-adv-x="1441" d="M1380 823v-39q-2 0 -6.5 -1.5t-18 -9t-26.5 -19t-31.5 -33.5t-35.5 -51l-107 -477q-22 -46 -52 -81.5t-58 -58.5t-68.5 -39t-69 -24t-76 -12t-73 -4.5t-75.5 -0.5h-15q-313 0 -460 159.5t-147 467.5q0 181 53.5 337.5t152.5 274t252 185t341 67.5q108 0 230 -29.5 t213 -86.5l-113 -320h-47q-4 63 -10 103t-18.5 79t-32 61t-51.5 39.5t-76.5 24t-106.5 6.5q-104 -4 -189 -50t-142 -119t-96 -169t-56 -197t-17 -206q0 -270 80.5 -387t263.5 -117q128 0 172 8l125 566q-26 45 -56 73.5t-47 34.5l-16 6v39h510z" />
<glyph unicode="H" horiz-adv-x="1712" d="M1651 1434v-39q-2 -1 -6.5 -2.5t-18 -9t-27 -19t-32 -34.5t-35.5 -52v2l-217 -1126q26 -45 56 -74t47 -35l16 -6v-39h-506v39q2 1 6.5 2t18 9t27 19.5t32 33.5t35.5 51l92 491q-13 20 -27.5 34t-22.5 19l-8 4h-479q-28 -12 -59 -59l-94 -489q26 -45 55.5 -74t45.5 -35 l17 -6v-39h-506v39q2 1 6.5 2t18 9t27 19.5t32 33.5t35.5 51l213 1124q-26 49 -56 78t-46.5 36t-16.5 3v39h510v-39q-2 -1 -6.5 -2.5t-18 -9t-26.5 -19t-31.5 -34.5t-35.5 -52v2l-76 -397q13 -20 27 -34.5t22 -18.5l8 -5h479q29 13 58 58l76 395q-26 46 -56 75.5t-46 35.5 l-17 6v39h510z" />
<glyph unicode="I" horiz-adv-x="845" d="M784 1434v-39q-2 -1 -6.5 -2.5t-18 -9t-26.5 -19t-31.5 -34.5t-35.5 -52v2l-217 -1126q26 -45 55.5 -74t45.5 -35l17 -6v-39h-506v39q2 1 6.5 2t18 9t27 19.5t32 33.5t35.5 51l213 1124q-26 46 -56 75.5t-47 35.5l-16 6v39h510z" />
<glyph unicode="J" horiz-adv-x="999" d="M938 1434v-39q-2 -1 -6.5 -2.5t-18 -9t-27 -19t-32 -34.5t-35.5 -52l-235 -1278q-20 -99 -65.5 -174t-104 -115.5t-122.5 -57t-124.5 -4t-106.5 49.5v59q55 -33 94.5 -35.5t70.5 28t52.5 90.5t40.5 159l224 1278q-26 46 -56 75.5t-47 35.5l-16 6v39h514z" />
<glyph unicode="K" horiz-adv-x="1585" d="M799 866l446 -716q36 -44 79.5 -71.5t69.5 -33.5l25 -6v-39h-637v39q2 1 6.5 2t18 9t27 19.5t32 33.5t35.5 51l-332 536l-20 -18l-100 -518q26 -45 55.5 -74t45.5 -35l17 -6v-39h-506v39q2 1 6.5 2t18 9t27 19.5t32 33.5t35.5 51l213 1124q-26 46 -56 75.5t-47 35.5 l-16 6v39h510v-39q-6 0 -20 -6t-43.5 -35.5t-54.5 -75.5v2l-82 -420l534 420q-25 45 -54.5 74t-45.5 35l-17 6v39h523v-39q-5 0 -35.5 -10.5t-85 -40t-98.5 -66.5z" />
<glyph unicode="L" horiz-adv-x="1314" d="M63 0v39q2 1 6.5 2t17.5 9t26.5 19t31.5 33t35 50l213 1126q-26 46 -56 75.5t-47 35.5l-16 6v39h510v-39q-2 -1 -6.5 -2.5t-18 -9t-26.5 -19t-31.5 -34.5t-35.5 -52v2l-213 -1110q7 -15 18 -26.5t18 -15.5l7 -5h530l180 129h47l-174 -252h-1016z" />
<glyph unicode="M" horiz-adv-x="1923" d="M1862 1434v-39q-2 -1 -6.5 -2.5t-18 -9t-27 -19t-32 -34.5t-35.5 -52v2l-217 -1126q26 -45 56 -74t46 -35l17 -6v-39h-506v39q6 1 17.5 6t42 34t56.5 73l199 1048l-557 -1044q-9 -7 -23 -19t-48 -52.5t-58 -84.5h-33l-231 1208l-203 -1054q26 -45 56 -74t47 -35l16 -6 v-39h-359v39q2 1 6.5 2t17.5 9t26.5 19t31.5 33t35 50l213 1126q-26 46 -56 75.5t-47 35.5l-16 6v39h500l150 -949l526 949h414z" />
<glyph unicode="N" horiz-adv-x="1562" d="M1501 1434v-39q-2 -1 -6.5 -2.5t-18 -9t-27 -19t-32 -34.5t-35.5 -52v2l-245 -1280h-33l-621 1104l-182 -950q26 -45 56 -74t47 -35l16 -6v-39h-359v39q2 1 6.5 2t17.5 9t26.5 19t31.5 33t35 50l211 1120l-70 123v39h318l493 -930l146 774q-26 46 -56 75.5t-46 35.5 l-17 6v39h344z" />
<glyph unicode="O" horiz-adv-x="1523" d="M918 1481q248 0 396 -150t148 -418q0 -140 -38 -277t-113 -257t-177 -212t-239.5 -145t-290.5 -53q-247 0 -395 150.5t-148 417.5q0 141 38 278t113 257t177 211.5t239 144.5t290 53zM633 92q108 0 199.5 56.5t153 147t105.5 206.5t63.5 233.5t19.5 229.5 q0 203 -61.5 298t-221.5 95q-91 0 -171 -39.5t-138 -107t-103.5 -154.5t-73.5 -185.5t-42.5 -196.5t-14.5 -190q0 -203 62.5 -298t222.5 -95z" />
<glyph unicode="P" horiz-adv-x="1368" d="M274 1434h578q236 0 345.5 -84t109.5 -267q0 -94 -37 -180.5t-107 -156.5t-184 -112t-256 -42h-141q-29 -12 -60 -57l-73 -381q26 -45 55.5 -74t45.5 -35l17 -6v-39h-506v39q2 1 6.5 2t18 9t27 19.5t32 33.5t35.5 51l213 1124q-26 46 -56 75.5t-47 35.5l-16 6v39z M625 715h53q83 0 144 19.5t98.5 51.5t60.5 80.5t31 100t8 116.5q0 62 -7.5 99t-32.5 69.5t-78 46.5t-138 13h-45q-2 0 -10 -5.5t-23 -20.5t-27 -34l-92 -481q14 -19 28.5 -33t22.5 -18z" />
<glyph unicode="Q" horiz-adv-x="1523" d="M836 -299l-277 270q-228 14 -363 162.5t-135 403.5q0 141 38 278t113 257t177 211.5t239 144.5t290 53q248 0 396 -150t148 -418q0 -164 -54 -323t-150 -288.5t-241 -218t-315 -108.5l183 -57l233 -184v-33h-282zM633 92q108 0 199.5 56.5t153 147t105.5 206.5 t63.5 233.5t19.5 229.5q0 203 -61.5 298t-221.5 95q-91 0 -171 -39.5t-138 -107t-103.5 -154.5t-73.5 -185.5t-42.5 -196.5t-14.5 -190q0 -203 62.5 -298t222.5 -95z" />
<glyph unicode="R" horiz-adv-x="1337" d="M967 578l153 -388q50 -52 89 -89.5t53 -48.5l14 -11v-41h-389l-225 651h-70q-29 -12 -60 -57l-83 -440q26 -45 55.5 -74t45.5 -35l17 -6v-39h-506v39q2 1 6.5 2t18 9t27 19.5t32 33.5t35.5 51l213 1124q-26 46 -56 75.5t-47 35.5l-16 6v39h506q222 0 351 -84.5 t129 -259.5q0 -157 -109.5 -273.5t-300.5 -152.5zM639 774h16q167 0 242.5 79.5t75.5 236.5q0 60 -12 101t-31 65t-53.5 36.5t-69 16t-88.5 2.5q-4 -1 -11 -4.5t-23 -19t-26 -36.5l-79 -417q14 -21 28.5 -36t22.5 -20z" />
<glyph unicode="S" horiz-adv-x="1146" d="M616 897l127 -102q275 -223 267 -428q-4 -94 -31.5 -164.5t-73 -114.5t-113 -71t-142 -37.5t-169.5 -10.5q-117 0 -186.5 23t-142.5 76l-39 -68h-52v369h52q37 -71 77.5 -123t76 -80.5t77.5 -45.5t73.5 -22t71.5 -6q50 -1 90 3.5t76.5 16t60.5 31t38 51.5t14 74 q0 40 -7.5 72t-19 53.5t-34 45.5t-42.5 41t-55.5 46.5t-62.5 55.5l-115 106q-123 114 -169.5 201.5t-49.5 204.5q-3 111 65 196.5t178 129.5t240 44q91 0 200 -31t189 -71l-92 -264h-45q-4 141 -63.5 192t-188.5 51q-107 0 -173 -52.5t-66 -143.5q0 -120 159 -248z" />
<glyph unicode="T" horiz-adv-x="1460" d="M1276 1434l123 -246h-51l-125 123h-291q-29 -13 -58 -58l-212 -1099q26 -45 55.5 -74t46.5 -35l16 -6v-39h-506v39q2 1 6.5 2t18 9t27 19.5t32 33.5t35.5 51l209 1101q-14 19 -28 33t-22 18l-7 5h-309l-130 -123h-45l142 246h1073z" />
<glyph unicode="U" horiz-adv-x="1486" d="M1425 1434v-39q-2 -1 -6.5 -2.5t-18 -9t-26.5 -19t-31.5 -34.5t-35.5 -52l-133 -688q-26 -137 -73.5 -244t-106 -175.5t-132.5 -113t-148 -62.5t-157 -18q-166 0 -273 38.5t-158.5 112.5t-62 183.5t16.5 251.5l125 717q-25 45 -54.5 74t-46.5 35l-16 6v39h506v-39 q-2 -1 -6.5 -2t-18 -9t-27 -19.5t-32 -33.5t-35.5 -51l-125 -717q-30 -176 -29 -245q2 -157 117 -200q49 -18 119 -18q108 0 194.5 38t145 106.5t96 154t58.5 191.5l133 688q-26 46 -56 75.5t-46 35.5l-17 6v39h360z" />
<glyph unicode="V" horiz-adv-x="1380" d="M1319 1434v-39q-2 -1 -6.5 -2.5t-18 -9t-27 -19t-32 -34.5t-35.5 -52l-678 -1161q-49 -39 -84 -117h-35l-223 1278q-26 46 -56 75.5t-46 35.5l-17 6v39h519v-39q-2 -1 -6.5 -2.5t-18 -9t-27 -19t-32 -34.5t-35.5 -52l-2 6l127 -821l471 817q-26 45 -56 74t-47 35l-16 6 v39h381z" />
<glyph unicode="W" horiz-adv-x="1968" d="M1907 1434v-39q-6 -1 -17 -6t-41 -32t-55 -69l-545 -1171q-6 -4 -15.5 -11.5t-29 -38t-26.5 -67.5h-52v2l-2 -2l-178 922l-393 -805q-5 -3 -14 -9.5t-29.5 -35t-32.5 -66.5v-6h-51v2l-2 -2l-246 1280q-25 45 -54.5 74t-45.5 35l-17 6v39h543v-39q-2 -1 -6.5 -2t-18 -9 t-27 -19.5t-32 -33.5t-35.5 -51l121 -774l402 815q71 50 108 113h51l142 -899l344 745q-25 45 -54.5 74t-46.5 35l-16 6v39h371z" />
<glyph unicode="X" horiz-adv-x="1703" d="M975 752l274 -605q25 -43 54 -70t45 -33l16 -5v-39h-549v39q2 1 6.5 2.5t18 9t27 19t32 34.5t35.5 52l-170 376l-361 -376q26 -46 56 -75.5t47 -35.5l16 -6v-39h-461v39q7 1 20.5 5.5t55 30.5t82.5 68l490 510l-285 637q-25 41 -53.5 67t-44.5 32l-15 6v39h543v-39 q-2 -1 -6.5 -2t-18 -9t-27 -19.5t-32 -33.5t-35.5 -51l185 -408l391 408q-26 45 -56 74t-47 35l-16 6v39h450v-39q-59 -17 -122 -76z" />
<glyph unicode="Y" horiz-adv-x="1425" d="M1364 1434v-39q-7 -1 -20 -5.5t-49.5 -29t-69.5 -60.5l-539 -692l-88 -454q26 -45 56 -74t46 -35l17 -6v-39h-508v39q2 1 6.5 2t18 9t27 19.5t32 33.5t35.5 51l86 452l-234 672q-26 46 -56 75.5t-46 35.5l-17 6v39h549v-39q-2 -1 -6.5 -2.5t-18 -9t-26.5 -19t-31.5 -34.5 t-35.5 -52l-3 4l168 -514l398 514q-26 44 -55.5 72.5t-45.5 34.5l-16 6v39h426z" />
<glyph unicode="Z" horiz-adv-x="1390" d="M1255 252l-170 -252l-10 20l8 -20h-1022v39l863 1272h-414l-150 -101h-59l139 224h889v-39l-866 -1272h561l186 129h45z" />
<glyph unicode="[" horiz-adv-x="1054" d="M967 1460h-211q-29 -12 -60 -59l-268 -1364q14 -20 28 -34.5t22 -18.5l7 -4h256v-103h-557l336 1686h494z" />
<glyph unicode="\" horiz-adv-x="737" d="M94 1434l664 -1395v-39h-119l-659 1393v41h114z" />
<glyph unicode="]" horiz-adv-x="1030" d="M41 -20h258q28 12 59 59l256 1376l-4 -14q-14 21 -28.5 35.5t-22.5 19.5l-8 4h-252l43 103h504l-305 -1686h-500v103z" />
<glyph unicode="^" horiz-adv-x="845" d="M496 1427l288 -469h-143l-217 355l-221 -355h-142l287 469h148z" />
<glyph unicode="_" horiz-adv-x="1505" d="M123 -274l57 122h1202l-57 -122h-1202z" />
<glyph unicode="`" horiz-adv-x="282" d="M-41 1511l367 -217v-61l-367 102v176z" />
<glyph unicode="a" horiz-adv-x="1208" d="M1147 936l-166 -772q-6 -30 2 -51t29 -21q31 0 73 35l33 -41q-122 -111 -244 -111q-38 0 -71.5 28t-38.5 87q-52 -52 -135.5 -86.5t-165.5 -34.5q-169 0 -286 98t-116 259q1 115 43.5 216.5t110.5 174t154 126t176 80t174 27.5q57 2 124 -22.5t109 -73.5q79 31 133 82h62 zM494 72q69 0 126.5 36.5t95.5 95.5t64 136t37.5 154.5t11.5 154.5q0 38 -1.5 62t-9 53t-21 45t-38.5 27t-61 10q-91 -2 -175 -73t-139.5 -204.5t-55.5 -296.5q0 -200 166 -200z" />
<glyph unicode="b" horiz-adv-x="1198" d="M655 1602l-159 -744q129 76 258 76q180 1 281.5 -107.5t101.5 -265.5q0 -126 -59.5 -238.5t-152.5 -187.5t-206 -118.5t-221 -43.5q-62 0 -135 37.5t-111 85.5l-133 -96h-58l289 1354q-5 36 -27.5 61.5t-42.5 32.5l-20 8v45q10 1 27 3t64 10t88 18.5t88 29.5t75 42h51v-2 h2zM528 76q88 0 156 48t107 129.5t58 176.5t19 199q0 37 -2 62t-9.5 54t-21.5 46.5t-40 29t-62 10.5q-98 -2 -180 -80t-128 -203.5t-46 -266.5q0 -205 149 -205z" />
<glyph unicode="c" horiz-adv-x="1040" d="M831 178h-71q-63 -66 -121.5 -85t-130.5 -19q-105 0 -142.5 61t-37.5 187q0 121 46.5 241t132 201.5t185.5 81.5q22 0 40 -4t31.5 -9.5t24.5 -17t18.5 -20.5t14 -26t10 -28t6.5 -32t4 -32.5t3.5 -35t3.5 -33.5h45l86 266q-139 74 -287 74q-113 0 -228.5 -54.5 t-203.5 -139.5t-143.5 -194t-55.5 -212q0 -172 109.5 -275.5t321.5 -103.5q220 0 339 209z" />
<glyph unicode="d" horiz-adv-x="1370" d="M1309 1602l-308 -1438q-6 -30 2 -51t29 -21q32 0 74 35l33 -41q-122 -111 -244 -111q-40 0 -72.5 28.5t-36.5 88.5l-10 -12q-43 -52 -133 -81.5t-180 -29.5q-169 0 -286 98t-116 259q1 115 43.5 216.5t110.5 174t154 126t176 80t174 27.5q39 2 91 -11t97 -38l99 453 q-5 36 -28 61.5t-43 32.5l-20 8v45q10 1 27 3t64 10t88 18.5t88 29.5t75 42h52v-2zM494 72q69 0 128.5 36.5t100.5 96t70.5 135.5t43 154.5t13.5 154.5q0 91 -33.5 144.5t-118.5 52.5q-91 -2 -175 -73t-139.5 -204.5t-55.5 -296.5q0 -200 166 -200z" />
<glyph unicode="e" horiz-adv-x="1042" d="M772 182h84q-81 -120 -167.5 -166.5t-215.5 -46.5q-202 0 -307 107t-105 278q0 106 49.5 213t132 191t199.5 137t242 53q77 0 142.5 -23.5t110 -75.5t44.5 -124q0 -122 -167.5 -223t-498.5 -133q-24 -145 17.5 -221.5t165.5 -75.5q83 2 145.5 23t128.5 87zM647 844 q-109 0 -197.5 -103.5t-125.5 -267.5q134 21 222.5 47t134 58.5t62.5 66.5t17 80q0 59 -29.5 89t-83.5 30z" />
<glyph unicode="f" horiz-adv-x="1413" d="M1274 1210h-41q-4 24 -9 44.5t-13.5 42t-19 35.5t-25 25.5t-33 11.5t-41.5 -7q-56 -21 -94.5 -85t-69.5 -200l-49 -215l211 27l-27 -109l-203 -24l-145 -756q-13 -65 -52 -130t-92.5 -118t-119.5 -91.5t-131 -56t-129 -6.5t-113 54l-17 14l68 215h35q3 -22 5.5 -35.5 t7.5 -36t10.5 -36t13 -31t17.5 -26t22 -15t28 -4.5t35 12q50 26 88.5 99t52.5 132l13 60l137 680q-15 38 -40 61.5t-42 28.5l-18 4v39l129 18l57 234q22 92 77.5 176.5t140 148.5t191.5 87.5t232 -7.5l31 -8z" />
<glyph unicode="g" horiz-adv-x="1486" d="M1425 936l-139 -184q6 -17 6 -58q0 -206 -144.5 -358t-375.5 -164q-38 -7 -90.5 -35.5t-85.5 -52.5l-33 -25q6 -7 11.5 -13t14 -11t13 -8.5t16.5 -8.5t17.5 -7.5t22.5 -8t25 -8t31.5 -9t35.5 -10.5q116 -34 194 -78.5t115 -95t49 -108.5t-4 -119q-12 -58 -46 -103.5 t-85 -73.5t-106 -47.5t-121.5 -28t-117 -12t-106.5 -3.5q-248 0 -354.5 68.5t-106.5 224.5q0 39 25 78t55 65.5t81.5 56.5t76 42t68.5 32q-14 5 -33.5 14.5t-50.5 29t-61 51.5t-48 71l160 86l225 47q-68 12 -117.5 39.5t-76 59t-42 75t-19.5 75.5t-5 73q-2 82 31.5 155 t93.5 127t138 94t167 60t178 20q74 0 164 -27t121 -61l160 74h73zM1026 674v7q0 26 -1 41.5t-8.5 42.5t-22 42.5t-44.5 28t-73 12.5q-78 0 -139.5 -30t-98.5 -81t-55.5 -113t-18.5 -130q0 -107 29.5 -166.5t105.5 -59.5q102 0 178 58t112 148.5t36 199.5zM760 -283 q-44 16 -141 45t-130 43q-82 -29 -134 -77.5t-52 -114.5q0 -120 55.5 -162.5t190.5 -42.5q318 0 346 103q23 81 -1.5 122t-133.5 84z" />
<glyph unicode="h" horiz-adv-x="1200" d="M1135 643l-154 -477q-8 -30 1 -52t30 -22q31 0 73 35l33 -41q-122 -111 -244 -111q-85 0 -130 48t-15 149l158 512q10 33 -1.5 62t-36.5 46t-54 27t-56 10q-46 1 -90 -13.5t-74.5 -35.5t-56.5 -45t-39 -41t-18 -26l-146 -668h-254l289 1348q-26 45 -56.5 74t-47.5 36 l-17 6v39h2l13 1q13 2 36.5 5.5t53.5 8t66 12.5t70.5 17.5t70 24t63.5 30.5h51l-161 -754q116 98 313 98q84 0 166.5 -40.5t131.5 -112.5t30 -150z" />
<glyph unicode="i" horiz-adv-x="620" d="M418 1124q-58 0 -100 43t-42 103q0 59 42 101t100 42t99.5 -42t41.5 -101q0 -60 -41.5 -103t-99.5 -43zM485 936l-145 -682q-1 -5 -18 -88q-6 -31 1.5 -52.5t28.5 -21.5q32 0 74 35l33 -41q-122 -111 -244 -111q-83 0 -125.5 47.5t-19.5 149.5l22 102l90 412 q-5 36 -27.5 61.5t-42.5 32.5l-20 8v46q27 2 70 7.5t135.5 32t136.5 62.5h51z" />
<glyph unicode="j" horiz-adv-x="927" d="M727 1124q-58 0 -99.5 43t-41.5 103q0 59 41.5 101t99.5 42t99.5 -42t41.5 -101q0 -60 -41.5 -103t-99.5 -43zM399 788v46q27 2 70 7.5t135.5 32t136.5 62.5h52l-234 -1077q-28 -123 -85.5 -208t-127 -119.5t-144.5 -28.5t-141 55v53q30 -16 55.5 -21t44.5 -2t36.5 20 t30 35.5t26.5 54t24 66t25 80.5l186 842q-5 36 -27.5 61.5t-42.5 32.5z" />
<glyph unicode="k" horiz-adv-x="1175" d="M1114 936v-39q-92 0 -158 -41l-335 -258l397 -547v-26l-275 -25l-303 444l-39 -32l-88 -412h-252l289 1348q-26 45 -56.5 74t-47.5 36l-17 6v39h2l13 1q13 2 36.5 5.5t53.5 8t66 12.5t70.5 17.5t70 24t63.5 30.5h51l-217 -1014l346 264q-11 17 -24 29t-20 16l-7 4v35h381 z" />
<glyph unicode="l" horiz-adv-x="688" d="M627 1602l-305 -1436q-6 -31 1.5 -52.5t28.5 -21.5q32 0 74 35l33 -41q-122 -111 -244 -111q-83 0 -125.5 47.5t-19.5 149.5l254 1180q-4 36 -26.5 61.5t-43.5 32.5l-21 8v45q10 1 27 3t64 10t88 18.5t88 29.5t75 42h52z" />
<glyph unicode="m" horiz-adv-x="1820" d="M1755 643l-153 -477q-8 -30 0.5 -52t29.5 -22q32 0 74 35l33 -41q-122 -111 -244 -111q-85 0 -130 48t-15 149l157 512q13 44 -10.5 78.5t-61.5 50.5t-75 16q-56 5 -105.5 -14.5t-79 -50.5t-46.5 -57t-21 -41l-147 -666h-250l153 686q10 65 -29.5 104t-95.5 39 q-56 2 -109.5 -19t-88 -51t-55.5 -54.5t-25 -36.5l-146 -668h-254l154 686q-8 41 -29.5 67t-39.5 32l-17 6v40q15 2 40.5 7.5t93.5 32.5t124 65h39l29 -131q7 13 28.5 32.5t62.5 46t114.5 44.5t162.5 18q77 0 144.5 -39.5t103.5 -103.5q9 14 30.5 33.5t62.5 46.5t110.5 45 t152.5 18q84 0 166.5 -40.5t131.5 -112.5t30 -150z" />
<glyph unicode="n" horiz-adv-x="1200" d="M1135 643l-154 -477q-8 -30 1 -52t30 -22q31 0 73 35l33 -41q-122 -111 -244 -111q-85 0 -130 48t-15 149l31 102l127 410q10 33 -1.5 62t-36.5 46t-54 27t-56 10q-56 5 -109.5 -14t-88 -49t-55.5 -56.5t-25 -41.5l-146 -668h-254l154 686q-8 41 -29.5 67t-39.5 32l-17 6 v40q15 3 40.5 9.5t93.5 33t124 62.5h39l29 -129q10 14 31 32.5t62 45t109.5 44t149.5 17.5q84 0 166.5 -40.5t131.5 -112.5t30 -150z" />
<glyph unicode="o" horiz-adv-x="1179" d="M455 -31q110 0 226.5 46t214 124.5t160 195t62.5 245.5q0 160 -100 264.5t-285 103.5q-80 -1 -169.5 -26t-179.5 -78t-161.5 -125.5t-116.5 -179t-45 -228.5q0 -147 113 -244.5t281 -97.5zM711 844q37 1 63.5 -10t41 -27.5t22.5 -45.5t10 -54.5t2 -63.5q0 -79 -13.5 -158 t-43 -153.5t-71.5 -132t-103.5 -92.5t-133.5 -35q-84 0 -119.5 48t-35.5 136q0 127 31.5 237.5t84.5 186t122 119.5t143 45z" />
<glyph unicode="p" horiz-adv-x="1484" d="M666 936l28 -139q159 137 346 137q180 1 281.5 -107.5t101.5 -265.5q0 -126 -59.5 -238.5t-152.5 -187.5t-206 -118.5t-221 -43.5q-71 0 -129.5 33.5t-85.5 85.5l-127 -665q26 -46 56 -75.5t46 -35.5l17 -6v-39h-500v39q2 1 6.5 2.5t18 9t27 19t32 34.5t35.5 52v-2 l275 1261q-9 41 -30.5 67t-38.5 32l-17 6v40q15 3 40.5 9.5t93.5 33t124 62.5h39zM815 76q88 0 156 48t107 129.5t58 176.5t19 199q0 91 -30 147t-105 55q-98 -2 -185 -80t-138.5 -204.5t-51.5 -265.5q0 -86 43.5 -145.5t126.5 -59.5z" />
<glyph unicode="q" horiz-adv-x="1236" d="M582 -731l172 788q-48 -42 -130 -65t-161 -23q-169 0 -286 98t-116 259q1 115 43.5 216.5t110.5 174t154 126t176 80t174 27.5q62 2 138 -25t122 -79q77 25 149 92h48l-334 -1669h-260zM494 72q69 0 128.5 36.5t100.5 96t70.5 135.5t43 154.5t13.5 154.5 q0 91 -33.5 144.5t-118.5 52.5q-91 -2 -175 -73t-139.5 -204.5t-55.5 -296.5q0 -200 166 -200z" />
<glyph unicode="r" horiz-adv-x="808" d="M432 936l37 -150q7 8 24.5 22.5t51 37.5t87.5 46.5t116 39.5l-80 -180q-38 5 -86 -18.5t-78.5 -51t-38.5 -41.5l-152 -641h-252l160 684q-8 42 -29.5 68.5t-39.5 32.5l-17 6v40q131 25 258 105h39z" />
<glyph unicode="s" horiz-adv-x="874" d="M465 637l106 -68q70 -46 107 -74t67 -65.5t40 -78.5t10 -101q0 -281 -430 -281q-129 0 -236 80l-23 -49h-45v297h41q15 -66 46 -113t72 -70t81 -32.5t84 -9.5q100 0 157.5 24t59.5 58q1 12 -1 23.5t-4 20.5t-9.5 19.5t-11.5 17t-16 17t-17.5 15.5t-21.5 16t-22.5 15.5 t-27 17.5t-27.5 18l-120 80q-103 68 -136.5 118t-33.5 132q0 68 36 123.5t94.5 90.5t130 53.5t146.5 18.5q136 0 252 -69l-70 -201h-34q-13 93 -53.5 129.5t-118.5 36.5q-82 0 -127 -22t-48 -62q-1 -23 5.5 -40.5t25.5 -34t31 -24.5t41 -26z" />
<glyph unicode="t" horiz-adv-x="690" d="M520 162h58q-29 -83 -102.5 -137t-151.5 -54q-310 0 -254 254l116 525q-19 43 -42 70.5t-36 33.5l-14 6v43q11 9 31 25.5t76 71t106.5 112.5t110 146t98.5 176h55l-98 -506l156 26l-15 -104l-161 -29l-136 -590q-20 -77 -8 -113t68 -36q38 0 81.5 20t61.5 60z" />
<glyph unicode="u" horiz-adv-x="1163" d="M1102 936l-154 -762q-7 -30 1 -56t28 -26q19 0 33.5 8t42.5 31l34 -45q-122 -111 -253 -111q-66 0 -105.5 30.5t-40.5 96.5q-8 -14 -25 -31.5t-51 -42.5t-91.5 -41t-127.5 -16q-42 0 -90 11t-95 34.5t-83 55.5t-52.5 80t-4.5 102l96 432q-8 37 -28.5 64t-37.5 35l-16 8 v45q8 0 21 1t51.5 7t74 15.5t79 29t75.5 45.5h43v-178l-111 -527q-13 -70 32 -104.5t118 -34.5q48 0 94 21.5t78 53.5t50.5 55t27.5 40l143 674h244z" />
<glyph unicode="v" horiz-adv-x="1077" d="M1016 932v-39q-2 -1 -6.5 -2t-17.5 -9t-26 -18.5t-31 -32.5t-34 -49l-379 -784h-184l-160 780q-25 47 -54.5 76t-46 36t-16.5 3v39h355l108 -696l258 542q-26 45 -55.5 74t-46.5 35l-16 6v39h352z" />
<glyph unicode="w" horiz-adv-x="1591" d="M1530 932v-39q-6 -1 -16.5 -5.5t-40 -30t-54.5 -66.5l-387 -791h-168l-104 567l-256 -567h-170l-154 778q-26 45 -56 74t-46 35l-17 6v39h336l127 -623l230 484q11 7 29 19t56.5 48t57.5 72h45l117 -625l244 471q-25 45 -54.5 74t-46.5 35l-16 6v39h344z" />
<glyph unicode="x" horiz-adv-x="1239" d="M1178 936v-39q-35 -8 -107 -76l-289 -286l154 -379q21 -44 56.5 -73t61.5 -37l25 -7v-39h-536v39q2 1 6.5 2.5t18 9t27 19t32 34.5t35.5 52l-78 206l-217 -210q26 -44 55 -72.5t45 -34.5l16 -6v-39h-422v39q11 5 30 13.5t64 39t74 64.5l314 313l-129 319q-26 43 -55 70 t-45 33l-15 6v39h322l120 -297l150 143q-25 45 -54.5 74t-46.5 35l-16 6v39h404z" />
<glyph unicode="y" horiz-adv-x="1064" d="M1004 938v-39q-2 -1 -6.5 -2.5t-18 -9t-27 -19t-32 -34.5t-35.5 -52l-260 -499l-383 -729h-119l244 450l-193 789q-25 42 -53.5 68.5t-44.5 32.5l-15 5v39h345l129 -586l237 434q-26 44 -54.5 72.5t-43.5 34.5l-15 6v39h345z" />
<glyph unicode="z" horiz-adv-x="1247" d="M354 764h-41l117 172h756v-47l-709 -787h387l146 131h53l-152 -233h-850v39l756 795h-346z" />
<glyph unicode="{" horiz-adv-x="843" d="M780 1485l43 76q-81 0 -143 -5t-128.5 -21.5t-113 -44.5t-82.5 -76.5t-51 -115.5l-78 -352q-23 -101 -53 -148.5t-92 -47.5l-16 -58q65 0 81 -58.5t-8 -150.5l-71 -342q-12 -56 2.5 -99.5t51.5 -71.5t83.5 -47.5t108.5 -29t115 -13t114 -3.5v78q-46 0 -90.5 9t-89.5 30.5 t-67.5 65t-10.5 104.5l71 366q14 62 7 105.5t-39 64.5l-29 15l29 12q37 16 72 80.5t48 126.5l78 342q12 55 33.5 94.5t45 61.5t56 34t59.5 15.5t64 3.5z" />
<glyph unicode="|" horiz-adv-x="491" d="M307 0h-123v1434h123v-1434z" />
<glyph unicode="}" horiz-adv-x="815" d="M20 -123v76q39 0 65.5 2.5t62 13.5t60 31t47.5 58.5t36 93.5l80 342q13 61 48.5 125.5t72.5 80.5l28 13l-28 14q-32 21 -39 64.5t6 105.5l71 365q9 49 -9 88.5t-52 63.5t-79 40.5t-85.5 22.5t-75.5 6l43 78q72 0 138 -6.5t136.5 -25t118.5 -48t73 -80.5t10 -117l-72 -330 q-46 -209 74 -209l-17 -57q-62 0 -92 -47.5t-53 -148.5l-80 -363q-12 -56 -36 -98t-60 -69t-75.5 -44.5t-94.5 -26t-104.5 -11.5t-117.5 -3z" />
<glyph unicode="~" horiz-adv-x="997" d="M823 662h51q-1 -5 -2.5 -14t-9 -35t-17.5 -49t-29.5 -52t-43.5 -49.5t-61 -34.5t-80 -14q-47 0 -89.5 19t-69 41.5t-62.5 41.5t-70 19q-37 0 -68 -13.5t-48.5 -32t-29.5 -37.5t-16 -32l-4 -14h-51q1 10 4.5 26.5t21 58.5t41.5 74.5t71.5 59t107.5 26.5q44 0 84 -18.5 t66 -41t63 -41t75 -18.5q37 0 68 13.5t48.5 32.5t29.5 38t16 32z" />
<glyph unicode="&#xa1;" horiz-adv-x="835" d="M395 1284q0 -56 42.5 -97.5t101.5 -41.5q51 0 92 42t41 97q0 62 -40.5 106t-92.5 44q-60 0 -102 -43.5t-42 -106.5zM397 1014l-80 -226l-153 -819h272l154 819l-8 226h-185z" />
<glyph unicode="&#xa2;" horiz-adv-x="921" d="M657 1098l-28 -154q114 -13 223 -70l-86 -266h-45q-1 7 -3.5 37t-3.5 39.5t-5.5 34.5t-9 35.5t-13 29t-18.5 27t-25.5 18t-34.5 13.5l-147 -762q94 18 172 98h72q-98 -169 -263 -201l-36 -190h-121l34 184q-190 10 -287.5 112.5t-97.5 264.5q0 128 81.5 260t214.5 224.5 t274 111.5l28 154h125zM340 76l141 753q-80 -29 -145.5 -111t-100 -187t-34.5 -209q0 -113 29 -173t110 -73z" />
<glyph unicode="&#xa3;" horiz-adv-x="1193" d="M61 0v43q8 3 21 9.5t40 30t40 50.5q84 172 113 274.5t34 219.5h-159l49 123h110q10 127 31 229t60.5 195t95.5 155t139.5 98.5t189.5 36.5q169 0 308 -123l-93 -264h-43q0 70 -11 120t-27.5 77.5t-44 43t-52.5 19.5t-61 4q-52 0 -92.5 -18.5t-69 -58t-49 -87t-35 -119.5 t-23 -141.5t-16.5 -166.5h291l-49 -123h-244q-8 -185 -88 -381h371l125 135h45l-119 -381h-787z" />
<glyph unicode="&#xa4;" horiz-adv-x="720" d="M61 555l89 86q-54 65 -54 162q0 51 12.5 87t41.5 73l-89 90l52 49l88 -90q64 53 161 53q93 0 160 -53l88 90l47 -51l-86 -88q52 -66 52 -162q0 -91 -52 -160l88 -88l-51 -49l-88 86q-60 -49 -160 -49q-96 0 -161 49l-88 -88zM199 801q0 -67 46.5 -112.5t114.5 -45.5 t114 45.5t46 112.5q0 69 -46 115.5t-114 46.5t-114.5 -46.5t-46.5 -115.5z" />
<glyph unicode="&#xa5;" horiz-adv-x="1425" d="M1364 1434v-39q-7 -1 -20 -5.5t-49.5 -29t-69.5 -60.5l-414 -532h172l-57 -123h-211l-29 -37l-14 -69h221l-57 -123h-187l-51 -262q26 -45 56 -74t46 -35l17 -6v-39h-508v39q2 1 6.5 2t18 9t27 19.5t32 33.5t35.5 51l49 262h-262l57 123h229l13 67l-15 39h-194l57 123h96 l-178 510q-26 46 -56 75.5t-46 35.5l-17 6v39h549v-39q-2 -1 -6.5 -2.5t-18 -9t-26.5 -19t-31.5 -34.5t-35.5 -52l-3 4l168 -514l398 514q-26 44 -55.5 72.5t-45.5 34.5l-16 6v39h426z" />
<glyph unicode="&#xa6;" horiz-adv-x="491" d="M307 874h-123v560h123v-560zM307 0h-123v559h123v-559z" />
<glyph unicode="&#xa7;" horiz-adv-x="1140" d="M692 969l103 -88q104 -80 164.5 -172.5t56.5 -182.5q-11 -302 -264 -397q101 -126 96 -238q-4 -97 -37 -163t-94 -101t-133.5 -49t-171.5 -14q-95 0 -152 21.5t-123 68.5l-33 -57h-43v297h43q38 -73 79.5 -121t83.5 -70t76 -30t75 -9q110 0 170.5 32t60.5 116 q0 40 -7.5 68.5t-26.5 52.5t-36.5 40t-53.5 45.5t-62 53.5l-92 86q-102 95 -140 167.5t-41 168.5q-4 123 97.5 213.5t240.5 95.5q-95 90 -131 160.5t-39 164.5q-3 92 53 164t147.5 109t199.5 37q74 0 164.5 -26.5t156.5 -61.5l-75 -217h-37q-4 118 -53 160t-156 42 q-90 0 -144.5 -44t-54.5 -120q0 -45 28 -91t53.5 -69t51.5 -42zM627 246l35 -29q6 3 18 11l18 12q39 23 59 74t17.5 115t-39.5 139t-104 139l-2 2q-108 9 -173 -40t-65 -132q0 -45 28 -91t53.5 -69.5t51.5 -42.5z" />
<glyph unicode="&#xa8;" horiz-adv-x="462" d="M12 1202q-47 0 -80.5 34t-33.5 83q0 48 33.5 82.5t80.5 34.5q49 0 83 -34.5t34 -82.5q0 -49 -33.5 -83t-83.5 -34zM449 1202q-48 0 -82.5 34t-34.5 83q0 47 35 82t82 35t81.5 -35t34.5 -82q0 -49 -34 -83t-82 -34z" />
<glyph unicode="&#xa9;" horiz-adv-x="1658" d="M82 721q0 153 59 292.5t159 240t238 160t291 59.5t291.5 -59.5t238.5 -160t159 -240t59 -292.5q0 -202 -100 -373.5t-272.5 -272t-375.5 -100.5t-375.5 100.5t-272 272t-99.5 373.5zM205 721q0 -180 79.5 -322.5t222 -221.5t322.5 -79q135 0 251.5 46.5t198.5 128 t128.5 197.5t46.5 251q0 274 -176 451.5t-449 177.5t-448.5 -177.5t-175.5 -451.5zM1126 893h-30q-4 48 -9 75.5t-16 53.5t-30.5 38.5t-50.5 19.5t-77 7q-79 -4 -141.5 -46t-98.5 -109t-54.5 -144t-18.5 -159q0 -161 58 -235.5t173 -74.5q88 0 138 20t112 85h37 q-56 -102 -129.5 -141t-171.5 -39q-195 0 -294 99t-99 286q0 151 57 271t171.5 191.5t269.5 71.5q67 0 141 -18t129 -53z" />
<glyph unicode="&#xab;" horiz-adv-x="880" d="M338 180l-256 301v43l328 297h61l-184 -319l112 -322h-61zM645 180l-256 301v43l328 297h61l-184 -319l113 -322h-62z" />
<glyph unicode="&#xac;" horiz-adv-x="817" d="M592 496l-2 -9q-31 46 -55 58h-412v123h590v-260h-121v88z" />
<glyph unicode="&#xad;" horiz-adv-x="907" d="M846 596h-758l-27 -123h758z" />
<glyph unicode="&#xae;" horiz-adv-x="1658" d="M829 1473q153 0 291.5 -59.5t238.5 -160t159 -240t59 -292.5q0 -202 -100 -373.5t-272.5 -272t-375.5 -100.5t-375.5 100.5t-272 272t-99.5 373.5q0 153 59 292.5t159 240t238 160t291 59.5zM829 98q135 0 251.5 46.5t198.5 128t128.5 197.5t46.5 251q0 274 -176 451.5 t-449 177.5t-448.5 -177.5t-175.5 -451.5q0 -180 79.5 -322.5t222 -221.5t322.5 -79zM1010 629l94 -240q31 -32 55.5 -55.5t33.5 -31.5l9 -7v-23h-241l-140 402h-41q-19 -10 -35 -33l-53 -270q16 -30 34 -49t28 -23l10 -4v-23h-311v23q4 1 11.5 4t27.5 22.5t36 49.5l134 704 l-5 -14q-16 27 -34 45t-29 22l-10 5v22h311q138 0 216.5 -52t78.5 -161q0 -98 -66.5 -168t-183.5 -92zM811 748h6q104 0 150.5 49t46.5 145q0 88 -36 113.5t-120 25.5q-17 -7 -35 -30l-53 -283l4 18q8 -13 17 -22.5t15 -12.5z" />
<glyph unicode="&#xaf;" horiz-adv-x="528" d="M0 555l57 123h471l-57 -123h-471z" />
<glyph unicode="&#xb0;" horiz-adv-x="712" d="M82 1192q0 104 85 189t189 85t189.5 -85t85.5 -189t-85.5 -189t-189.5 -85t-189 85t-85 189zM205 1192q0 -62 43 -107t108 -45q66 0 109 45t43 107q0 64 -43.5 107.5t-108.5 43.5q-62 0 -106.5 -44t-44.5 -107z" />
<glyph unicode="&#xb1;" horiz-adv-x="757" d="M92 623v122h242v240h123v-240h227v-122h-229v-248h-123v248h-240zM61 145l58 123h577l-57 -123h-578z" />
<glyph unicode="&#xb2;" horiz-adv-x="475" d="M61 1042v15q5 4 64 54t96.5 86t75 92.5t37.5 101.5q0 46 -14 66t-52 20q-60 0 -86 -47h-26q48 86 133 86q59 0 92 -30.5t33 -88.5q0 -40 -21.5 -78t-46 -62t-75 -67.5t-76.5 -69.5h133l45 49h18l-51 -127h-279z" />
<glyph unicode="&#xb3;" horiz-adv-x="487" d="M426 1503l-178 -164q133 -3 133 -120q-2 -73 -59.5 -132t-141.5 -59q-50 0 -75 21t-44 67h23q19 -30 40 -41.5t60 -11.5q45 0 76 45.5t31 99.5q0 60 -15.5 79.5t-62.5 21.5q-16 0 -28.5 -2.5t-16.5 -5.5l-4 -3v19l131 121h-141v16q18 27 22 66h250v-17z" />
<glyph unicode="&#xb4;" horiz-adv-x="284" d="M-41 1233v61l367 217v-176z" />
<glyph unicode="&#xb6;" horiz-adv-x="1167" d="M1126 1356h-133q-22 -10 -47 -47l-276 -1309h-125l276 1309q-11 16 -23 28t-18 15l-6 4h-123q-22 -10 -47 -47l-276 -1309h-125l141 686h-20q-184 0 -264 68.5t-80 232.5q0 127 66.5 230.5t175.5 160t237 56.5h667v-78z" />
<glyph unicode="&#xb7;" horiz-adv-x="456" d="M354 618q0 -52 -37 -89t-90 -37q-52 0 -88.5 36.5t-36.5 89.5q0 51 36.5 88t88.5 37t89.5 -37t37.5 -88z" />
<glyph unicode="&#xb8;" horiz-adv-x="1142" d="M195 -133l38 -4q38 -3 64.5 -35t26.5 -92q0 -86 -40 -124.5t-137 -35.5q-34 1 -63 11t-41 20l-12 10l41 80q4 -4 11 -10.5t31 -17.5t50 -11q27 0 45 6t24.5 17.5t8.5 19.5t2 20q0 15 -2.5 27t-20.5 25.5t-51 13.5h-55l-33 37l82 156h92z" />
<glyph unicode="&#xb9;" horiz-adv-x="339" d="M279 1516l-86 -426q7 -13 17 -22t16 -12l7 -3v-15h-172v15q21 6 37 37l66 307q-8 16 -17 25.5t-15 11.5l-5 2v14q90 21 133 66h19z" />
<glyph unicode="&#xbb;" horiz-adv-x="880" d="M236 821l256 -301v-43l-328 -297h-62l185 320l-113 321h62zM543 821l256 -301v-43l-328 -297h-61l184 320l-113 321h62z" />
<glyph unicode="&#xbc;" horiz-adv-x="1462" d="M61 555v27q4 1 11.5 3.5t27 20t35.5 45.5l119 561q-17 28 -35.5 46t-28.5 22l-10 4v25q7 2 19 5.5t46 15t64 25.5t64.5 35.5t56.5 45.5h35l-160 -785q16 -28 34 -45t28 -20l10 -4v-27h-316zM1260 1434h116v-39l-1112 -1395h-121v41zM1276 211l-21 -121q16 -27 34 -44 t28 -20l10 -3v-23h-319v23q4 1 12 3.5t28.5 20t36.5 45.5l21 119h-297v29l557 643h35l-117 -609h102l-32 -63h-78zM924 274h190l53 287z" />
<glyph unicode="&#xbd;" horiz-adv-x="1583" d="M61 555v27q4 1 11.5 3.5t27 20t35.5 45.5l119 561q-17 28 -35.5 46t-28.5 22l-10 4v25q7 2 19 5.5t46 15t64 25.5t64.5 35.5t56.5 45.5h35l-160 -785q16 -28 34 -45t28 -20l10 -4v-27h-316zM1260 1434h116v-39l-1112 -1395h-121v41zM846 -2v25q18 16 77.5 64.5t110.5 91 t116 107t110.5 121.5t77.5 125t32 127q0 88 -26 124t-99 36q-113 0 -166 -88h-53q51 73 91 106q74 60 165 60q114 0 177 -58t63 -169q0 -52 -17.5 -100t-45 -86t-71.5 -81.5t-85 -77t-99.5 -84t-101.5 -91.5h258l80 88h39l-99 -240h-534z" />
<glyph unicode="&#xbe;" horiz-adv-x="1634" d="M733 1401l-327 -301q120 -2 183 -57.5t62 -161.5q0 -65 -27.5 -128.5t-75.5 -113.5t-117.5 -80.5t-147.5 -30.5q-92 0 -140.5 38.5t-81.5 123.5h48q33 -55 71 -76.5t109 -21.5q85 0 141.5 84t56.5 186q0 110 -28 146t-115 39q-32 0 -55 -5.5t-30 -10.5l-7 -5v35l242 219 h-261v33q33 49 41 121h459v-33zM1432 1434h116v-39l-1112 -1395h-121v41zM1448 211l-21 -121q16 -27 34 -44t28 -20l10 -3v-23h-319v23q4 1 12 3.5t28.5 20t36.5 45.5l21 119h-297v29l557 643h35l-117 -609h103l-33 -63h-78zM1096 274h190l53 287z" />
<glyph unicode="&#xbf;" horiz-adv-x="913" d="M657 1315q0 -56 42.5 -97.5t101.5 -41.5q51 0 92 42t41 97q0 62 -40.5 105.5t-92.5 43.5q-60 0 -102 -43t-42 -106zM752 1040v-67q-2 -72 -40 -138t-97.5 -116.5t-131 -97.5t-142 -90.5t-129 -86t-94.5 -92.5t-36 -102q1 -73 35 -128.5t93 -88t132 -48.5t158 -16 q160 0 247 75.5t87 213.5v25h-66q-10 -123 -75.5 -169t-172.5 -44q-54 1 -89.5 14t-52 37t-22.5 49t-6 59q0 52 27.5 101t71 91.5t96.5 86t106 92t96.5 101t71 122.5t27.5 148v69h-94z" />
<glyph unicode="&#xc0;" d="M1376 1489l-366 102v176l366 -217v-61zM1331 1434l123 -1282q26 -44 55.5 -72.5t45.5 -34.5l16 -6v-39h-527v39q2 1 6.5 2t17.5 9t26.5 19.5t31.5 33.5t35 51l-22 252h-590l-176 -250q26 -46 56 -75.5t47 -35.5l16 -6v-39h-431v39q3 1 8.5 2.5t22.5 9t33.5 19t38.5 34.5 t41 52l850 1165h6q59 17 112.5 45.5t76.5 47.5l24 20h57zM1071 1145l-434 -617h489z" />
<glyph unicode="&#xc1;" d="M1376 1591l-366 -102v61l366 217v-176zM1331 1434l123 -1282q26 -44 55.5 -72.5t45.5 -34.5l16 -6v-39h-527v39q2 1 6.5 2t17.5 9t26.5 19.5t31.5 33.5t35 51l-22 252h-590l-176 -250q26 -46 56 -75.5t47 -35.5l16 -6v-39h-431v39q3 1 8.5 2.5t22.5 9t33.5 19t38.5 34.5 t41 52l850 1165h6q59 17 112.5 45.5t76.5 47.5l24 20h57zM1071 1145l-434 -617h489z" />
<glyph unicode="&#xc2;" d="M1434 1567v-56l-197 78l-289 -78v56l287 194zM1331 1434l123 -1282q26 -44 55.5 -72.5t45.5 -34.5l16 -6v-39h-527v39q2 1 6.5 2t17.5 9t26.5 19.5t31.5 33.5t35 51l-22 252h-590l-176 -250q26 -46 56 -75.5t47 -35.5l16 -6v-39h-431v39q3 1 8.5 2.5t22.5 9t33.5 19 t38.5 34.5t41 52l850 1165h6q59 17 112.5 45.5t76.5 47.5l24 20h57zM1071 1145l-434 -617h489z" />
<glyph unicode="&#xc3;" d="M1368 1663v-104q-26 -25 -46.5 -34t-61.5 -9q-32 0 -74 26.5t-72 26.5q-27 0 -50 -13.5t-54 -42.5v103q28 28 53 36.5t63 8.5q35 0 80 -25.5t66 -25.5q43 0 96 53zM1331 1434l123 -1282q26 -44 55.5 -72.5t45.5 -34.5l16 -6v-39h-527v39q2 1 6.5 2t17.5 9t26.5 19.5 t31.5 33.5t35 51l-22 252h-590l-176 -250q26 -46 56 -75.5t47 -35.5l16 -6v-39h-431v39q3 1 8.5 2.5t22.5 9t33.5 19t38.5 34.5t41 52l850 1165h6q59 17 112.5 45.5t76.5 47.5l24 20h57zM1071 1145l-434 -617h489z" />
<glyph unicode="&#xc4;" d="M991 1518q-48 0 -81 33.5t-33 82.5q0 48 33.5 82.5t80.5 34.5q49 0 83 -34.5t34 -82.5q0 -49 -33.5 -82.5t-83.5 -33.5zM1427 1518q-48 0 -82 33.5t-34 82.5q0 47 34.5 82t81.5 35t82 -35t35 -82q0 -49 -34.5 -82.5t-82.5 -33.5zM1331 1434l123 -1282q26 -44 55.5 -72.5 t45.5 -34.5l16 -6v-39h-527v39q2 1 6.5 2t17.5 9t26.5 19.5t31.5 33.5t35 51l-22 252h-590l-176 -250q26 -46 56 -75.5t47 -35.5l16 -6v-39h-431v39q3 1 8.5 2.5t22.5 9t33.5 19t38.5 34.5t41 52l850 1165h6q59 17 112.5 45.5t76.5 47.5l24 20h57zM1071 1145l-434 -617h489z " />
<glyph unicode="&#xc5;" d="M1200 1483q-69 0 -110 44t-41 107q0 56 43.5 103t107.5 47q73 0 112.5 -45.5t39.5 -104.5q0 -63 -40.5 -107t-111.5 -44zM1200 1712q-32 0 -55 -23.5t-23 -54.5q0 -33 22.5 -56.5t55.5 -23.5t55.5 23.5t22.5 56.5q0 32 -23 55t-55 23zM1331 1434l123 -1282 q26 -44 55.5 -72.5t45.5 -34.5l16 -6v-39h-527v39q2 1 6.5 2t17.5 9t26.5 19.5t31.5 33.5t35 51l-22 252h-590l-176 -250q26 -46 56 -75.5t47 -35.5l16 -6v-39h-431v39q3 1 8.5 2.5t22.5 9t33.5 19t38.5 34.5t41 52l850 1165h6q59 17 112.5 45.5t76.5 47.5l24 20h57z M1071 1145l-434 -617h489z" />
<glyph unicode="&#xc6;" horiz-adv-x="2228" d="M893 0v39q2 1 6.5 2t18 9t27 19.5t32 33.5t35.5 51l47 252h-465l-221 -250q26 -46 56 -75.5t47 -35.5l16 -6v-39h-431v39q5 1 15 5.5t44 30t70 66.5l15 15l1020 1122v4q-26 44 -55.5 72.5t-45.5 34.5l-16 6v39h924l135 -252h-60l-151 129h-406q-26 -13 -57 -56l-72 -374 q14 -20 29 -34.5t23 -18.5l8 -5h276q29 1 70 27.5t67 53.5l27 26h29l-64 -336h-28q-1 4 -3.5 10.5t-12 23t-20 30t-28 26.5t-37.5 16h-321q-29 -12 -60 -59l-88 -459q14 -21 29 -35.5t23 -18.5l8 -5h534l186 129h56l-170 -252h-1061zM1186 1075l-484 -547h381z" />
<glyph unicode="&#xc7;" horiz-adv-x="1372" d="M1198 1028h-47q-4 63 -10 103t-18.5 79t-32 61t-51.5 39.5t-76.5 24t-106.5 6.5q-104 -4 -190 -50t-144 -119.5t-98 -169t-58 -197t-18 -205.5q0 -264 94.5 -384t282.5 -120q141 0 220.5 32t182.5 136h58q-44 -80 -95 -136.5t-108.5 -88.5t-115.5 -47.5t-128 -18.5 l-47 -86l39 -4q38 -3 64 -35t26 -92q0 -86 -39.5 -124t-136.5 -35q-34 1 -63 11t-42 20l-12 10l41 79q4 -4 11 -10.5t31.5 -17.5t50.5 -11q27 0 44.5 6t24.5 18t8.5 20t1.5 20q0 11 -1.5 19t-7.5 20.5t-22.5 19t-41.5 6.5h-56l-32 37l67 131q-290 12 -438 173t-148 452 q0 180 54.5 337t155.5 274.5t255 185t342 67.5q108 0 230 -29.5t213 -86.5z" />
<glyph unicode="&#xc8;" horiz-adv-x="1396" d="M1016 1591l-367 -102v61l367 217v-176zM61 0v39q2 1 6.5 2t18 9t27 19.5t32 33.5t35.5 51l213 1128q-26 44 -55.5 72.5t-45.5 34.5l-16 6v39h924l135 -252h-59l-152 129h-405q-26 -13 -57 -56l-72 -374q14 -20 28.5 -34.5t22.5 -18.5l8 -5h277q29 1 70 27.5t68 53.5 l26 26h28l-63 -336h-29q-1 4 -3.5 10.5t-11.5 23t-19.5 30t-28 26.5t-37.5 16h-322q-28 -12 -59 -59l-88 -459q14 -21 28.5 -35.5t22.5 -18.5l8 -5h535l186 129h55l-170 -252h-1061z" />
<glyph unicode="&#xc9;" horiz-adv-x="1396" d="M1008 1591l-367 -102v61l367 217v-176zM61 0v39q2 1 6.5 2t18 9t27 19.5t32 33.5t35.5 51l213 1128q-26 44 -55.5 72.5t-45.5 34.5l-16 6v39h924l135 -252h-59l-152 129h-405q-26 -13 -57 -56l-72 -374q14 -20 28.5 -34.5t22.5 -18.5l8 -5h277q29 1 70 27.5t68 53.5 l26 26h28l-63 -336h-29q-1 4 -3.5 10.5t-11.5 23t-19.5 30t-28 26.5t-37.5 16h-322q-28 -12 -59 -59l-88 -459q14 -21 28.5 -35.5t22.5 -18.5l8 -5h535l186 129h55l-170 -252h-1061z" />
<glyph unicode="&#xca;" horiz-adv-x="1396" d="M1061 1567v-56l-197 78l-289 -78v56l287 194zM61 0v39q2 1 6.5 2t18 9t27 19.5t32 33.5t35.5 51l213 1128q-26 44 -55.5 72.5t-45.5 34.5l-16 6v39h924l135 -252h-59l-152 129h-405q-26 -13 -57 -56l-72 -374q14 -20 28.5 -34.5t22.5 -18.5l8 -5h277q29 1 70 27.5 t68 53.5l26 26h28l-63 -336h-29q-1 4 -3.5 10.5t-11.5 23t-19.5 30t-28 26.5t-37.5 16h-322q-28 -12 -59 -59l-88 -459q14 -21 28.5 -35.5t22.5 -18.5l8 -5h535l186 129h55l-170 -252h-1061z" />
<glyph unicode="&#xcb;" horiz-adv-x="1396" d="M600 1518q-48 0 -81.5 33.5t-33.5 82.5q0 47 34 82t81 35q49 0 83 -34.5t34 -82.5q0 -49 -33.5 -82.5t-83.5 -33.5zM1036 1518q-48 0 -82 33.5t-34 82.5q0 47 34.5 82t81.5 35t82 -35t35 -82q0 -49 -34.5 -82.5t-82.5 -33.5zM61 0v39q2 1 6.5 2t18 9t27 19.5t32 33.5 t35.5 51l213 1128q-26 44 -55.5 72.5t-45.5 34.5l-16 6v39h924l135 -252h-59l-152 129h-405q-26 -13 -57 -56l-72 -374q14 -20 28.5 -34.5t22.5 -18.5l8 -5h277q29 1 70 27.5t68 53.5l26 26h28l-63 -336h-29q-1 4 -3.5 10.5t-11.5 23t-19.5 30t-28 26.5t-37.5 16h-322 q-28 -12 -59 -59l-88 -459q14 -21 28.5 -35.5t22.5 -18.5l8 -5h535l186 129h55l-170 -252h-1061z" />
<glyph unicode="&#xcc;" horiz-adv-x="845" d="M743 1489l-366 102v176l366 -217v-61zM784 1434v-39q-2 -1 -6.5 -2.5t-18 -9t-26.5 -19t-31.5 -34.5t-35.5 -52v2l-217 -1126q26 -45 55.5 -74t45.5 -35l17 -6v-39h-506v39q2 1 6.5 2t18 9t27 19.5t32 33.5t35.5 51l213 1124q-26 46 -56 75.5t-47 35.5l-16 6v39h510z" />
<glyph unicode="&#xcd;" horiz-adv-x="845" d="M743 1591l-366 -102v61l366 217v-176zM784 1434v-39q-2 -1 -6.5 -2.5t-18 -9t-26.5 -19t-31.5 -34.5t-35.5 -52v2l-217 -1126q26 -45 55.5 -74t45.5 -35l17 -6v-39h-506v39q2 1 6.5 2t18 9t27 19.5t32 33.5t35.5 51l213 1124q-26 46 -56 75.5t-47 35.5l-16 6v39h510z" />
<glyph unicode="&#xce;" horiz-adv-x="845" d="M778 1567v-56l-196 78l-289 -78v56l287 194zM784 1434v-39q-2 -1 -6.5 -2.5t-18 -9t-26.5 -19t-31.5 -34.5t-35.5 -52v2l-217 -1126q26 -45 55.5 -74t45.5 -35l17 -6v-39h-506v39q2 1 6.5 2t18 9t27 19.5t32 33.5t35.5 51l213 1124q-26 46 -56 75.5t-47 35.5l-16 6v39 h510z" />
<glyph unicode="&#xcf;" horiz-adv-x="942" d="M328 1518q-48 0 -81.5 33.5t-33.5 82.5q0 47 34 82t81 35q49 0 82.5 -34.5t33.5 -82.5q0 -50 -33 -83t-83 -33zM764 1751q47 0 82 -35t35 -82q0 -49 -34.5 -82.5t-82.5 -33.5t-82.5 33.5t-34.5 82.5q0 47 35 82t82 35zM784 1434v-39q-2 -1 -6.5 -2.5t-18 -9t-26.5 -19 t-31.5 -34.5t-35.5 -52v2l-217 -1126q26 -45 55.5 -74t45.5 -35l17 -6v-39h-506v39q2 1 6.5 2t18 9t27 19.5t32 33.5t35.5 51l213 1124q-26 46 -56 75.5t-47 35.5l-16 6v39h510z" />
<glyph unicode="&#xd0;" horiz-adv-x="1544" d="M272 1434h541q200 0 350 -68.5t235 -205t85 -326.5q0 -162 -52.5 -300t-141.5 -235t-206.5 -165.5t-247.5 -101t-264 -32.5h-510v39q2 1 6.5 2t17.5 9t26.5 19t31.5 33t35 50l90 483h-129l58 123h96l98 520q-26 46 -56 75.5t-47 35.5l-16 6v39zM504 123h88 q102 -1 192.5 30t166 93t130 150t85 209t30.5 263q0 239 -87.5 341t-291.5 102h-100q-29 -13 -60 -60l-94 -493h105l-58 -123h-71l-86 -457q24 -35 51 -55z" />
<glyph unicode="&#xd1;" horiz-adv-x="1562" d="M1090 1663v-104q-26 -24 -47 -33.5t-62 -9.5q-32 0 -73.5 26.5t-71.5 26.5q-46 0 -105 -56v103q27 27 52.5 36t64.5 9q35 0 79.5 -25.5t65.5 -25.5q44 0 97 53zM1501 1434v-39q-2 -1 -6.5 -2.5t-18 -9t-27 -19t-32 -34.5t-35.5 -52v2l-245 -1280h-33l-621 1104l-182 -950 q26 -45 56 -74t47 -35l16 -6v-39h-359v39q2 1 6.5 2t17.5 9t26.5 19t31.5 33t35 50l211 1120l-70 123v39h318l493 -930l146 774q-26 46 -56 75.5t-46 35.5l-17 6v39h344z" />
<glyph unicode="&#xd2;" horiz-adv-x="1523" d="M741 1782l367 -217v-62l-367 103v176zM918 1481q248 0 396 -150t148 -418q0 -140 -38 -277t-113 -257t-177 -212t-239.5 -145t-290.5 -53q-247 0 -395 150.5t-148 417.5q0 141 38 278t113 257t177 211.5t239 144.5t290 53zM633 92q108 0 199.5 56.5t153 147t105.5 206.5 t63.5 233.5t19.5 229.5q0 203 -61.5 298t-221.5 95q-91 0 -171 -39.5t-138 -107t-103.5 -154.5t-73.5 -185.5t-42.5 -196.5t-14.5 -190q0 -203 62.5 -298t222.5 -95z" />
<glyph unicode="&#xd3;" horiz-adv-x="1523" d="M711 1507v62l366 217v-176zM918 1481q248 0 396 -150t148 -418q0 -140 -38 -277t-113 -257t-177 -212t-239.5 -145t-290.5 -53q-247 0 -395 150.5t-148 417.5q0 141 38 278t113 257t177 211.5t239 144.5t290 53zM633 92q108 0 199.5 56.5t153 147t105.5 206.5t63.5 233.5 t19.5 229.5q0 203 -61.5 298t-221.5 95q-91 0 -171 -39.5t-138 -107t-103.5 -154.5t-73.5 -185.5t-42.5 -196.5t-14.5 -190q0 -203 62.5 -298t222.5 -95z" />
<glyph unicode="&#xd4;" horiz-adv-x="1523" d="M1157 1513l-196 78l-289 -78v56l286 194l199 -194v-56zM918 1481q248 0 396 -150t148 -418q0 -140 -38 -277t-113 -257t-177 -212t-239.5 -145t-290.5 -53q-247 0 -395 150.5t-148 417.5q0 141 38 278t113 257t177 211.5t239 144.5t290 53zM633 92q108 0 199.5 56.5 t153 147t105.5 206.5t63.5 233.5t19.5 229.5q0 203 -61.5 298t-221.5 95q-91 0 -171 -39.5t-138 -107t-103.5 -154.5t-73.5 -185.5t-42.5 -196.5t-14.5 -190q0 -203 62.5 -298t222.5 -95z" />
<glyph unicode="&#xd5;" horiz-adv-x="1523" d="M1118 1663v-104q-26 -25 -46.5 -34t-61.5 -9q-32 0 -74 26.5t-72 26.5q-27 0 -50 -13.5t-54 -42.5v103q27 27 52.5 36t64.5 9q35 0 79.5 -25.5t65.5 -25.5q43 0 96 53zM918 1481q248 0 396 -150t148 -418q0 -140 -38 -277t-113 -257t-177 -212t-239.5 -145t-290.5 -53 q-247 0 -395 150.5t-148 417.5q0 141 38 278t113 257t177 211.5t239 144.5t290 53zM633 92q108 0 199.5 56.5t153 147t105.5 206.5t63.5 233.5t19.5 229.5q0 203 -61.5 298t-221.5 95q-91 0 -171 -39.5t-138 -107t-103.5 -154.5t-73.5 -185.5t-42.5 -196.5t-14.5 -190 q0 -203 62.5 -298t222.5 -95z" />
<glyph unicode="&#xd6;" horiz-adv-x="1523" d="M715 1518q-48 0 -81.5 33.5t-33.5 82.5q0 47 34 82t81 35q49 0 82.5 -34.5t33.5 -82.5q0 -50 -33.5 -83t-82.5 -33zM1151 1518q-48 0 -82.5 33.5t-34.5 82.5q0 47 35 82t82 35t82 -35t35 -82q0 -49 -34.5 -82.5t-82.5 -33.5zM918 1481q248 0 396 -150t148 -418 q0 -140 -38 -277t-113 -257t-177 -212t-239.5 -145t-290.5 -53q-247 0 -395 150.5t-148 417.5q0 141 38 278t113 257t177 211.5t239 144.5t290 53zM633 92q108 0 199.5 56.5t153 147t105.5 206.5t63.5 233.5t19.5 229.5q0 203 -61.5 298t-221.5 95q-91 0 -171 -39.5 t-138 -107t-103.5 -154.5t-73.5 -185.5t-42.5 -196.5t-14.5 -190q0 -203 62.5 -298t222.5 -95z" />
<glyph unicode="&#xd7;" horiz-adv-x="841" d="M506 582l233 -248l-86 -86l-233 246l-232 -244l-86 84l232 246l-232 243l91 92l227 -245l231 241l86 -88z" />
<glyph unicode="&#xd8;" horiz-adv-x="1556" d="M1495 1395l-113 -121q101 -147 101 -361q0 -140 -38 -277t-113 -257t-177 -212t-239.5 -145t-290.5 -53q-215 0 -355 113l-77 -82h-132v39l125 133q-104 141 -104 365q0 177 61 345.5t169.5 302t272 215t353.5 81.5q222 0 362 -119l68 72h127v-39zM373 373l786 837 q-57 148 -248 148q-91 0 -170.5 -39.5t-137.5 -107t-104 -154.5t-73.5 -186t-42 -196.5t-14.5 -189.5q0 -42 4 -112zM1190 1067l-782 -838q59 -137 245 -137q108 0 199.5 56.5t153 147t105.5 206.5t63.5 233.5t19.5 229.5q0 40 -4 102z" />
<glyph unicode="&#xd9;" horiz-adv-x="1486" d="M997 1489l-366 102v176l366 -217v-61zM1425 1434v-39q-2 -1 -6.5 -2.5t-18 -9t-26.5 -19t-31.5 -34.5t-35.5 -52l-133 -688q-26 -137 -73.5 -244t-106 -175.5t-132.5 -113t-148 -62.5t-157 -18q-166 0 -273 38.5t-158.5 112.5t-62 183.5t16.5 251.5l125 717 q-25 45 -54.5 74t-46.5 35l-16 6v39h506v-39q-2 -1 -6.5 -2t-18 -9t-27 -19.5t-32 -33.5t-35.5 -51l-125 -717q-30 -176 -29 -245q2 -157 117 -200q49 -18 119 -18q108 0 194.5 38t145 106.5t96 154t58.5 191.5l133 688q-26 46 -56 75.5t-46 35.5l-17 6v39h360z" />
<glyph unicode="&#xda;" horiz-adv-x="1486" d="M1020 1591l-367 -102v61l367 217v-176zM1425 1434v-39q-2 -1 -6.5 -2.5t-18 -9t-26.5 -19t-31.5 -34.5t-35.5 -52l-133 -688q-26 -137 -73.5 -244t-106 -175.5t-132.5 -113t-148 -62.5t-157 -18q-166 0 -273 38.5t-158.5 112.5t-62 183.5t16.5 251.5l125 717 q-25 45 -54.5 74t-46.5 35l-16 6v39h506v-39q-2 -1 -6.5 -2t-18 -9t-27 -19.5t-32 -33.5t-35.5 -51l-125 -717q-30 -176 -29 -245q2 -157 117 -200q49 -18 119 -18q108 0 194.5 38t145 106.5t96 154t58.5 191.5l133 688q-26 46 -56 75.5t-46 35.5l-17 6v39h360z" />
<glyph unicode="&#xdb;" horiz-adv-x="1486" d="M1069 1567v-56l-197 78l-288 -78v56l286 194zM1425 1434v-39q-2 -1 -6.5 -2.5t-18 -9t-26.5 -19t-31.5 -34.5t-35.5 -52l-133 -688q-26 -137 -73.5 -244t-106 -175.5t-132.5 -113t-148 -62.5t-157 -18q-166 0 -273 38.5t-158.5 112.5t-62 183.5t16.5 251.5l125 717 q-25 45 -54.5 74t-46.5 35l-16 6v39h506v-39q-2 -1 -6.5 -2t-18 -9t-27 -19.5t-32 -33.5t-35.5 -51l-125 -717q-30 -176 -29 -245q2 -157 117 -200q49 -18 119 -18q108 0 194.5 38t145 106.5t96 154t58.5 191.5l133 688q-26 46 -56 75.5t-46 35.5l-17 6v39h360z" />
<glyph unicode="&#xdc;" horiz-adv-x="1486" d="M618 1518q-48 0 -81 33.5t-33 82.5q0 48 33.5 82.5t80.5 34.5q49 0 83 -34.5t34 -82.5q0 -49 -33.5 -82.5t-83.5 -33.5zM1055 1518q-48 0 -82.5 33.5t-34.5 82.5q0 47 35 82t82 35t81.5 -35t34.5 -82q0 -49 -34 -82.5t-82 -33.5zM1425 1434v-39q-2 -1 -6.5 -2.5t-18 -9 t-26.5 -19t-31.5 -34.5t-35.5 -52l-133 -688q-26 -137 -73.5 -244t-106 -175.5t-132.5 -113t-148 -62.5t-157 -18q-166 0 -273 38.5t-158.5 112.5t-62 183.5t16.5 251.5l125 717q-25 45 -54.5 74t-46.5 35l-16 6v39h506v-39q-2 -1 -6.5 -2t-18 -9t-27 -19.5t-32 -33.5 t-35.5 -51l-125 -717q-30 -176 -29 -245q2 -157 117 -200q49 -18 119 -18q108 0 194.5 38t145 106.5t96 154t58.5 191.5l133 688q-26 46 -56 75.5t-46 35.5l-17 6v39h360z" />
<glyph unicode="&#xdd;" horiz-adv-x="1425" d="M952 1591l-366 -102v61l366 217v-176zM1364 1434v-39q-7 -1 -20 -5.5t-49.5 -29t-69.5 -60.5l-539 -692l-88 -454q26 -45 56 -74t46 -35l17 -6v-39h-508v39q2 1 6.5 2t18 9t27 19.5t32 33.5t35.5 51l86 452l-234 672q-26 46 -56 75.5t-46 35.5l-17 6v39h549v-39 q-2 -1 -6.5 -2.5t-18 -9t-26.5 -19t-31.5 -34.5t-35.5 -52l-3 4l168 -514l398 514q-26 44 -55.5 72.5t-45.5 34.5l-16 6v39h426z" />
<glyph unicode="&#xde;" horiz-adv-x="1329" d="M682 1174h133q214 0 333.5 -86t119.5 -269q0 -92 -36.5 -173t-103.5 -142.5t-169.5 -97t-227.5 -35.5h-72v102h64q122 0 190 92t68 256q0 131 -43 180.5t-147 49.5h-132l-213 -895q26 -46 56 -75.5t46 -35.5l17 -6v-39h-504v39q2 1 6.5 2t17.5 9t26.5 19t31.5 33t35 50 l258 1130q-26 44 -55.5 72.5t-45.5 34.5l-16 6v39h506v-39q-7 -1 -18 -6t-42.5 -34.5t-57.5 -74.5z" />
<glyph unicode="&#xdf;" horiz-adv-x="1351" d="M180 156l137 749q103 563 541 563q103 0 187 -27t136.5 -71t80.5 -96.5t28 -106.5q0 -68 -27 -125t-73 -96.5t-94 -65.5t-103 -44q151 -36 219 -117t68 -236q0 -74 -21 -145.5t-66.5 -137t-110 -115.5t-158 -80t-203.5 -30q-134 0 -240 58l35 223h43q8 -89 44.5 -134 t117.5 -44q82 1 141 35.5t91 93.5t46.5 127t14.5 149q0 65 -9.5 113.5t-32.5 88t-65.5 60.5t-103.5 21h-90v102h28q87 0 159 32.5t118.5 102t46.5 164.5q0 61 -18 102.5t-50 61.5t-64.5 27.5t-74.5 7.5q-56 0 -98.5 -20t-71.5 -52.5t-51 -88.5t-36 -113t-28 -140l-165 -952 h-347v39q2 1 6.5 2.5t18 9t27 19t32 34.5t35.5 52z" />
<glyph unicode="&#xe0;" horiz-adv-x="1208" d="M920 1040l-367 103v176l367 -217v-62zM1147 936l-166 -772q-6 -30 2 -51t29 -21q31 0 73 35l33 -41q-122 -111 -244 -111q-40 0 -72 28.5t-36 88.5l-10 -12q-44 -53 -124.5 -82t-168.5 -29q-169 0 -286 98t-116 259q1 115 43.5 216.5t110.5 174t154 126t176 80t174 27.5 q57 2 124 -22.5t109 -73.5q79 31 133 82h62zM494 72q69 0 126.5 36.5t95.5 95.5t64 136t37.5 154.5t11.5 154.5q0 38 -1.5 62t-9 53t-21 45t-38.5 27t-61 10q-91 -2 -175 -73t-139.5 -204.5t-55.5 -296.5q0 -200 166 -200z" />
<glyph unicode="&#xe1;" horiz-adv-x="1208" d="M885 1143l-367 -103v62l367 217v-176zM1147 936l-166 -772q-6 -30 2 -51t29 -21q31 0 73 35l33 -41q-122 -111 -244 -111q-40 0 -72 28.5t-36 88.5l-10 -12q-44 -53 -124.5 -82t-168.5 -29q-169 0 -286 98t-116 259q1 115 43.5 216.5t110.5 174t154 126t176 80t174 27.5 q57 2 124 -22.5t109 -73.5q79 31 133 82h62zM494 72q69 0 126.5 36.5t95.5 95.5t64 136t37.5 154.5t11.5 154.5q0 38 -1.5 62t-9 53t-21 45t-38.5 27t-61 10q-91 -2 -175 -73t-139.5 -204.5t-55.5 -296.5q0 -200 166 -200z" />
<glyph unicode="&#xe2;" horiz-adv-x="1208" d="M967 1081v-55l-197 78l-289 -78v55l287 195zM1147 936l-166 -772q-6 -30 2 -51t29 -21q31 0 73 35l33 -41q-122 -111 -244 -111q-40 0 -72 28.5t-36 88.5l-10 -12q-44 -53 -124.5 -82t-168.5 -29q-169 0 -286 98t-116 259q1 115 43.5 216.5t110.5 174t154 126t176 80 t174 27.5q57 2 124 -22.5t109 -73.5q79 31 133 82h62zM494 72q69 0 126.5 36.5t95.5 95.5t64 136t37.5 154.5t11.5 154.5q0 38 -1.5 62t-9 53t-21 45t-38.5 27t-61 10q-91 -2 -175 -73t-139.5 -204.5t-55.5 -296.5q0 -200 166 -200z" />
<glyph unicode="&#xe3;" horiz-adv-x="1208" d="M934 1278v-104q-27 -25 -47.5 -34.5t-61.5 -9.5q-32 0 -73.5 27t-71.5 27q-46 0 -105 -56v103q27 27 52.5 36t64.5 9q35 0 80 -25.5t66 -25.5q43 0 96 53zM1147 936l-166 -772q-6 -30 2 -51t29 -21q31 0 73 35l33 -41q-122 -111 -244 -111q-40 0 -72 28.5t-36 88.5 l-10 -12q-44 -53 -124.5 -82t-168.5 -29q-169 0 -286 98t-116 259q1 115 43.5 216.5t110.5 174t154 126t176 80t174 27.5q57 2 124 -22.5t109 -73.5q79 31 133 82h62zM494 72q69 0 126.5 36.5t95.5 95.5t64 136t37.5 154.5t11.5 154.5q0 38 -1.5 62t-9 53t-21 45t-38.5 27 t-61 10q-91 -2 -175 -73t-139.5 -204.5t-55.5 -296.5q0 -200 166 -200z" />
<glyph unicode="&#xe4;" horiz-adv-x="1208" d="M514 1026q-48 0 -81.5 34t-33.5 83q0 47 34 82t81 35q49 0 83 -34.5t34 -82.5q0 -49 -33.5 -83t-83.5 -34zM950 1026q-48 0 -82 34t-34 83q0 47 34.5 82t81.5 35t82 -35t35 -82q0 -49 -34.5 -83t-82.5 -34zM1147 936l-166 -772q-6 -30 2 -51t29 -21q31 0 73 35l33 -41 q-122 -111 -244 -111q-40 0 -72 28.5t-36 88.5l-10 -12q-44 -53 -124.5 -82t-168.5 -29q-169 0 -286 98t-116 259q1 115 43.5 216.5t110.5 174t154 126t176 80t174 27.5q57 2 124 -22.5t109 -73.5q79 31 133 82h62zM494 72q69 0 126.5 36.5t95.5 95.5t64 136t37.5 154.5 t11.5 154.5q0 38 -1.5 62t-9 53t-21 45t-38.5 27t-61 10q-91 -2 -175 -73t-139.5 -204.5t-55.5 -296.5q0 -200 166 -200z" />
<glyph unicode="&#xe5;" horiz-adv-x="1208" d="M729 989q-69 0 -110 44.5t-41 107.5q0 56 43.5 102.5t107.5 46.5q73 0 112.5 -45t39.5 -104q0 -63 -41 -107.5t-111 -44.5zM729 1219q-32 0 -55 -23.5t-23 -54.5q0 -33 22.5 -56.5t55.5 -23.5t55.5 23.5t22.5 56.5q0 32 -23 55t-55 23zM1147 936l-166 -772q-6 -30 2 -51 t29 -21q31 0 73 35l33 -41q-122 -111 -244 -111q-40 0 -72 28.5t-36 88.5l-10 -12q-44 -53 -124.5 -82t-168.5 -29q-169 0 -286 98t-116 259q1 115 43.5 216.5t110.5 174t154 126t176 80t174 27.5q57 2 124 -22.5t109 -73.5q79 31 133 82h62zM494 72q69 0 126.5 36.5 t95.5 95.5t64 136t37.5 154.5t11.5 154.5q0 38 -1.5 62t-9 53t-21 45t-38.5 27t-61 10q-91 -2 -175 -73t-139.5 -204.5t-55.5 -296.5q0 -200 166 -200z" />
<glyph unicode="&#xe6;" horiz-adv-x="1779" d="M1147 936l-14 -64q139 76 288 76q77 0 142.5 -23.5t110 -75.5t44.5 -124q0 -122 -167.5 -223t-497.5 -133q-25 -145 16.5 -221.5t165.5 -75.5q83 2 145.5 23t128.5 87h84q-81 -120 -167.5 -166.5t-215.5 -46.5q-262 0 -358 181q-38 -44 -70 -74q-115 -107 -319 -107 q-169 0 -286 98t-116 259q1 115 43.5 216.5t110.5 174t154 126t176 80t174 27.5q57 2 124 -22.5t109 -73.5q79 31 133 82h62zM494 72q69 0 126.5 36.5t95.5 95.5t64 136t37.5 154.5t11.5 154.5q0 38 -1.5 62t-9 53t-21 45t-38.5 27t-61 10q-91 -2 -175 -73t-139.5 -204.5 t-55.5 -296.5q0 -200 166 -200zM1384 844q-109 0 -197.5 -103.5t-125.5 -267.5q134 21 222.5 47t134 58.5t62.5 66.5t17 80q0 59 -29.5 89t-83.5 30z" />
<glyph unicode="&#xe7;" horiz-adv-x="1040" d="M322 -156l69 131q-163 26 -246.5 125t-83.5 248q0 103 55.5 212t143.5 194t203.5 139.5t228.5 54.5q148 0 287 -74l-86 -266h-45q-1 10 -3.5 33.5t-3.5 35t-4 32.5t-6.5 32t-10 28t-14 26t-18.5 20.5t-24.5 17t-31.5 9.5t-40 4q-100 0 -185.5 -81.5t-132 -201.5 t-46.5 -241q0 -126 37.5 -187t142.5 -61q34 0 58.5 3t58.5 12t67.5 31.5t67.5 57.5h71q-119 -209 -339 -209h-13l-45 -82l39 -4q38 -3 64 -35t26 -92q0 -86 -39.5 -124t-136.5 -35q-34 1 -63 11t-42 20l-12 10l41 79q4 -4 11 -10.5t31 -17.5t50 -11q27 0 45 6t24.5 17.5 t8.5 20t2 20.5q0 11 -1.5 19t-7.5 20.5t-22.5 19t-41.5 6.5h-56z" />
<glyph unicode="&#xe8;" horiz-adv-x="1042" d="M475 1319l367 -217v-62l-367 103v176zM772 182h84q-81 -120 -167.5 -166.5t-215.5 -46.5q-202 0 -307 107t-105 278q0 106 49.5 213t132 191t199.5 137t242 53q77 0 142.5 -23.5t110 -75.5t44.5 -124q0 -122 -167.5 -223t-498.5 -133q-24 -145 17.5 -221.5t165.5 -75.5 q83 2 145.5 23t128.5 87zM647 844q-109 0 -197.5 -103.5t-125.5 -267.5q134 21 222.5 47t134 58.5t62.5 66.5t17 80q0 59 -29.5 89t-83.5 30z" />
<glyph unicode="&#xe9;" horiz-adv-x="1042" d="M475 1040v62l367 217v-176zM772 182h84q-81 -120 -167.5 -166.5t-215.5 -46.5q-202 0 -307 107t-105 278q0 106 49.5 213t132 191t199.5 137t242 53q77 0 142.5 -23.5t110 -75.5t44.5 -124q0 -122 -167.5 -223t-498.5 -133q-24 -145 17.5 -221.5t165.5 -75.5 q83 2 145.5 23t128.5 87zM647 844q-109 0 -197.5 -103.5t-125.5 -267.5q134 21 222.5 47t134 58.5t62.5 66.5t17 80q0 59 -29.5 89t-83.5 30z" />
<glyph unicode="&#xea;" horiz-adv-x="1042" d="M965 1026l-197 78l-289 -78v55l287 195l199 -195v-55zM772 182h84q-81 -120 -167.5 -166.5t-215.5 -46.5q-202 0 -307 107t-105 278q0 106 49.5 213t132 191t199.5 137t242 53q77 0 142.5 -23.5t110 -75.5t44.5 -124q0 -122 -167.5 -223t-498.5 -133 q-24 -145 17.5 -221.5t165.5 -75.5q83 2 145.5 23t128.5 87zM647 844q-109 0 -197.5 -103.5t-125.5 -267.5q134 21 222.5 47t134 58.5t62.5 66.5t17 80q0 59 -29.5 89t-83.5 30z" />
<glyph unicode="&#xeb;" horiz-adv-x="1128" d="M514 1026q-48 0 -81.5 34t-33.5 83q0 47 34 82t81 35q49 0 83 -34.5t34 -82.5q0 -49 -33.5 -83t-83.5 -34zM950 1026q-48 0 -82 34t-34 83q0 47 34.5 82t81.5 35t82 -35t35 -82q0 -49 -34.5 -83t-82.5 -34zM772 182h84q-81 -120 -167.5 -166.5t-215.5 -46.5 q-202 0 -307 107t-105 278q0 106 49.5 213t132 191t199.5 137t242 53q77 0 142.5 -23.5t110 -75.5t44.5 -124q0 -122 -167.5 -223t-498.5 -133q-24 -145 17.5 -221.5t165.5 -75.5q83 2 145.5 23t128.5 87zM647 844q-109 0 -197.5 -103.5t-125.5 -267.5q134 21 222.5 47 t134 58.5t62.5 66.5t17 80q0 59 -29.5 89t-83.5 30z" />
<glyph unicode="&#xec;" horiz-adv-x="616" d="M555 1102v-62l-367 103v176zM485 936l-145 -682q-1 -5 -18 -88q-6 -31 1.5 -52.5t28.5 -21.5q32 0 74 35l33 -41q-122 -111 -244 -111q-83 0 -125.5 47.5t-19.5 149.5l22 102l90 412q-5 36 -27.5 61.5t-42.5 32.5l-20 8v46q27 2 70 7.5t135.5 32t136.5 62.5h51z" />
<glyph unicode="&#xed;" horiz-adv-x="604" d="M543 1319v-176l-367 -103v62zM485 936l-145 -682q-1 -5 -18 -88q-6 -31 1.5 -52.5t28.5 -21.5q32 0 74 35l33 -41q-122 -111 -244 -111q-83 0 -125.5 47.5t-19.5 149.5l22 102l90 412q-5 36 -27.5 61.5t-42.5 32.5l-20 8v46q27 2 70 7.5t135.5 32t136.5 62.5h51z" />
<glyph unicode="&#xee;" horiz-adv-x="649" d="M102 1081l287 195l199 -195v-55l-197 78l-289 -78v55zM485 936l-145 -682q-1 -5 -18 -88q-6 -31 1.5 -52.5t28.5 -21.5q32 0 74 35l33 -41q-122 -111 -244 -111q-83 0 -125.5 47.5t-19.5 149.5l22 102l90 412q-5 36 -27.5 61.5t-42.5 32.5l-20 8v46q27 2 70 7.5t135.5 32 t136.5 62.5h51z" />
<glyph unicode="&#xef;" horiz-adv-x="960" d="M346 1518q-48 0 -81.5 33.5t-33.5 82.5q0 47 34 82t81 35q49 0 83 -34.5t34 -82.5q0 -49 -33.5 -82.5t-83.5 -33.5zM782 1751q47 0 82 -35t35 -82q0 -49 -34.5 -82.5t-82.5 -33.5t-82 33.5t-34 82.5q0 47 34.5 82t81.5 35zM784 1434v-39q-2 -1 -6.5 -2.5t-18 -9 t-26.5 -19t-31.5 -34.5t-35.5 -52v2l-217 -1126q26 -45 55.5 -74t45.5 -35l17 -6v-39h-506v39q2 1 6.5 2t18 9t27 19.5t32 33.5t35.5 51l213 1124q-26 46 -56 75.5t-47 35.5l-16 6v39h510z" />
<glyph unicode="&#xf0;" horiz-adv-x="1140" d="M1022 1122l-107 -28q162 -197 162 -432q0 -171 -89.5 -331t-236.5 -258t-305 -98q-385 0 -385 344q0 111 50 219.5t133.5 191.5t200.5 134t243 51q19 0 34.5 -1t25 -2t20.5 -4.5t15 -5t14.5 -6t13.5 -5.5q-18 85 -53 160l-207 -56l57 142l88 24q-85 125 -221 201v72 q207 -115 344 -240l260 70zM469 78q92 0 177 86.5t134 212.5t49 246q0 101 -35 145.5t-132 44.5q-76 0 -144.5 -56t-112.5 -139.5t-70 -175t-26 -166.5q0 -113 34 -155.5t126 -42.5z" />
<glyph unicode="&#xf1;" horiz-adv-x="1200" d="M965 1278v-104q-27 -25 -47.5 -34.5t-61.5 -9.5q-32 0 -73.5 27t-71.5 27q-46 0 -105 -56v103q27 27 52.5 36t64.5 9q35 0 79.5 -25.5t65.5 -25.5q44 0 97 53zM1135 643l-127 -389q-1 -4 -13.5 -43t-13.5 -45q-8 -30 1 -52t30 -22q31 0 73 35l33 -41q-122 -111 -244 -111 q-85 0 -130 48t-15 149l31 102l127 410q10 33 -1.5 62t-36.5 46t-54 27t-56 10q-46 4 -90 -9.5t-74.5 -34.5t-57 -47t-39 -43t-17.5 -27l-146 -668h-254l154 686q-8 41 -29.5 67t-39.5 32l-17 6v40q15 3 40.5 9.5t93.5 33t124 62.5h39l29 -129q10 14 31 32.5t62 45t109.5 44 t149.5 17.5q84 0 166.5 -40.5t131.5 -112.5t30 -150z" />
<glyph unicode="&#xf2;" horiz-adv-x="1179" d="M559 1319l367 -217v-62l-367 103v176zM455 -31q110 0 226.5 46t214 124.5t160 195t62.5 245.5q0 160 -100 264.5t-285 103.5q-80 -1 -169.5 -26t-179.5 -78t-161.5 -125.5t-116.5 -179t-45 -228.5q0 -147 113 -244.5t281 -97.5zM711 844q37 1 63.5 -10t41 -27.5 t22.5 -45.5t10 -54.5t2 -63.5q0 -79 -13.5 -158t-43 -153.5t-71.5 -132t-103.5 -92.5t-133.5 -35q-84 0 -119.5 48t-35.5 136q0 127 31.5 237.5t84.5 186t122 119.5t143 45z" />
<glyph unicode="&#xf3;" horiz-adv-x="1179" d="M559 1040v62l367 217v-176zM455 -31q110 0 226.5 46t214 124.5t160 195t62.5 245.5q0 160 -100 264.5t-285 103.5q-80 -1 -169.5 -26t-179.5 -78t-161.5 -125.5t-116.5 -179t-45 -228.5q0 -147 113 -244.5t281 -97.5zM711 844q37 1 63.5 -10t41 -27.5t22.5 -45.5 t10 -54.5t2 -63.5q0 -79 -13.5 -158t-43 -153.5t-71.5 -132t-103.5 -92.5t-133.5 -35q-84 0 -119.5 48t-35.5 136q0 127 31.5 237.5t84.5 186t122 119.5t143 45z" />
<glyph unicode="&#xf4;" horiz-adv-x="1179" d="M989 1026l-196 78l-289 -78v55l287 195l198 -195v-55zM455 -31q110 0 226.5 46t214 124.5t160 195t62.5 245.5q0 160 -100 264.5t-285 103.5q-80 -1 -169.5 -26t-179.5 -78t-161.5 -125.5t-116.5 -179t-45 -228.5q0 -147 113 -244.5t281 -97.5zM711 844q37 1 63.5 -10 t41 -27.5t22.5 -45.5t10 -54.5t2 -63.5q0 -79 -13.5 -158t-43 -153.5t-71.5 -132t-103.5 -92.5t-133.5 -35q-84 0 -119.5 48t-35.5 136q0 127 31.5 237.5t84.5 186t122 119.5t143 45z" />
<glyph unicode="&#xf5;" horiz-adv-x="1179" d="M963 1278v-104q-27 -25 -47.5 -34.5t-61.5 -9.5q-32 0 -73.5 27t-71.5 27q-46 0 -105 -56v103q27 27 52.5 36t64.5 9q35 0 79.5 -25.5t65.5 -25.5q44 0 97 53zM455 -31q110 0 226.5 46t214 124.5t160 195t62.5 245.5q0 160 -100 264.5t-285 103.5q-80 -1 -169.5 -26 t-179.5 -78t-161.5 -125.5t-116.5 -179t-45 -228.5q0 -147 113 -244.5t281 -97.5zM711 844q37 1 63.5 -10t41 -27.5t22.5 -45.5t10 -54.5t2 -63.5q0 -79 -13.5 -158t-43 -153.5t-71.5 -132t-103.5 -92.5t-133.5 -35q-84 0 -119.5 48t-35.5 136q0 127 31.5 237.5t84.5 186 t122 119.5t143 45z" />
<glyph unicode="&#xf6;" horiz-adv-x="1179" d="M520 1026q-47 0 -80.5 34t-33.5 83q0 48 33.5 82.5t80.5 34.5q49 0 83 -34.5t34 -82.5q0 -49 -33.5 -83t-83.5 -34zM956 1026q-48 0 -82 34t-34 83q0 47 34.5 82t81.5 35t82 -35t35 -82q0 -49 -34.5 -83t-82.5 -34zM455 -31q110 0 226.5 46t214 124.5t160 195t62.5 245.5 q0 160 -100 264.5t-285 103.5q-80 -1 -169.5 -26t-179.5 -78t-161.5 -125.5t-116.5 -179t-45 -228.5q0 -147 113 -244.5t281 -97.5zM711 844q37 1 63.5 -10t41 -27.5t22.5 -45.5t10 -54.5t2 -63.5q0 -79 -13.5 -158t-43 -153.5t-71.5 -132t-103.5 -92.5t-133.5 -35 q-84 0 -119.5 48t-35.5 136q0 127 31.5 237.5t84.5 186t122 119.5t143 45z" />
<glyph unicode="&#xf7;" horiz-adv-x="1148" d="M776 846q0 50 -37 86.5t-90 36.5q-43 0 -77.5 -37t-34.5 -86q0 -55 34 -92t78 -37q55 0 91 36.5t36 92.5zM123 403l57 125h846l-57 -125h-846zM606 106q0 50 -37 86.5t-90 36.5q-43 0 -77.5 -37t-34.5 -86q0 -55 34 -92t78 -37q55 0 91 36.5t36 92.5z" />
<glyph unicode="&#xf8;" horiz-adv-x="1275" d="M1214 842l-106 -88q37 -78 37 -174q0 -104 -41 -200.5t-109.5 -169.5t-154 -128.5t-179 -84t-180.5 -28.5q-132 0 -235 64l-39 -33h-146v39l93 78q-66 85 -66 194q0 122 45 228.5t116.5 179t161.5 125.5t179.5 78t169.5 26q175 0 278 -96l35 29h141v-39zM356 285l518 430 q-7 63 -37 96.5t-100 32.5q-149 -3 -261.5 -160t-119.5 -399zM872 555l-495 -412q36 -71 135 -71q64 0 120 28t96 75t70.5 109.5t48.5 130.5t25 140z" />
<glyph unicode="&#xf9;" horiz-adv-x="1163" d="M850 1040l-367 103v176l367 -217v-62zM1102 936l-154 -764q-7 -28 0 -54t27 -26q19 0 34.5 8t43.5 31l34 -45q-122 -111 -253 -111q-66 0 -105.5 30.5t-40.5 96.5q-8 -14 -25 -31.5t-51 -42.5t-91.5 -41t-127.5 -16q-42 0 -90 11t-95 34.5t-83 55.5t-52.5 80t-4.5 102 l96 432q-8 37 -28.5 64t-37.5 35l-16 8v45q8 0 21 1t51.5 7t74 15.5t79 29t75.5 45.5h43v-178l-111 -527q-13 -70 32 -104.5t118 -34.5q48 0 94 21.5t78 53.5t50.5 55t27.5 40l143 674h244z" />
<glyph unicode="&#xfa;" horiz-adv-x="1163" d="M850 1143l-367 -103v62l367 217v-176zM1102 936l-154 -764q-7 -28 0 -54t27 -26q19 0 34.5 8t43.5 31l34 -45q-122 -111 -253 -111q-66 0 -105.5 30.5t-40.5 96.5q-8 -14 -25 -31.5t-51 -42.5t-91.5 -41t-127.5 -16q-42 0 -90 11t-95 34.5t-83 55.5t-52.5 80t-4.5 102 l96 432q-8 37 -28.5 64t-37.5 35l-16 8v45q8 0 21 1t51.5 7t74 15.5t79 29t75.5 45.5h43v-178l-111 -527q-13 -70 32 -104.5t118 -34.5q48 0 94 21.5t78 53.5t50.5 55t27.5 40l143 674h244z" />
<glyph unicode="&#xfb;" horiz-adv-x="1163" d="M911 1081v-55l-196 78l-289 -78v55l287 195zM1102 936l-154 -764q-7 -28 0 -54t27 -26q19 0 34.5 8t43.5 31l34 -45q-122 -111 -253 -111q-66 0 -105.5 30.5t-40.5 96.5q-8 -14 -25 -31.5t-51 -42.5t-91.5 -41t-127.5 -16q-42 0 -90 11t-95 34.5t-83 55.5t-52.5 80 t-4.5 102l96 432q-8 37 -28.5 64t-37.5 35l-16 8v45q8 0 21 1t51.5 7t74 15.5t79 29t75.5 45.5h43v-178l-111 -527q-13 -70 32 -104.5t118 -34.5q48 0 94 21.5t78 53.5t50.5 55t27.5 40l143 674h244z" />
<glyph unicode="&#xfc;" horiz-adv-x="1163" d="M444 1026q-47 0 -80.5 34t-33.5 83q0 48 33.5 82.5t80.5 34.5q49 0 83 -34.5t34 -82.5q0 -49 -33.5 -83t-83.5 -34zM881 1026q-48 0 -82.5 34t-34.5 83q0 47 35 82t82 35t81.5 -35t34.5 -82q0 -49 -34 -83t-82 -34zM1102 936l-154 -764q-7 -28 0 -54t27 -26q19 0 34.5 8 t43.5 31l34 -45q-122 -111 -253 -111q-66 0 -105.5 30.5t-40.5 96.5q-8 -14 -25 -31.5t-51 -42.5t-91.5 -41t-127.5 -16q-42 0 -90 11t-95 34.5t-83 55.5t-52.5 80t-4.5 102l96 432q-8 37 -28.5 64t-37.5 35l-16 8v45q8 0 21 1t51.5 7t74 15.5t79 29t75.5 45.5h43v-178 l-111 -527q-13 -70 32 -104.5t118 -34.5q48 0 94 21.5t78 53.5t50.5 55t27.5 40l143 674h244z" />
<glyph unicode="&#xfd;" horiz-adv-x="1036" d="M733 1143l-366 -103v62l366 217v-176zM975 881v-39q-2 -1 -6.5 -2t-17.5 -9t-26.5 -19.5t-31.5 -33.5t-35 -51l-614 -1173h-119l244 448l-195 733q-25 42 -53.5 68.5t-44.5 32.5l-15 6v39h336l129 -551l222 399q-26 44 -55.5 72.5t-45.5 34.5l-16 6v39h344z" />
<glyph unicode="&#xfe;" horiz-adv-x="1484" d="M821 1278l-108 -465q153 121 327 121q180 1 281.5 -107.5t101.5 -265.5q0 -126 -59.5 -238.5t-152.5 -187.5t-206 -118.5t-221 -43.5q-71 0 -129.5 33.5t-85.5 85.5l-127 -665q26 -46 56 -75.5t46 -35.5l17 -6v-39h-500v39q2 1 6.5 2.5t18 9t27 19t32 34.5t35.5 52v-2 l264 1216l123 639q-26 45 -55 74t-45 35l-16 6v39h489v-39q-2 -1 -6.5 -2.5t-18 -9t-27 -19t-32 -34.5t-35.5 -52zM815 76q88 0 156 48t107 129.5t58 176.5t19 199q0 37 -2 62t-9.5 54t-21.5 46.5t-40 29t-62 10.5q-98 -2 -185 -80t-138.5 -204.5t-51.5 -265.5 q0 -86 43.5 -145.5t126.5 -59.5z" />
<glyph unicode="&#xff;" horiz-adv-x="1036" d="M358 1026q-47 0 -80.5 34t-33.5 83q0 48 33.5 82.5t80.5 34.5q49 0 83 -34.5t34 -82.5q0 -49 -33.5 -83t-83.5 -34zM795 1026q-48 0 -82.5 34t-34.5 83q0 47 35 82t82 35t81.5 -35t34.5 -82q0 -49 -34 -83t-82 -34zM975 881v-39q-2 -1 -6.5 -2t-17.5 -9t-26.5 -19.5 t-31.5 -33.5t-35 -51l-614 -1173h-119l244 448l-195 733q-25 42 -53.5 68.5t-44.5 32.5l-15 6v39h336l129 -551l222 399q-26 44 -55.5 72.5t-45.5 34.5l-16 6v39h344z" />
<glyph unicode="&#x152;" horiz-adv-x="2134" d="M1860 0h-1031q-109 -31 -225 -31q-247 0 -395 150.5t-148 417.5q0 141 38 278t113 257t177 211.5t239 144.5t290 53q136 0 245 -47h774l136 -252h-60l-151 129h-406q-26 -13 -57 -56l-72 -374q14 -20 28.5 -34.5t22.5 -18.5l8 -5h277q29 1 70 27.5t67 53.5l27 26h28 l-63 -336h-29q-1 4 -3.5 10.5t-11.5 23t-19.5 30t-28 26.5t-37.5 16h-322q-28 -12 -59 -59l-88 -459q14 -21 28.5 -35.5t22.5 -18.5l8 -5h535l186 129h56zM932 231l192 1014q-66 113 -233 113q-91 0 -171 -39.5t-138 -107t-103.5 -154.5t-73.5 -185.5t-42.5 -196.5 t-14.5 -190q0 -203 62.5 -298t222.5 -95q173 0 299 139z" />
<glyph unicode="&#x153;" horiz-adv-x="1824" d="M1554 182h84q-81 -120 -167.5 -166.5t-215.5 -46.5q-253 0 -356 170q-97 -83 -215 -128.5t-229 -45.5q-168 0 -281 97.5t-113 244.5q0 122 45 228.5t116.5 179t161.5 125.5t179.5 78t169.5 26q223 3 326 -156q182 160 407 160q77 0 142.5 -23.5t110 -75.5t44.5 -124 q0 -122 -167.5 -223t-497.5 -133q-25 -145 16.5 -221.5t165.5 -75.5q83 2 145.5 23t128.5 87zM1112 500l-4 -27q134 21 221.5 47t133 58.5t62.5 66.5t17 80q0 59 -29.5 89t-82.5 30q-104 0 -191 -95.5t-127 -248.5zM485 68q72 0 133.5 35t103.5 92.5t71.5 132t43 153.5 t13.5 158q0 38 -2 63.5t-10 54.5t-22.5 45.5t-41 27.5t-63.5 10q-74 -1 -143 -45t-122 -119.5t-84.5 -186t-31.5 -237.5q0 -88 35.5 -136t119.5 -48z" />
<glyph unicode="&#x178;" horiz-adv-x="1425" d="M563 1518q-48 0 -81 33.5t-33 82.5q0 48 33.5 82.5t80.5 34.5q49 0 83 -34.5t34 -82.5q0 -49 -33.5 -82.5t-83.5 -33.5zM999 1518q-48 0 -82 33.5t-34 82.5q0 47 34.5 82t81.5 35t82 -35t35 -82q0 -49 -34.5 -82.5t-82.5 -33.5zM1364 1434v-39q-7 -1 -20 -5.5t-49.5 -29 t-69.5 -60.5l-539 -692l-88 -454q26 -45 56 -74t46 -35l17 -6v-39h-508v39q2 1 6.5 2t18 9t27 19.5t32 33.5t35.5 51l86 452l-234 672q-26 46 -56 75.5t-46 35.5l-17 6v39h549v-39q-2 -1 -6.5 -2.5t-18 -9t-26.5 -19t-31.5 -34.5t-35.5 -52l-3 4l168 -514l398 514 q-26 44 -55.5 72.5t-45.5 34.5l-16 6v39h426z" />
<glyph unicode="&#x2c6;" horiz-adv-x="280" d="M383 1217l-197 77l-288 -77v55l286 194l199 -194v-55z" />
<glyph unicode="&#x2dc;" horiz-adv-x="151" d="M256 1513v-104q-26 -24 -47 -33.5t-62 -9.5q-32 0 -73.5 26.5t-71.5 26.5q-46 0 -104 -55v102q28 28 53 36.5t63 8.5q35 0 80 -25.5t66 -25.5q43 0 96 53z" />
<glyph unicode="&#x2000;" horiz-adv-x="893" />
<glyph unicode="&#x2001;" horiz-adv-x="1786" />
<glyph unicode="&#x2002;" horiz-adv-x="893" />
<glyph unicode="&#x2003;" horiz-adv-x="1786" />
<glyph unicode="&#x2004;" horiz-adv-x="595" />
<glyph unicode="&#x2005;" horiz-adv-x="446" />
<glyph unicode="&#x2006;" horiz-adv-x="297" />
<glyph unicode="&#x2007;" horiz-adv-x="297" />
<glyph unicode="&#x2008;" horiz-adv-x="223" />
<glyph unicode="&#x2009;" horiz-adv-x="357" />
<glyph unicode="&#x200a;" horiz-adv-x="99" />
<glyph unicode="&#x2010;" horiz-adv-x="907" d="M846 596h-758l-27 -123h758z" />
<glyph unicode="&#x2011;" horiz-adv-x="907" d="M846 596h-758l-27 -123h758z" />
<glyph unicode="&#x2012;" horiz-adv-x="907" d="M846 596h-758l-27 -123h758z" />
<glyph unicode="&#x2013;" horiz-adv-x="1251" d="M0 471l57 123h1194l-57 -123h-1194z" />
<glyph unicode="&#x2014;" horiz-adv-x="1875" d="M0 471l57 123h1819l-57 -123h-1819z" />
<glyph unicode="&#x2018;" horiz-adv-x="436" d="M334 1532l-107 -107q84 -18 84 -110q0 -46 -32.5 -77.5t-77.5 -31.5t-72 32t-27 77q0 70 35 110l197 195v-88z" />
<glyph unicode="&#x2019;" horiz-adv-x="436" d="M102 1294l107 107q-84 18 -84 110q0 46 33 77.5t78 31.5t71.5 -32t26.5 -77q0 -70 -35 -110l-197 -195v88z" />
<glyph unicode="&#x201a;" horiz-adv-x="462" d="M102 -158l119 123q-94 18 -94 123q0 53 36 88t87 35t80.5 -36t29.5 -87q0 -83 -38 -123l-220 -219v96z" />
<glyph unicode="&#x201c;" horiz-adv-x="747" d="M362 1573l-118 -123q92 -18 92 -123q0 -53 -35.5 -88t-85.5 -35q-53 0 -83 36t-30 87q0 79 39 123l221 219v-96zM645 1573l-119 -123q95 -18 95 -123q0 -53 -36 -88t-87 -35t-81 36.5t-30 86.5q0 82 39 123l219 219v-96z" />
<glyph unicode="&#x201d;" horiz-adv-x="747" d="M102 1294l119 123q-94 18 -94 123q0 53 36 88t87 35t80.5 -36t29.5 -87q0 -83 -38 -123l-220 -219v96zM385 1294l119 123q-92 18 -92 123q0 53 35 88t85 35q53 0 83 -36t30 -87q0 -79 -39 -123l-221 -219v96z" />
<glyph unicode="&#x201e;" horiz-adv-x="747" d="M102 -158l119 123q-94 18 -94 123q0 53 36 88t87 35t80.5 -36t29.5 -87q0 -83 -38 -123l-220 -219v96zM385 -158l119 123q-92 18 -92 123q0 53 35 88t85 35q53 0 83 -36t30 -87q0 -79 -39 -123l-221 -219v96z" />
<glyph unicode="&#x2022;" horiz-adv-x="759" d="M596 627q0 -88 -64 -150.5t-153 -62.5q-88 0 -151.5 62.5t-63.5 150.5q0 87 64 152t151 65q89 0 153 -65t64 -152z" />
<glyph unicode="&#x2026;" horiz-adv-x="1234" d="M375 117q0 56 -42.5 97.5t-101.5 41.5q-50 0 -89.5 -42t-39.5 -97q0 -63 39 -105.5t90 -42.5q61 0 102.5 42t41.5 106zM750 117q0 56 -42.5 97.5t-101.5 41.5q-50 0 -89.5 -42t-39.5 -97q0 -63 39 -105.5t90 -42.5q61 0 102.5 42t41.5 106zM1133 117q0 56 -42.5 97.5 t-101.5 41.5q-50 0 -89.5 -42t-39.5 -97q0 -63 39 -105.5t90 -42.5q61 0 102.5 42t41.5 106z" />
<glyph unicode="&#x202f;" horiz-adv-x="357" />
<glyph unicode="&#x2039;" horiz-adv-x="573" d="M338 180l-256 301v43l328 297h61l-184 -319l112 -322h-61z" />
<glyph unicode="&#x203a;" horiz-adv-x="573" d="M236 821l256 -301v-43l-328 -297h-62l185 320l-113 321h62z" />
<glyph unicode="&#x205f;" horiz-adv-x="446" />
<glyph unicode="&#x20ac;" horiz-adv-x="1601" d="M1427 1028h-47q-4 63 -10 103t-18.5 79t-32 61t-51.5 39.5t-76.5 24t-106.5 6.5q-93 -4 -171.5 -40.5t-135.5 -99.5t-97.5 -140t-66.5 -170h344l-57 -123h-311q-9 -69 -12 -133h268l-58 -125h-206q15 -216 107.5 -315t264.5 -99q141 0 221 32t183 136h57 q-47 -86 -102 -144.5t-117.5 -90t-125.5 -44t-140 -12.5q-293 0 -452 138t-183 399h-234l58 125h172q3 69 12 133h-129l57 123h99q36 127 104 231.5t164 181t224 118.5t276 42q108 0 229.5 -29.5t212.5 -86.5z" />
<glyph unicode="&#x2122;" horiz-adv-x="1265" d="M315 1389l-84 -424q9 -17 20 -28t18 -13l7 -2v-15h-186v15q23 4 43 45v-2l82 424h-139l-47 -46h-17l54 91h391l47 -91h-19l-47 46h-123zM1143 1434v-17q-20 -2 -43 -41l-80 -415q9 -17 19.5 -28.5t16.5 -14.5l7 -3v-12h-186v12q23 7 43 48l2 -7l73 396l-209 -389 q-29 -25 -47 -60h-12l-86 451l-76 -393q10 -17 22 -28.5t19 -14.5l6 -3v-12h-135v12q23 7 43 48v-2l84 430l-4 -17q-10 18 -21.5 29t-17.5 13l-6 1v17h184l56 -351l194 351h154z" />
<glyph unicode="&#x25fc;" horiz-adv-x="931" d="M0 932h932v-932h-932v932z" />
</font>
</defs>
</svg>
