<?xml version="1.0" encoding="utf-8"?>
<!-- Generator: Adobe Illustrator 21.1.0, SVG Export Plug-In . SVG Version: 6.00 Build 0)  -->
<svg version="1.1" id="Layer_3" xmlns="http://www.w3.org/2000/svg" xmlns:xlink="http://www.w3.org/1999/xlink" x="0px" y="0px"
	 viewBox="0 0 567 85.7" style="enable-background:new 0 0 567 85.7;" xml:space="preserve">
<style type="text/css">
	.st0{fill:#FFFFFF;}
	.st1{opacity:0.5;}
</style>
<g>
	<g>
		<g>
			<g>
				<g>
					<g>
						<path class="st0" d="M114.7,68.6c0,3.6,2.5,5.3,5.5,5.3c4.4,0,5.3-2.9,5.3-5.5V61c0-2.3-2.1-1.3-2.1-2.3
							c0-0.2,0.2-0.2,0.2-0.2c1,0,1.7,0,2.7,0c0.4,0,0.8,0,1.3,0c0.2,0,0.4,0.2,0.4,0.2c0,0.6-1.3,0.2-1.3,2.3v7.2
							c0,1.1,0.2,6.9-6.5,6.9c-6.1,0-7.2-3.4-7.2-7v-7.8c0-1.3-1.9-0.8-1.9-1.5c0-0.2,0.4-0.2,0.6-0.2c0.6,0,1.1,0,1.7,0
							c0.8,0,1.5,0,2.3,0c0.2,0,0.8,0,0.8,0.2c0,0.6-1.5,0-1.5,1.7v8.2H114.7z"/>
						<path class="st0" d="M136.6,62.9c0-4.8-2.9-3.4-2.9-4.4c0-0.2,0.2-0.2,0.4-0.2c0.4,0,0.8,0,1.1,0c0.4,0,0.8,0,1.1,0
							c0.2,0,0.4,0.4,0.6,0.6l11,12.4c0.2,0.2,0.2,0.2,0.2,0.2s0,0,0-0.2v-9.7c0-3-2.5-2.1-2.5-2.9c0-0.2,0.2-0.2,0.2-0.2
							c0.8,0,1.3,0,2.1,0s1.7,0,2.3,0c0.2,0,0.2,0,0.2,0.2c0,0.6-1.3,0.2-1.3,1.9V74c0,0.8,0,1-0.2,1s-0.4-0.2-1-0.6l-9.9-11.2
							c0,0-0.4-0.4-0.6-0.4c-0.2,0-0.2,0-0.2,0.6v9.5c0,2.1,2.1,1.3,2.1,1.9c0,0.2,0,0.4-0.2,0.4c-0.6,0-1.1,0-2.3,0
							c-0.8,0-2.1,0-2.1,0c-0.2,0-0.4-0.2-0.4-0.2c0-0.8,2.1,0.2,2.1-3V62.9z"/>
						<path class="st0" d="M160,60.5c0-1.7-1.9-1.1-1.9-1.7c0-0.2,0-0.2,0.2-0.2c1,0,1.7,0,2.5,0s1.5,0,2.1,0c0.4,0,0.4,0,0.4,0.2
							c0,0.6-1.7,0-1.7,1.7v12.4c0,1.5,2.1,1,2.1,1.7c0,0.2,0,0.2-0.4,0.2c-0.6,0-1.5,0-2.5,0c-1.3,0-1.9,0-2.3,0s-0.6-0.2-0.6-0.4
							c0-0.8,1.7,0,1.7-2.3V60.5H160z"/>
						<path class="st0" d="M171.2,60.3c-0.6-1.3-1.7-1-1.7-1.5c0-0.2,0.2-0.4,0.4-0.4c0.8,0,1.5,0,2.1,0s1.5,0,1.9,0
							c0.2,0,0.4,0,0.4,0.2c0,0.4-1,0.4-1,1.1c0,0.4,0.2,0.8,0.2,1l4,9.5c0.6,1.1,0.8,1.7,1,1.7s0.4-0.4,0.4-0.6l4-9.9
							c0.2-0.4,0.4-1.1,0.4-1.5c0-1.1-1.5-0.6-1.5-1.1c0-0.2,0.2-0.4,0.4-0.4c0.6,0,1,0,1.5,0c1.1,0,1.5,0,1.7,0s0.4,0,0.4,0.4
							c0,0.6-0.6,0-1.3,1.5L178.6,74c-0.2,0.6-0.4,1.3-0.8,1.3c-0.4,0-0.6-1-0.8-1.5L171.2,60.3z"/>
						<path class="st0" d="M213.1,60.1c0-1,0.6-0.8,1.3-0.8c2.3,0,4.4,1,4.4,3.8c0,2.9-2.3,3.2-3.2,3.2c-1.1,0-2.5,0.2-2.5-0.4V60.1
							z M217.7,66.4c1.7-0.6,2.9-2.3,2.9-4c0-4.4-5.1-4-5.5-4c-1.1,0-2.5,0-3.8,0c-1.1,0-1.1,0-1.5,0c-0.2,0-0.4,0.2-0.4,0.2
							c0,0.8,1.9-0.2,1.9,2.1v11.8c0,1.7-1.7,1.5-1.7,2.1c0,0.2,0,0.2,0.2,0.2c1,0,1.7,0,2.7,0c1.9,0,2.5,0,2.7,0
							c0.2,0,0.4,0,0.4-0.2c0-0.8-2.5,0-2.5-2.1v-4.9c0-0.2-0.2-0.6,0.6-0.6c2.7,0,2.3,0,3,1.1l2.7,4c1,1.3,1.7,2.5,3.4,2.5
							c0.2,0,1.5,0,1.5-0.2c0-0.6-1.1,0.4-2.9-2.3L217.7,66.4z"/>
						<path class="st0" d="M228.7,70.7c0-0.4,0-0.8,0.2-0.8c0.4,0,0.4,0.2,0.4,0.8c0.2,1.1,1.7,3.4,4.9,3.4c2.3,0,4.4-1.1,4.4-3.6
							c0-4.4-9.5-1.9-9.5-8c0-2.9,2.5-4.4,5.1-4.4c2.9,0,3.6,0.8,4,0.8c0.2,0,0.2-0.2,0.6-0.2c0.2,0,0.2,0,0.2,0.4l0.4,3.2
							c0,0.2,0,0.4-0.2,0.4c-0.2,0-0.4-0.6-0.6-0.8c-0.8-1.9-2.5-3-4.4-3c-1.9,0-3.8,1-3.8,3c0,4.4,9.5,1.7,9.5,8.2
							c0,1.9-1.3,4.9-6.7,4.9c-1.7,0-3.8-1-4-1.3L228.7,70.7z"/>
						<path class="st0" d="M248.7,60.5c0-1.7-1.9-1.1-1.9-1.7c0-0.2,0-0.2,0.2-0.2c0.8,0,1.7,0,2.5,0s1.5,0,2.1,0
							c0.4,0,0.4,0,0.4,0.2c0,0.6-1.7,0-1.7,1.7v12.4c0,1.5,2.1,1,2.1,1.7c0,0.2,0,0.2-0.4,0.2c-0.6,0-1.5,0-2.5,0
							c-1.3,0-1.9,0-2.3,0s-0.6-0.2-0.6-0.4c0-0.8,1.7,0,1.7-2.3V60.5H248.7z"/>
						<path class="st0" d="M264.7,60.8c0-0.2,0-1-0.2-1.1h-3.8c-1.5,0-1.5,0.4-1.9,1.7c0,0.2,0,0.6-0.4,0.6c-0.2,0-0.2-0.2-0.2-0.2
							l0.2-2.3c0-0.2,0-1,0.4-1c1.9,0,3.6,0,6.7,0c4.2,0,6.3,0,6.9,0c0.6,0,0.6,0.2,0.8,0.8l0.2,1.9c0,0.2,0,0.6-0.2,0.6
							c-1,0,0.4-1.7-1.9-1.7h-3.2c-1,0-1,0-1,1.1V73c0,1.9,1.9,1.1,1.9,1.9c0,0,0,0.2-0.2,0.2c-0.6,0-1.1,0-1.9,0c-2.7,0-3,0-3.2,0
							c-0.2,0-0.2,0-0.2-0.4c0-0.6,1.9-0.4,1.9-1.7V60.8H264.7z"/>
						<path class="st0" d="M279,59.9c-0.6-1-1.7-0.8-1.7-1.1c0-0.2,0.2-0.4,0.4-0.4c0.6,0,1.1,0,2.7,0c0.8,0,1.3,0,1.7,0
							c0.2,0,0.4,0,0.4,0.2c0,0.4-1.1,0.4-1.1,1.1c0,0.4,0.2,0.8,0.4,1l2.9,4.4c0.2,0.2,0.4,0.4,0.4,0.4c0.2,0,0.2-0.2,0.4-0.4
							l2.5-3.8c0.2-0.2,0.6-0.6,0.6-1.3c0-1.1-1.7-0.6-1.7-1.1c0-0.4,0.2-0.4,0.6-0.4c0.6,0,1.1,0,1.7,0c0.8,0,1.3,0,2.1,0
							c0.2,0,0.2,0.2,0.2,0.2c0,0.2-0.4,0.4-0.6,0.4c-0.6,0.4-1,1-1.3,1.5l-3.2,4.9c-0.4,0.6-0.6,0.8-0.6,1v5.7
							c0,2.1,1.9,1.3,1.9,2.1c0,0.2-0.2,0.2-0.6,0.2s-1.7,0-2.5,0c-1,0-1.9,0-2.1,0c-0.2,0-0.4,0-0.4-0.2c0-0.6,1.7,0,1.7-1.7v-5.5
							c0-0.4-0.4-1-0.6-1.1L279,59.9z"/>
						<path class="st0" d="M194.6,65c0,0.8,0,0.8,1,0.8h2.5c2.5,0,1.7-1.9,2.3-1.9c0.2,0,0.2,0.2,0.2,0.4c0,0.8,0,1.5,0,2.3
							c0,0.6,0,1.1,0,1.9c0,0.2,0,0.4-0.2,0.4c-0.8,0,0-2.1-1.9-2.1H195c-0.6,0-0.4,0.4-0.4,0.8v4.2c0,1.3-0.2,1.9,1.7,1.9
							c5.3,0,6.1-2.5,6.5-2.5c0.2,0,0.2,0.2,0.2,0.2c0,0.8-0.6,1.7-1.1,2.3c-0.8,0.8-1.3,0.8-2.3,0.8c-1.7,0-3.4-0.2-5.3,0
							c-1,0-1.9,0-2.9,0c-0.2,0-0.4,0-0.4-0.2s0.2-0.2,1-0.6c0.6-0.2,0.6-1,0.6-2.1V61c0-1.1,0-2.1-1.3-2.3c-0.2,0-0.8,0-0.8-0.4
							c0-0.2,0.2-0.2,0.8-0.2c4.4,0,5.5,0,6.5,0c0.4,0,2.7,0,3.2,0c0.2,0,0.2,0.2,0.2,0.6c0,2.7-0.4,2.7-0.4,2.7
							c-0.6,0-0.2-1.1-0.6-1.7c-0.6-0.8-3-0.6-4-0.6c-2.3,0-2.1,0-2.1,1.5V65H194.6z"/>
					</g>
				</g>
			</g>
		</g>
		<g>
			<path class="st0" d="M207.8,9.4c10.9,0,17.7,9.9,17.7,20c0,10.3-6.5,16.9-14.7,16.9c-11,0-17.9-9.9-17.9-20.4
				C192.9,17.2,198.2,9.4,207.8,9.4z M208.5,48.1c12.4,0,21.1-8.2,21.1-20.8c0-11.6-8.8-19.8-20.2-19.8c-11.4,0-20.6,8.4-20.6,20
				C188.9,39.3,196.3,48.1,208.5,48.1z"/>
			<path class="st0" d="M240.7,11.9c0-2.1,1.1-2.1,3-2.1c5.3,0,10.3,2.3,10.3,8.8c0,6.7-5.1,7.6-7.6,7.6c-2.5,0-5.9,0.2-5.9-0.8
				V11.9H240.7z M251.5,27c3.8-1.5,6.9-5.1,6.9-9.3c0-10.5-12-9.3-12.9-9.3c-2.9,0-5.9,0.2-8.9,0.2c-2.9,0-2.5-0.2-3.4-0.2
				c-0.6,0-1.1,0.4-1.1,0.6c0,1.9,4.6-0.4,4.6,4.8v27.6c0,4.2-4,3.4-4,4.8c0,0.4,0.2,0.6,0.6,0.6c2.1,0,4.2-0.2,6.1-0.2
				c4.6,0,5.7,0.2,6.3,0.2c0.4,0,1,0.2,1-0.4c0-1.9-5.7-0.2-5.7-4.8V30c0-0.6-0.4-1.5,1.3-1.5c6.1,0,5.3-0.2,7.2,2.9l6.1,9.5
				c2.1,3,4.2,5.9,8.2,5.9c0.6,0,4.8,0,4.8-0.6c0-1.3-4,0.8-7.8-5.3L251.5,27z"/>
			<path class="st0" d="M267.3,11.5c-1.3-2.3-4-1.7-4-2.7c0-0.4,0.4-0.8,0.8-0.8c1.5,0,2.5,0.2,6.1,0.2c1.7,0,3.2-0.2,3.8-0.2
				c0.4,0,1,0,1,0.6c0,1-2.5,1-2.5,2.5c0,1,0.6,1.7,1,2.3l6.5,10.5c0.4,0.6,0.8,1,1.1,1c0.2,0,0.6-0.4,1-1.1l5.5-9.1
				c0.4-0.6,1.1-1.5,1.1-3c0-2.7-4-1.5-4-2.9c0-0.8,0.6-0.8,1.1-0.8c1.3,0,2.7,0.2,4,0.2c1.5,0,3-0.2,4.8-0.2c0.4,0,0.6,0.4,0.6,0.6
				c0,0.6-1,0.8-1.3,1c-1.5,1-2.1,2.5-3,3.8l-7.6,11.8c-1,1.3-1.3,1.7-1.3,2.5v13.3c0,4.8,4.4,3.2,4.4,4.9c0,0.6-0.6,0.6-1.3,0.6
				c-0.8,0-4-0.2-5.9-0.2c-2.5,0-4.4,0.2-4.9,0.2c-0.6,0-0.8,0-0.8-0.6c0-1.5,4.2-0.2,4.2-4V28.7c0-1-0.8-2.1-1.3-2.9L267.3,11.5z"
				/>
			<path class="st0" d="M182.8,41.6c0.2,4.6,4.2,2.5,4.2,4.4c0,0.6-0.8,0.6-1.3,0.6c-1,0-2.9-0.2-5.1-0.2c-1.7,0-3.4,0.2-4.8,0.2
				c-0.6,0-0.6-0.2-0.6-0.6c0-1.7,3.4-0.4,3.4-4.4l-1.5-20.9c0-1.3-0.2-2.1-0.6-2.1c-0.4,0-1,0.6-1.3,1.7L164,43.1
				c-0.2,0.6-1.1,2.7-1.7,2.7s-1-1.1-1.1-1.5l-11.4-24.4c-0.2-0.4-0.4-0.6-0.6-0.6c-0.2,0-0.4,0.2-0.4,0.8l-1.5,19
				c-0.2,7.2,4.9,4.8,4.9,6.9c0,0.6-0.6,0.6-1.3,0.6c-0.8,0-3-0.2-4.8-0.2c-2.9,0-3.8,0.2-4.8,0.2c-0.4,0-0.6-0.2-0.6-0.6
				c0-1.9,3.4,0.4,3.8-5.3c0.6-8.9,1.1-14.7,1.1-20.4c0-12.8-4.2-9.7-4.2-11.6c0-0.6,0.4-0.6,1-0.6c1,0,1.9,0.2,3,0.2
				c1,0,1.9-0.2,2.9-0.2c0.8,0,1,1,1.1,1.5l12.9,27.6c0.6,1.1,0.8,1.7,1.1,1.7c0.2,0,0.8-1.1,1.7-2.9l12.9-25.9
				c0.4-0.6,0.8-1.9,1.3-1.9c0.6,0,2.3,0.2,2.5,0.2c1.3,0,1.7-0.2,2.7-0.2c0.4,0,0.6,0.4,0.6,0.6c0,1.7-4.4-0.6-4.2,5.9L182.8,41.6z
				"/>
			<path class="st0" d="M117,23.9c0,1.9-0.2,1.9,2.1,1.9h5.9c5.5,0,4.2-4.4,5.5-4.4c0.4,0,0.6,0.6,0.6,1c0,1.9,0,3.8,0,5.5
				c0,1.3,0,2.9,0,4.4c0,0.6-0.2,0.8-0.6,0.8c-1.7,0,0.2-4.8-4.4-4.8h-8c-1.1,0-1,1-1,1.7v9.9c0,3.2-0.4,4.6,4.2,4.6
				c12.4,0,14.3-5.5,15-5.5c0.4,0,0.4,0.6,0.4,0.6c0,1.9-1.3,3.8-2.7,5.3c-1.7,1.9-2.9,1.9-5.3,1.9c-4.2,0-8.2-0.4-12.4-0.2
				c-2.1,0-4.4,0.2-6.7,0.2c-0.6,0-0.8-0.2-0.8-0.6c0.2-0.6,0.6-0.6,2.5-1.3c1.3-0.6,1.5-2.1,1.5-4.8V15.3c0-2.5,0-5.1-2.9-5.5
				c-0.4-0.2-1.7-0.2-1.7-0.8c0-0.4,0.4-0.6,1.9-0.6c10.3,0,12.9,0.2,15.2,0.2c1.1,0,6.1-0.2,7.8-0.2c0.4,0,0.6,0.6,0.6,1.1
				c0,6.1-0.8,6.5-1.1,6.5c-1.3,0-0.4-2.7-1.3-3.8c-1.3-1.9-7-1.5-9.1-1.5c-5.1,0-5.1-0.2-5.1,3.4v9.7H117z"/>
		</g>
		<g>
			<g>
				<path class="st0" d="M38.1,78.2C2.5,61.8,6.7,25.1,6.9,7.9h63C69.7,25.1,73.7,61.8,38.1,78.2z M6.7,5.1L4.1,7.9
					c0,2.1,0,4.6,0,5.9C3.9,34,5.2,65.4,37.9,80.6c17.3-8,30.5-21.9,33.9-43.4c2.1-12.4,0.8-24.2,0.8-32.2L6.7,5.1z"/>
			</g>
			<g>
				<path class="st0" d="M24.6,50.2c-2.5,2.7-4.9,5.3-5.9,6.3c-0.2,0.2-0.2,0.4-0.2,0.6c0.2,0.2,0.4,0.4,0.6,0.4s0.2,0.2,0.6-0.2
					c0.2-0.2,2.9-2.9,6.1-5.9c0,0-0.4-0.2-0.6-0.4C25,50.6,24.6,50.2,24.6,50.2z"/>
				<g>
					<path class="st0" d="M26.3,49.4c0.6,0.6,1.7,1.1,1.7,1.1l-0.6,0.6c-0.2,0.2-1-0.2-1.9-0.8c-0.8-0.8-1.3-1.5-1-1.7l0.6-0.6
						C25.2,48.1,25.8,48.8,26.3,49.4z"/>
				</g>
				<g>
					<g>
						<g>
							<path class="st0" d="M55.1,56.5c0.6-0.6,0.6-1,0.6-1l0.6,0.2c0.2,0.2,0,0.8-0.6,1.3c-0.6,0.6-1.3,0.8-1.3,0.6L53.9,57
								C53.9,56.8,54.5,56.8,55.1,56.5z"/>
						</g>
					</g>
					<g>
						<g>
							<path class="st0" d="M54.3,55.5c0.4-0.4,0.4-0.8,0.4-0.8l0.4,0.2c0.2,0.2,0,0.6-0.4,1c-0.4,0.4-1,0.6-1,0.4l-0.4-0.4
								C53.4,55.9,53.9,55.7,54.3,55.5z"/>
						</g>
					</g>
				</g>
			</g>
			<g>
				<path class="st0" d="M56,26.8l-0.8,0.6c-1,0.4-3-1.3-4.6-2.7c-1.1-1-3.2-3.4-2.7-4.4l0.2-0.2c-0.2-0.2-0.4-0.2-0.6-0.4
					c-0.2-0.2-0.4-0.2-0.8-0.2c-0.2,0-0.4,0.2-0.6,0.4c0,0.4,0.2,1,0.6,1.7c0.4,0.8,1.7,2.7,4.4,4.9c1.3,1,2.7,1.7,3.8,2.1
					c0.2,0,0.8,0.2,1.1,0c0.4-0.4,0-0.8-0.2-1.3C56.2,27,56,27,56,26.8z"/>
			</g>
			<path class="st0" d="M54.7,20.3"/>
			<path class="st0" d="M53.4,19.7"/>
			<path class="st0" d="M27.5,16.5c0,0.2,0,0.4,0,0.8c0,0.6,0.6,6.3,3.8,10.1c2.7,3.4,11,13.3,12.4,14.8c1.3,1.5,9.3,11,10.5,12.2
				l0.2,0.2c0,0-0.2,0.2-0.4,0.4s-0.6,0.2-0.6,0.2l-0.2-0.2c-0.4-0.4-14.5-14.5-15.8-15.8c-1.3-1.3-8.6-8.4-11.6-10.3
				c-2.7-1.7-3.8-2.7-6.7-2.9c0,0-2.1,0-2.1-0.2v-0.2c1.3-0.6,4-2.1,6.1-4.2c3-2.9,4-4.9,4.2-5.1C27.3,16.5,27.5,16.5,27.5,16.5z
				 M29.4,28.5c-2.9-2.9-4-3.6-5.3-4.2c-0.8-0.4-1.3-0.6-1.5-0.4c-0.6,0.2-1.5,0.6-1.9,1.1c-0.4,0.4-0.4,0.6-0.2,0.6
				c0.2,0.2,1.7,0.4,3,1.1c2.3,1.3,6.9,4.4,16.6,14.5c4.9,5.1,12.8,12.9,12.8,12.9L53,54c0,0-11.2-12.8-20.2-22.1
				C31.5,30.6,30.3,29.4,29.4,28.5z"/>
			<path class="st0" d="M55.8,26.6"/>
			<path class="st0" d="M20.8,22.4c-1.3,1.1-2.9,2.1-4.4,2.7c-1,0.4-2.1,0-1.3-1.7c0.2-0.6,0.8-1.1,1.1-1.9c1.7-2.3,4.8-4.9,7.6-6.7
				c1-0.6,1.7-0.8,2.1-0.8c0.8,0,0.8,0.6,0.6,1.1C26.5,16.5,24.4,19.3,20.8,22.4z M21.6,20.7c0.4-0.2,1.5-1.5,2.5-2.7
				s1.5-2.3,1.5-2.3s0.2-0.4,0.2-0.6s-0.2-0.2-0.4-0.4c-0.2-0.2-2.7,1.1-3.8,2.1c0,0.2-0.2,0.8-0.2,1.1C21.2,18.4,22,19.1,21.6,20.7
				C21.4,20.7,21.6,20.9,21.6,20.7z"/>
			<path class="st0" d="M27.5,16.9"/>
			<g>
				<path class="st0" d="M37,40.1c-0.6,0.6-9.7,9.3-9.7,9.3c0.2,0.2,0.6,0.4,0.6,0.4s8.4-8,8.9-8.6c0.2-0.2,0.6-0.6,0.8-0.6L37,40.1
					z"/>
				<path class="st0" d="M54.3,29.2c0.2,0,0.2,0,0.4,0c0.2,0,0.4,0,0.4,0s0.2-0.2,0-0.2c-0.4,0-1.1-0.2-2.1-0.6
					c-0.6,0.2-1.3,0.4-2.5,0.8c-1.3,0.6-4.2,2.3-10.1,7.8l0.4,0.6c2.1-1.9,4.8-4.2,6.3-5.3c2.7-1.7,4.6-2.5,5.9-2.9
					C53.4,29.2,53.9,29.2,54.3,29.2z"/>
			</g>
			<g>
				<path class="st0" d="M48.6,24.9c-1.7-1.7-2.1-2.9-2.5-3.8l0,0c0,0,0,0-0.2,0c0,0,0,0,0,0.2c-0.2,1.7,0,2.5-0.8,4.2
					c-0.6,1.5-1.7,3.4-3.2,5.1c-1,1-2.3,2.7-3.6,4.2l1,1.1c0-0.2,0.4-0.4,0.8-0.8c4.6-4.8,8.4-7.8,9.9-8.8
					C49.4,25.8,49,25.4,48.6,24.9z"/>
				<path class="st0" d="M35.1,38.4c-1.9,2.1-3.8,4.2-4.4,4.9c-0.4,0.6-4.6,4.9-4.6,4.9s0.2,0.2,0.2,0.4c0.2,0,0.4,0.2,0.4,0.2
					s8.8-8.9,9.3-9.7L35.1,38.4z"/>
			</g>
			<path class="st0" d="M50.1,19v-0.2c-0.4-0.2-0.8-0.2-1,0c-0.6,0.6,0.8,2.7,2.9,4.8c2.1,1.9,4.4,3,4.9,2.5
				c0.2-0.2,0.2-0.8-0.2-1.3C53.6,25.1,50.1,21.1,50.1,19z"/>
			<path class="st0" d="M59.8,19.7c-0.4,0.4-0.8,1.1-1.1,1.5c0.2-0.4,0.4-1,0.2-2.9c-0.2-1.3-0.4-1.7-0.6-2.3
				c-0.2-0.2-0.2-0.2-0.4,0c-0.4,0.2-0.8,1-0.8,1c0,0.2,0,0-0.6-1.9C56.2,14,56,13.1,56,12.7c0-0.2,0-0.4,0-0.6c0-0.2,0-0.2-0.4,0
				c-0.2,0-1.9,1.1-2.5,2.9c-0.4,1-0.4,1.9-0.6,1.3c-0.2-1-0.2-1-0.2-1c-0.6,0.2-2.5,1-2.5,3.6c0,2.1,4.2,6.9,7.4,5.7
				c0,0,2.5-0.6,2.7-2.7C60,19.7,59.8,19.7,59.8,19.7z M58.9,22.6c-0.2,0.2-0.6,0.8-1.3,1.1c-0.8,0.4-1.9,0.4-2.5,0.2
				c-2.5-0.8-4-3.2-4-3.2c-1.9-3,0.6-4.4,1-4.6c0,0-0.2,1-0.2,1.7c0.2,0.6,0.6,1.1,0.6,1.5c0.2,0.8,0,1.1-0.2,1.3c0,0.2,0.2,0,0.2,0
				s0,0,0.2-0.2c0.4-0.2,0.8-0.8,0.6-1.1c-0.2-1-1-1.5-0.2-3.6c0.6-1.1,1.7-2.5,1.7-2.5c0.2-0.2,0.4-0.2,0.4-0.2
				c0,0.2,0.2,1,0.4,1.5s0.8,1.7,0.6,3.4c-0.2,1.7-2.9,3.4-3.2,3.6c-0.2,0-0.4,0.2-0.4,0.2s0,0.2,0.2,0.2s1.3-0.2,2.3-1
				c0.8-0.6,1.5-1.3,1.7-1.9c0.4-1,0.8-2.1,0.8-2.3c0-0.2,0.2-0.2,0.2,0c0,0.2,0.2,0.8,0.4,1.1c0,0.2,0.2,0.8,0.2,1.3
				c0,1.1-0.4,1.7-1.1,2.3c-0.4,0.4-1,0.4-1.3,0.6h-0.2c0,0-0.2,0,0,0.2h0.2c0.4,0.2,1.3,0.2,1.9-0.2c0.2-0.2,0.6-0.4,1.1-0.8
				c0.2,0.2,0.4,0,0.4,0C59.1,21.6,59.1,22.2,58.9,22.6z"/>
		</g>
	</g>
</g>
<g class="st1">
	<rect x="329" y="8.5" class="st0" width="2" height="66.8"/>
</g>
<g>
	<path class="st0" d="M378.4,35c-1.8,0.9-4.1,1.3-7,1.3c-3.8,0-6.7-1.1-8.9-3.3c-2.2-2.2-3.2-5.2-3.2-8.8c0-3.9,1.2-7.1,3.6-9.5
		c2.4-2.4,5.6-3.7,9.4-3.7c2.4,0,4.4,0.3,6,0.9v5.3c-1.6-1-3.5-1.5-5.6-1.5c-2.3,0-4.2,0.7-5.6,2.2c-1.4,1.4-2.1,3.4-2.1,5.9
		c0,2.4,0.7,4.3,2,5.7c1.3,1.4,3.1,2.1,5.4,2.1c2.2,0,4.1-0.5,5.9-1.6V35z"/>
	<path class="st0" d="M396.7,35.9h-5.1v-2.5h-0.1c-1.2,2-2.9,2.9-5.2,2.9c-1.7,0-3-0.5-4-1.4c-1-1-1.5-2.2-1.5-3.9
		c0-3.4,2-5.4,6-5.9l4.8-0.6c0-1.9-1-2.9-3.1-2.9c-2.1,0-4.1,0.6-5.9,1.9v-4.1c0.8-0.4,1.8-0.7,3.1-1c1.3-0.3,2.5-0.4,3.6-0.4
		c5,0,7.5,2.5,7.5,7.5V35.9z M391.6,28.8v-1.2l-3.2,0.4c-1.8,0.2-2.6,1-2.6,2.4c0,0.6,0.2,1.1,0.6,1.5c0.4,0.4,1,0.6,1.7,0.6
		c1,0,1.8-0.4,2.5-1.1C391.3,30.7,391.6,29.9,391.6,28.8z"/>
	<path class="st0" d="M428.8,35.9h-5.4v-10c0-2.5-0.9-3.8-2.8-3.8c-0.9,0-1.6,0.4-2.2,1.1c-0.6,0.8-0.8,1.7-0.8,2.9v9.8h-5.4V25.8
		c0-2.5-0.9-3.7-2.8-3.7c-0.9,0-1.7,0.4-2.2,1.1c-0.6,0.7-0.8,1.7-0.8,3v9.7H401V18.4h5.4v2.7h0.1c0.6-0.9,1.3-1.7,2.3-2.3
		c1-0.6,2.1-0.9,3.3-0.9c2.5,0,4.2,1.1,5.1,3.3c1.3-2.2,3.3-3.3,5.9-3.3c3.8,0,5.7,2.3,5.7,7V35.9z"/>
	<path class="st0" d="M438.5,33.9L438.5,33.9l-0.1,10.1h-5.4V18.4h5.4V21h0.1c1.3-2,3.2-3.1,5.6-3.1c2.3,0,4,0.8,5.3,2.3
		c1.2,1.6,1.9,3.7,1.9,6.3c0,2.9-0.7,5.3-2.2,7c-1.4,1.8-3.4,2.6-5.8,2.6C441.2,36.3,439.6,35.5,438.5,33.9z M438.4,26.7v1.4
		c0,1.2,0.3,2.2,1,3c0.6,0.8,1.5,1.1,2.5,1.1c1.2,0,2.2-0.5,2.9-1.4c0.7-1,1-2.3,1-4c0-3.1-1.2-4.6-3.6-4.6c-1.1,0-2,0.4-2.7,1.3
		C438.7,24.2,438.4,25.3,438.4,26.7z"/>
	<path class="st0" d="M471.4,35.9H466v-2.7h-0.1c-1.3,2.1-3.1,3.1-5.3,3.1c-4.1,0-6.1-2.5-6.1-7.4V18.4h5.4v10.1
		c0,2.5,1,3.7,2.9,3.7c1,0,1.7-0.3,2.3-1c0.6-0.7,0.9-1.6,0.9-2.8v-10h5.4V35.9z"/>
	<path class="st0" d="M474.8,35.4v-4.4c0.9,0.5,1.8,0.9,2.7,1.2c0.9,0.3,1.7,0.4,2.5,0.4c1,0,1.7-0.1,2.3-0.4
		c0.6-0.3,0.8-0.7,0.8-1.2c0-0.3-0.1-0.6-0.4-0.9c-0.3-0.2-0.6-0.4-1-0.6c-0.4-0.2-0.8-0.3-1.3-0.5c-0.5-0.1-0.9-0.3-1.3-0.5
		c-0.7-0.3-1.3-0.5-1.8-0.8c-0.5-0.3-1-0.7-1.3-1.1c-0.4-0.4-0.6-0.9-0.8-1.4c-0.2-0.5-0.3-1.1-0.3-1.9c0-1,0.2-1.8,0.6-2.5
		c0.4-0.7,1-1.3,1.7-1.7c0.7-0.4,1.5-0.8,2.4-1c0.9-0.2,1.9-0.3,2.9-0.3c0.8,0,1.6,0.1,2.4,0.2c0.8,0.1,1.6,0.3,2.4,0.5v4.2
		c-0.7-0.4-1.4-0.7-2.2-0.9c-0.8-0.2-1.5-0.3-2.3-0.3c-0.4,0-0.7,0-1,0.1c-0.3,0.1-0.6,0.2-0.8,0.3c-0.2,0.1-0.4,0.3-0.6,0.5
		c-0.1,0.2-0.2,0.4-0.2,0.6c0,0.3,0.1,0.6,0.3,0.8c0.2,0.2,0.5,0.4,0.8,0.6c0.3,0.2,0.7,0.3,1.1,0.4c0.4,0.1,0.8,0.3,1.2,0.4
		c0.7,0.3,1.4,0.5,1.9,0.8c0.6,0.3,1.1,0.6,1.5,1c0.4,0.4,0.7,0.9,1,1.4c0.2,0.5,0.3,1.2,0.3,1.9c0,1-0.2,1.9-0.7,2.7
		c-0.5,0.7-1,1.3-1.8,1.8c-0.7,0.5-1.6,0.8-2.6,1c-1,0.2-2,0.3-3,0.3C478.2,36.3,476.4,36,474.8,35.4z"/>
	<path class="st0" d="M516.1,35.9h-14.6V11.4h5.5v20h9.1V35.9z"/>
	<path class="st0" d="M521.6,15.6c-0.9,0-1.7-0.3-2.2-0.8s-0.9-1.2-0.9-2c0-0.8,0.3-1.5,0.9-2s1.3-0.8,2.2-0.8
		c0.9,0,1.7,0.3,2.2,0.8c0.6,0.5,0.9,1.2,0.9,2c0,0.8-0.3,1.5-0.9,2C523.3,15.4,522.5,15.6,521.6,15.6z M524.3,35.9h-5.4V18.4h5.4
		V35.9z"/>
	<path class="st0" d="M540.2,14.1c-0.7-0.3-1.4-0.4-2-0.4c-1.7,0-2.6,0.9-2.6,2.8v1.9h4v4h-4v13.5h-5.4V22.4h-2.9v-4h2.9v-2.2
		c0-2,0.6-3.6,1.9-4.8c1.3-1.2,3.1-1.8,5.3-1.8c1.1,0,2,0.1,2.7,0.3V14.1z"/>
	<path class="st0" d="M558,28.7h-11.4c0.2,2.5,1.8,3.8,4.8,3.8c1.9,0,3.6-0.5,5.1-1.4V35c-1.6,0.9-3.7,1.3-6.3,1.3
		c-2.8,0-5-0.8-6.6-2.4c-1.6-1.6-2.3-3.8-2.3-6.6c0-2.9,0.8-5.2,2.5-6.9c1.7-1.7,3.8-2.5,6.2-2.5c2.6,0,4.5,0.8,5.9,2.3
		c1.4,1.5,2.1,3.6,2.1,6.2V28.7z M553,25.4c0-2.5-1-3.8-3-3.8c-0.9,0-1.6,0.4-2.2,1.1c-0.6,0.7-1,1.6-1.2,2.7H553z"/>
</g>
</svg>
